<mxfile host="app.diagrams.net" modified="2023-12-17T15:38:51.846Z" agent="Mozilla/5.0 (Macintosh; Intel Mac OS X 10_15_7) AppleWebKit/605.1.15 (KHTML, like Gecko) Version/16.3 Safari/605.1.15" etag="49zcoGHbSmcBIxFtiMIb" version="22.1.11" type="github">
  <diagram name="Page-1" id="nkSNUwqKM3ma8L2L7-R5">
    <mxGraphModel dx="1861" dy="637" grid="1" gridSize="10" guides="1" tooltips="1" connect="1" arrows="1" fold="1" page="1" pageScale="1" pageWidth="850" pageHeight="1100" math="1" shadow="0">
      <root>
        <mxCell id="0" />
        <mxCell id="1" parent="0" />
        <mxCell id="w5DdY1P8ZR5gTNYnL2e2-1" value="" style="shape=image;verticalLabelPosition=bottom;labelBackgroundColor=default;verticalAlign=top;aspect=fixed;imageAspect=0;image=data:image/png,iVBORw0KGgoAAAANSUhEUgAAAPEAAADpCAYAAAD1TtH/AAAAAXNSR0IArs4c6QAAAARnQU1BAACxjwv8YQUAAAAJcEhZcwAADsMAAA7DAcdvqGQAAOWRSURBVHhe7P0HvGXZXd8L/s/Z++RzY+Wuqo5K3YqtCBJKKBAEggdGYLDNODyM7edxwH72vM98Zjxj5j2/Z4EfxoMNGDADyCAQQqmVWomWOkjqnGN1Vw43n3z2PufM7/tfe997q7pbSNVdV13d91+17t5n7bVX+K9/XGkXJgLbhm3YhosWitl1G7ZhGy5S2GbibdiGixy2mXgbtuEih20m3oZtuMhhm4m3YRsucthm4m3Yhosctpl4G7bhIodtJt6GbbjIYZuJt2EbLnLYZuJt2IaLHLaZeBu24SKHbSbehm24yGGbibdhGy5y2GbibdiGixxesFsRz210wf8q1tGRPS0Qm4dzIc9hc07npPO8xuE+y2uySW566s2v56AHRG962yKFzbk/udTsDS5e1jmQd3MhLz/PGSB9/k6e80auwEaOXsD63WYg9qninhpIuTk1KcHPRmz+7kYeejLZVO9v2T8vHHjhMPGmVk7U55DCZmKBSWwyUkgV9BQC8RApXSREZYSSXTwHJ6iMqDweBsmYhGd5fgWVpHwIYyspv4In95C9flZlFMYKetOGWVRFIVYICQtn1Z8SC5TldeIHbyiWC+B14Q1FFEIuIfeQF4xNG4GQM09COzZXi1+Bzfi7UQee5SFPn8dn2FiPB0IevJ3Vy+sb8Ewr8rT5+44+jwGfia6hjgGnsdJ7qhC3CTxmc2bPU8hx/IID+jYP6/CkiECshHU468XsBirzNBA2DCG0ovFc6ykeAeBJYd6QV/ZmeG3zNXuQk+XZj9ffWr/biDkHckb2N6mLrl4nrpuf5eFseHJMHrdR4ua3PTdF57k+FeRvhrfzu4yRdc0xvTnPopJs5Lcp943ITXmeA08Z+fyDF5Am3tRMEXGmtxycWBScF52gdKM0ExE9+gpAf/lzB26ULrygUHTmhQzzPKExdBtEGDQhMQoqCC0bsoLdA/FmP/MHAVT+2AUBr+kBbXDi5a2NpESFVKQh4mxNvfHcdZmDtzfcOmykzd88K9csLXe0hQhiFByvCo43onhHAfyFGIfsqUMoO+8BtCsR5AfGCOSriwelIa9iyC/UiPf8Jd05Zrx+BCC/ruex+eHzEF4gTKwmnsPE5zKcE9amJDBaRmL+PCevDTibkHKSPDdPQkyyTQ8mihzr3YlH5owc3vEsvR55TCDb9co5sQfCzWIc/N0M8mcbNVzPZf1ZnjuQ34ffm98C8ifEAfkV0P06E2dX0jojC1sZI28OeW5BDOVl5U8AXddfyG9kakeRC9Q81WbI88yDA6/l17MePP/gBcbECs4E3G3WFBs9nKU6KwCkgDTzkD+B/Z6KgTcHmL+Y06teRimP9ANGBkgDUZOvm9tesP54nbNcqTfMkWs6QXg7Sx5u1yGPy+MpgwAQt7mu5Bb03+Y3uJ77FhAESA7rmtsj+bORjrrmvnMOGzmGdHnqjXilzvsqu/hYQjFYRVlp6+kdt5t+h6cblzw2vzwf4QXJxBsNDj5YYOhAnOcSHASSx/M7EDu/QsxYMTkTk24zQREAv6fo8FM3sDBMHLQ48ZTOu57DegUxNbOBHB+QQrsxAJTnFRLmjJLHh/wCEJdnl7eQASRypd6ko00+3MXgmAsJILQvpNB7bi4LT3rOXQ6BTfMS8nQb70584ClAqFv4ldeZQExeEkN/HutCjAfE8lSxumegjxQATzKsrOfrL+W3/p5CeP15Cy8cJs56doPkghcb4unlUk4+DhBI0X3ZfkYLdX9WZLR5fWRXqQolMUPIiWTrBOXEnKcJWiQ8Fxn6iLV+eCkl/fYfupIWYg31COlVPr8mIlcxRNDX4c0QrzIkmIinNMp3xp9A7jmbKiekiDMGjKo6FxvOyJThjLDOfAgKYsmNv9gG2Xu6G/kIewByDiKFGN6hPkrnaRXvo8cVxRay2pEP8dwF4UcdeMLb1D2M3ZNHlid5eJ4Dv08LtfV3SF/2VOQkAI9kxEP/gxAJ/U004fkIL5yBrawrs+72u+DJQiB0r5hJREIMv5yBxx2Fln7pXRF9ICgRU0bQMIMVa7qWRahBo/pUjzN6Tup6p4g/F3l5xcmaHikP8szLnZAv+YmdilVPP9BPalwSyYZaQbIlFwbAuub0ZxIiejeUL+Yd90LdYWZnSAKQMVlBZZR2SZyU/Ak5F8cZa6gtuUwBaIWLAW/TBhNTfsHUDm9LLqJoE+0nH/1WXlZsKj1tp2zepFU8AyeFdYakDGFCwqSrCAQd7RKAE+5pD/fxTq83OQWMUB7lk0MmsBxCrqOMiUm7qVnPK3jBMDGNJGSk4UTlQyVurgIiDN0WSyK8MSQiohkumfWOByJJRUCNpllfTF1WGrTmSGQ3c4nuKyKuut4RmbgWJF/l4YQchAOllNCqw1NmbQW4YKjYioRDS/FTM8pbcbWdZvWd1kHzivJIZuO+VYroKNfjTowQfMHrHgh4IoYZ9DpWrajc/qLZ8mHVTcw6Uov7yrikNyLVeah7WRU2f438zBlLlbwM7asMBwkRcJQTPJhw1kgTNUMMLKuC35aumnVP60Z4SiU0KiprqNrR5rIE26Ke73uRGrDD+mlk1RjckHOWuwuDgBfANeq4rfcOqf16PpJwSBBIuo9hQf3uqQf3vNzSiQRDRD+NVHfwTS2FKYRsqJ0A/Ad8AeAxf/J8gxccE0PyAN0dTFsCMepmNKKYxeM6J+30bdfbmXu+bIXhmpWbc1ZEQ7ZXLIrF8OUpmz14je393h8SA+4TJsUYEJEzMYRKpiKbojSbk4+MSuW5eOdn7dhdX7GaNEsxHVhTgmEwGFmvP7J+NG2zL/1eu+zN77NBY5+NokJWz4lqhxddhJQdWPzhWheB4cJCZmvSUx271rrrBnvi65+xSrJKB6tkBdUdYo9G0mM7r7TLf/AXzHa82BkpDLpJA4q5JlHtLCamFdy72az/bhonLVt77FY7dueXbLLwsMVpW03P3QqVU25aXxr4te/5a2aXvt4SaX7aEbRxzrbCiTQr2phnhVHLuofutIdv/ITFwlNp1LVSXLRE/VFS3uOeGFx4vuydf8Pi/a9QPevUVhWSAJGAsRiLaDOrqhXqD/BFGxB6lPN8hOercHoSbB5YolOh27NidDsewRA81TVOLVk+aq3Dd1nx9H3Wf+jLNnjwehsf+qoNHvmaLT/wNRuefkSviogyUxMCd0Jy7atQrEhMiBB5io06Tm18+nFbffBm6z36VRse+pK1H/i09R7+tMWnbrT02E02WXxA+a1K846D9hAtxrxLtQR53cNP6s/dxBLVvUhvirGTlRO28vhdtvzIN6x3+HYbn7jXkuP3WO/IndZ54nY9u1MZB2FDDglMkMHZ+W8AxslkLDECfqLUmoNTNjlyq9mjX7HG0a9a4ZHrrXzka1Y4fJN1HrlReFMZnTN6KXWhEMQaFczrTCkjtVFYA4dyW6rtozY+cpsNhevRQ9d7nuMHPmu9+z9nK/ffYEuP3iHtL+uoQL2pkPLJg+eLYNBlHYh//sMLhomBs0aIBetEhSbTfUEa1ulBZprUpJWlLcuDRdtRXLUd4zO2S+FguW2XVHo2PWlZoyATFDUGE2Sjtp4nGlkBpoa9ibdBuJPetRlTHtW+7a92bd5WFFq2o7Bg08q/NloWbQd/liWZUchUAcJ9KqKk7tKO0lYyETxdadK3qWLPdpX6NldYs9rgtNUHZ2zWVm1n3JWGXpG25D20u4REGT0V8EBxXl9ByDkLjiOBM00i4dK2+nDBZpOTtmeybDuSNcfPTlu2eZU5q/JhdhjVq6/g+eb5AI5s8lO6kawImdN7yj07UOnYgdKq8l2y3bZgu2zJDjZTmyp0VVf6bCzrZWjpiPeVH+3O9CwxXmHP18Xqeni+wguDiZ3wAmnmnUlnrzOcCGAibTcpSi9AZJieesqgUnEo304apZp0rNQTEcnvjAcrVhy09FzEVxIByT+DXIK2AZRHuNkA8i1F8v3EnIM15bumq4xP8X9JVUs7ik/a0royAMeYydLEVIV646y7n43xuRn4RWDsN1wdZKaXZY7WJm3Ve9Wi3qIVewtWVltqYpSC6g4jjJOgJQNmeHd9DDnLGeM4DAAiQAqu6gXUadiTgBnI7FXLJcuqeqmIoOq2rNiXy6H2mdoDw8Nieb6b6xymj7KAC6J2R8JzcSA3oCsXQmgoK8uq/PVIOB91pIV9AE7pJbQK+Mq5CY0QVbahDIG7NCNnbUp4PsPzvX0bAOEp5CQErBO+GJnRY7pdNBOoWo/KpaI1KwVrlCZWETXopxNFJBUZy18twOwQkfy2DWYQUJZygvgzEnOXG1MAmcG7nkb/i7pFDlTKZrVaw8oMCnm+pOdlmBfPDkYO5u9Z4Jotm/fF7Oa30sFgZYWG3IL5esHm6mqLpEVFeVWw0ZWsKMsjEdUPvb3UMlgTALkGvRyYAVdAGWfpQEbFyqpvqarfqn9J1WasCaVYKceOL/d/RwNvP/k9iYkd57oHh7G8fDFmIrt9LNyQD2NxFCc5YRFMKZ/frSTq6X1GVipowsBewP86E/MLPCgmL//5CrTvBQDq2oyJ8w7d6FTuFJutCCIMoJP+0Lrdro2k1RjgJWoswhpDM3HVJqW69VK929Mbow0t7Pm61pQakQYp6wnjyglTMUnf+iLCsRhgHDUsVV5pVLTBpGT9UcXag4qtDRSZKKi65Ilv7ura8wxM/KS6i9Ipm4UV67/T1FK1YdSXOTuU2YzWlQk60j1CiEZNGMRTFgy0w1D8yJkgtAOcUa4CvogsGn8eVXy+diUt20JSsUUlO6XmrYxL1itULCmUJCBgTPAqhsQ1WM+TP7rLmFBYEkOKgYs1Papav9iwQTxlA1Wtp9COIuuqTdV6zWpVZgGUL+8qC/Az8tFr5qJD1nn9HYEhxXqfP1/Bu+/igLO7aDPkT+i2PJydGsKGwNlSGBpNp27uWOJgVuIqQS1K2ZSlJSOf4WAqBpIQD1gqYg4DK4rBF43L/n6eb/hDmcQAMg3FuEzx5HUayp8TXzkR4tqNVD8MzzGjrI1p5QnrKz6lUsrHM2eUWo+4VfA/ei9f6DGiPtJkkQi/WitZNUw5ezr4CfpHW5Z4kNKGsKcqVJf6hpHikH/GvJnFECoQZtb9BZUxUr0Kpao0ct3iat2ialP1L1k3GVpnIBubdwX5uJy33XFCKQHIyuNVKkKFuo8V0RV3dyQYUgnIWPjt93rCRXAzqFBF2ZCTu9UC8lnP2dPkLSE2hyyxgDtCyG0j5PEbKZ/7sLmFz2EIixQJ6+jNMO3urm4hLiR7HvjtSbLnYzHQWGYsBJV3thuPJJCpGElzNhjMUrwvYIAQJPF57MwNlSgg+Eej1OJxT4SUEbmYS6wc3iVPGKtYz1YXoXEgfpWoeGcQ3leGCAcMcdi3IMeyGI8thdt8njrUeyKN7dNXReWuR0Xr652hqjII7Qqt4JHyVH3EjGO9P0x7biqPVIb7iiTWVQapdVG95KcXqTd1cnypTvwuOfMy6i6mQcJggkxiG+m1kWck31U5Fcfd4OMPVSfhMO3Jp2dUXbb0GIeeBrqrEdyNEBQPIysbNoaAMzeVVeei+igetqw66lu9XNJbcgGUsCpriPYVfC5MdUspd+Lvgi5yLUrbR3IVCj5Vpnoztedz3huC0wtVCH/z+jw5UEqe5mIAR8FzHXKEPgmx+iGSOAfOTpU/h7HxGwN75MBTUEBAM+Xv6bcYLlWAAHlHCsFX/4Qr6fGv9STjbjTXxhL98Dcvy0txp63oo80EppzWrQJvRyg7+OkKYhaYK9I7gc2YGYaZlC5jcn87qzKpwlwuRMsAXTA585DXJ1V9U1ZsTcQCSg5fUGIgYO5IpV9eOf0uqkzhAeBpEYYTk7OCC+aLpDYjtSUiuYK3heBtoH6yfngve5+Q1xnwrZqUmT0sSCiC1yCcguVEcOGJ/+v4FrgwIavQ8gDKh/oplvfz/l4vbv3mbCA6f7Q5SVbScx7AwEUAkDidCoE+GbUQAgQMyzFUkl9dBus/b+Rv0UkZmSooFgJFame+HD7asCiGEaEPFRJJ86HiYejUr3koe5wPrDgaIVhd0MwiJBZnuFbTNRbBFbER9SgWNRYhbPnBzkj67YQqf7IgbRc5tSpC6t/Hn0YiRWx5z03MN84ZkPTKizyVztnMHXa1ZVKVSSpLYMI8dV1BPqzSp5OazPcpVVGanVVm1FfAJcdJonYkrP7SOwMsiUi+alB3Xp8SA0sIES+b8miHwlguhUKkdsTS3CVMACSe5BpCC82JOAystSHskG3OmAhG4TKR0GCBx5AgV4XrQP0zVP/QH75kVAFBSk6JXvOlleoTFry4heHCN7TrLKAsxUJN3NJzTxWy3hSQQx6euxDq+hyHQGQB9U9CqUtk2BGmzZmX3xAaXamgJBA5YXMn0ZGb89q4d8pS2BAaef4eMm3htfHyN4WMiQm+3phRXa7UR1kxhQX5wque3kOeP2PkpM0JnXdpQ0gV7vSiazgFzygEn0/OGCxGO7qwQEAE0mTJpq9I0/uhaL2gTIMADCG0lGhqwwSbmEe/Cf6QATFM9gI14cqUV8D1WUE4CbihrgRep33KyXFBIA8qDZCvzFwPcpu8nI0yuA/Z5L22QQebQ3gWgJS0CZMdKyFAeDfchTrm6Qjchx6nXoSNnJ/LQL0vCsjReTZKQbQ6O2OasxGfdwRBfttYPpNCYSx/UoxVRDsqGeZbYDgWSQQTtuTzsol+J2II+cm6VsUYNTFJVUxSkd9VkU9c9s0QpBWheR3Ia3NQAVxVH5QWmQ9EVYk4biR/esyqKfUAVmskYi0W2lJKHUXIHy0qbxZLyE+GwnK2XqfD9fx1TxHUWT4qC0WquobQ92tZdY3lSxcLPWXV1X1bLzCHC1MpnvleMZhsC7U56PxYFcsJmyKGuhlJFSfUKdJ7EQtdelKgXdVZONXVlP9Evv1E7SKtcw/TaU5lXkkF+mkjwNx+LxwWVIdYNgCLVUryycuqX0XxhJLuY8d1CDCnC2WK0NWLoB8QmvS1+gMLiL4O/UPZOfIAveg4DGVvBH4Tz3OFiwC87RcLnI3SnCjykD/NO2pzAPLO4ko4t4OCBIYgwk4kNC6aXSagkgaG3wgBlHdmBgZU6ur3uc7PA64AaVWCB8l7NwEpNUCoadBkHuvVJo1qoKCaO7m7BidQnFcqu3fNpeBLEmEIfHQe8xsNp1xJUxAToN0QC9znOecCgSxVhbwVBPLhUW7nkCsh1J8nGXh00Kh5e0ObSecV1u/sSglql1sIHu8ve27kC4QYBeqk+oUhPAJtXc/R0wTI3wD0kjMubSN9ljePNqfJ8X1WyCCr00b65yaAg4sGNlCaIz8L6zjmhiZl5Oc+KyFjJq4EBmuKMJKiPX1GSDn1ZBAGZ0IpDA7hf6GR8JmH8pUHmX8mPSG/jCkSysr9MspS4mxgqODmb1EMgj+stO67hsGldaE/xk/dCBP5pdL7TrJ5a32QSlnhbo5R4creg091KUTSZVGkIONVVUiUJs3S4zumanfCdJKeh2kl6kkGQf86ahXQcMSwmqyswG8Z6Apqs9WUpioeUeCq2In84hBoV56X8la7VbTqzlSY2kUQzvBhMwNb+AtxbJTwcQj55MEvVv31Mm0O+4LJaQOyqq7jxufJ2f7ogXvalod18ZgBeZ2dX4As3hk4GNcb7zw3QWh67kNAZwgB7Vm3ue/Eb5CujhKhhOGTTZ4xz11b5oF0PM/kecgwgyDdPW9JcaR/AEZ0IShGfAkwbWBciCWrjYcccgJz0E2YRpGJLpM8Ur6+IULMHAbrdAuTrxM+dQw1AbInWYCsUv0d6d8kqxcb9fQOAkNMPNQ1LYbR6ZGY2HGgQhAkIRABLgh6z9uxUV4ANDQsBi5Uri6Y2j5ang9oCdcB3yw7DXjPMRgOVAgaH01KbPDGFVT+hjWTAzZPPjwJg+ch1+S8rZdc4pE3mPPcHMA9IW+PCz4vjt9Bh+dFhqsenqVpNwXHxYbe3/zucxECxi8CCGglZB25Ga1C+kSEnxD0E9LJjMT1+7xjIBZo+EmdA5Ol8kMT+XqYnaOh3KuBulTswsiymGMibTcSE4zJAMLwpVyM55KrgldLf2BS3RLCb+XLXtl0VYzQsQpmbDpUvmJG8nHNKM2Tjm1MWcyvuhARoSoNxnTV5OvaqphjTfH4tbCtt8zbQVuZPYaAJ3FFuJDGVSRMBeM2ZD2UBhMrj4piOTEtk8gIC6VPlNBxkVfazW7mW1u6rijgPyu9ikOI+ACa2s7SkGGK6Qzuhd1SyVL2AeO/sqB6tKZ75aH6sm3S9z+7744vzuCbtDzNVUmKULR8YDZjMGesPF2w+agzdZSoKIFlGkUvSziMMkZWPo5rAZgHF7SHEJ6QKoCK88UkzKX7M+hiPYAPBEnQ2gTSE57LsNG65zDktBUquxm9gtzs8U4IsTkD58hn7a1LdKUjPmfsvLNzyc7KgYKrCIJItFSVZVy1uFL1YtAusfzQWGkiaRmX97riQ4e68d6mugG8SIB4s1JT3ilJs6g8/EfeifW7XBbpQqdO5Kk0ifxLGNohq5cLhRCDeZtDiCJtUfVUXhI6NTFVVcKhKq1cEKM60whPBagYwUFe5KJ04IIADv2Z33DRSwQnegHvsGVTuIhKEggVuQpFYVYSbCzGUuusVJWl44IA/KgtTJOFjLOg+6wdoflKx2osNlWkDCYKnwgvmJlyVd9KjWkltQ8EgU/6K8MJOXs2Cnk78j52wSSgiOzWE3vxvLSpXpuZlwB4kuc4UPuLAkIHgFIFep6IjIGD+RwQTwoaBTnzlCsbFwDMK/cNuVfIctMLSoB/SX6svIdYZDb2ZO620sjag7FoUUSFphBx1QoDq076vqFAXOIjy2gGz5VClR8mbl+BY3YSfORyw6wxZUm1bgP5rqmYcyLiT6XRXLHJAhgl0lx+vEeieo2kWRlLLkgHs3m+qfhphSkFThGpqbSgwyiSdpbRrBDrUNZBv2+FnvJp92zUEXOlaH3VT2UmI5WBNeyMBvNtEP6Q+irHocpLVNZIYVxo2qgsHOudEfgRuhIx50TWwDht23DQF0OoHOXLklQTYw8QPpyEUmnasDQtPJTcHfFDF1y7KhMqDmAFqS41CbFmPLG68Mlat6o0LvgWkqyvjlvsCsdUEvOfl+kzenBTVrQlb08eYORIwpdzxNCzDAdE+sP2SqwqaIB3cnog5EC+ed7PVVBzLhI4F7sZYC7mj1hmjICGoL2bE5mcIjKxo2gV7eZdqrDROb4IAxOwH7bNBY2puHJFmVREtGx2qImvpbEyYhknifW7bUt6MhV5b9AJeXDEjbToRISXExC5Ebos4JCT2pFJ2xmIQfWQ0V7osKzKsuuHrbK++yeWlhZz0TI6KBcRqfujBBGe24R6rofskWDKxX1Qlc2QWE2CAqaoV0ripYrFjar4Xk/EYCNWiKCWfYos1NkHuhUFX1PxYJYiHIMLIRngmstJXhYEa8qZPWJHlrKVoCz4SRw8xvTtOMNR+5Lajo4O7fB1K9TV8a4faHWWuaaqh/A5FF6HvbEEGlNuyl+4iFRWoVK3caw2VNguRTlUUtYKfZCyBFSCS7+Za0ef0k+E0C7iVAPKcXOfmuQVCVXhLg9A/n4enssAli8iyFFKtSGn0F0gnlhcJlmlYQBGDFmK1GH4duM1vYE+Y81tl70y0mWS/OpwdJ1YTC9BpT2lV2fTyaLYRETGjqa+mIb9SAk+sfvGZfF41UrslYPzXKtJSHiQH42mVv6MxUoHe6hH+lWsycRtWqM8Kz6VZh7LTFeqIkzCUuWezMi+yufsLalnthLWRazoXy+CZnuQc6AyooKIV20gxJx1NUEQSSuKUNkM0R2ObVnaeFXNOaP7M2KMpWRoQyhbWtTne4WfUhG89K2iNmNcgD/uGYcuq4aUTVtiSUnmlJ3xJJQmfRnPYrhg/eNpN4QOtSkpqb3SwkVZDGlsUzKBwQH5xL4MbQNXVuSq/BAqEjhsOkECp8VYlgy9VbHOpGwtdQRjEn4AAwzIO8xxexskpNX+iD5mzEFvNWRLsFat6DgRbvzwQJWHsHCBG3DsVJRxaU5HeQDVyNRAbc9duHjO2Mpr6U4U47JsiICJw3gtQt33+/J4CIGqs1juTwe2lnRFxfBQiTDHCPx0ClSAwjyJyJXBlbWTtnjjJ2z1to/b9HjZOv2utJpIWr5bCUYWkU2/+M1WfPcvysK9NNTLy4DAKEPEmJt9BEaZ+qfMbv5jO/KNz7nAYcNATUIjUh1qSrom0qtf8y5rvPMDyvNAYAK6hx1QUDYwyuoLEwBj2IOGQ9SKG6jNX/+0Ld/6J1bqnRAjS5NJi43ESPjiUTm14fRldvBn/q3KuFyvql6pyvB9lmo3+blbISJ3ZldFuVAP2hcpcGLnA1+xUzd8zOLTj4hJzValeYvCDz4xSyVHlXm77Ef+rtnl79E7c2qD8OLakHrqnjzBi0smxclissdussFXf98GJx8SE0toMrDFYKWERiRh2Wvutyvf90+U52uVXu9yYCHSD1PGd3uRp8AHqPTM6w3T63djl1CIG8IzcKnAVXXNFQGBLAjUSpVVpFdUkcTkBTy34CJkYm7PZmLAaZ3H0IqbiOE0xuToQ7Z6+G7rPPpNq446skRZPIGPyXGtaB5W/2CKJTYU0fSlQUrSsnGqtKcfsOaZJ3wEtaP+j6oNS1pIehAnnqw1Lb3yndaJZiweroZVXDKpqZUv6PBO514mbCwGRUucvN26Z2QZNFSWaLfq2wJlgsvnZl602zhoMwdeqvqxvVHk1VuRT1ewXrmpfGS6SovEzsT4zcp/LO+ROVUJHiz2aZn+/RMPWunMfdYQvbZVRrlaVv6MdjMIJ2Gh10oveY+15ffG6aqCLJNYmlSmOuuhGVAblhLly1IOmc1Cbkk+eyGOrSUXo1xR21aPWff4o9aUwGRbIAfsjZU/izWRM5ja0/sus1bjatVtSgp0WTmp7gxWyQ+l35gPZs6dddAl+dzl7jGLn7jFypLBidCi1FYs12UZ9C1aG0owKO7S11kqIZT0wsG10YhVaKIH+TphEAvKKCpPCVy1tSJcddU/06/6Ycms11h0yUHhTpQCk/t8PtNkGy4ZWXjwgTMElq4INWf8wNrPNdhiJs5RtbnIdbT5rydXhphsXjHcKjBPGna6hIWSGcjhYqmdWE7a+LgN7vyK3feNL9nqoTvsYLxsjVFLr+tNEQ3kxog2I86MNJcUg0Lq++INRnATm40HtgNJLkZYUrlxXUaamLghGoBwl0Wsy/UD1hL3NYsyocXETnB6ITBwEDOMqnZlElbkcM6JwrEWJhIKq5I1ZTHxoCcmgq6kcRcGIkAR9kSmxZQKKXRXXAn0OIhAN2Vpberr2VPChAGjkvVkHfTVgOnGjDP+9EgsKqJfoQxpyIkkBtqeAwHaos3V6iXWkc9aGbdl+sqslJ+PRQuDMWI+lGYfiYkRegwIlaUNGcVeZm5bWp1jhMrC0bQYeywrQ8a/JWLoKXhD1atJgHSEnwWZ1nF9RhhtKZ/QdpiBLSJsImHRTIJQVRmzZeXXXTIOCxkKHy1ZEWO5IQwizqnOKNHDEqG9aFZcPrSq2sL2UYSTz5jRu6q7Y131FvZUntyKeNYenVxiV77pfXbVG99ltucqdabyUNlsuCbrwMZOafpLZvzmCYE49UmGc4Cn4Y3wNH/fL+vpqEuIDzMJmzJ4FmHrmNiLQarliMlbS+MwidVDgidXBokIU1FZ3ZIPpqSoIUhQ9se4vvNfvgtocNrs9Nft/j/6D+KyI9YQoVblN5VE2FURC6W2Je1LdWkWEXcFLcC0BtkrMIKdqHO5L2FC6obVTtTXtSNV0C80Izt90CS+LU/t8q16/mYOm4lq7Is9eNdXXPkdwcnP//rKL68JrUZrhfx8esXjlMq1QyiD+XGYOxySDgmqjnqHdd9eR9J4HE9CiY4iXzWlOokBQptItZ6tjYtYOuFd4hF2WAQsdiE+1I0QUoQ685e4vFXCoxg1pAiTfKTkaZZSdfEWed4IJ4QUOQX88IwZY/WRGkJcO2K0oaTfCBHWVoc6M6rOmF9f/dpsqidkXheKsmCGsiKmpmw5UV81LrW5l/6gXfKj/0A8KRcIwad8Swg3nxXQDwkpN7W9FmSOOU496JfQJsLmXqZnsAqcNomk8QrBWpRE0w9GFtRC3T/7sIVMrEDjvFHBHAYC8+ZhAzypA0gUAkWEDKr6UCKDIVIbYcJgMxOjifVm+4jZgx+3hz76G1brnpK0TmyQJlaWBq+L8OgiOr1Yq1rXVx+JLGRS4rZRC4hFCtE1HGUAMClEuA1bD87K6jeEpm9HVE/gtpRlmuPq0P+c7c+B8kNZFNWK3Iu+hIHi2iIf5B/mPW5P6cofsQM//ktmc6+ySUmsq5cZn/CBQfrXl8JiFsHEAgbQYGgkhP/WrQKxlAtAIW4BetBD/WdoHZoMTEwOfKEjy+NZhguT6zkA6TNvKtZTiBXY51r1K4YsOixHCFLcJTlBT4P0HjniHI8eiM3HZYNUXGcxR6Ak8uJpGzAfylysMktL8mcrM9YVIawp77bKPNOTfyhHa6FXkBmtjte7iAyfclBmBV9swIgs2pgO5sF22PKgfnB6yDoGvRP6H4tCrobCYr+gULS1cUVuTmRretjHSqpMO+PDk+N0aO3Wql5o60ewVFg7olwF68SlgrgqngT89jroNhCajwUiPBgbwRLw6b2cQHnJg+L0blAyEgye94WBC5fzU4C3NQvBeKP4YK75LxLkAWzBOIE1HRypYkLeQ0OiU/PkwVDMkFiSRB5Is6qHmFIcyX/Cb5r4SiMZRrEkeaVuk2JZJvWM1aZ3iCA4/I08PYkTDfXxBQIe0AYhbjtscaBn138H058lmWF3FyZ+yWozOy2uNa1SrVtZ/V+m48WobkEpMOeMJkz5NAx0RQcLoBrugn2mgDujyGDOEwKNBt0L/UCXeiMnTV4OWYVkedhCoIYXHCgEFMlI8ZChy/UvWwB8GwCIJThmQFaOoQCOmxxhmd+S44v8MWnwOl0aSioyE1KVz1NSR7MnGL+4mbasoXjObSoOJY2TnnXWVm3QG6hf5Jfp3bxYfHCW/IWANs7vt8NWB19Ypv5wbZwxJR0VeKnoi1H6coaTQU8ubMdnCmYY9BqmNj3q2JTsKwbtCr5aTPTBajLZ1zAr3a3cFBjaxDLE/ltnWQ/47Z6B76WGMKiIHgBeKeKUiz+XLcfInuJy+syTXijY4oEtGhyaFH4FfeyDHdnj7E/W+pA2aF3hhyhMKv1ilw7ID+8HgLULAyTtKetc90E7ddvHbSpZsmiw5n6PL1QSflmduJgWrTB70I736FCmlHoykYbyi9lGgLnGgJGsBNU75J/Vaxu2HHCnOIzHfeJiVX0TB42cPYeR8YfL0cSqozUrdpZsp1xnXw+SaQzW0LTjeWvveJ1d87f+72a7Xy2CmPFjg6EtDF/y80E2vwZAQYSAMwjFhoE64kIi/RHD4v1CNcH9y2kGSxG1tUGjFwK2holRbz7pTlHCGpJNgV/rjTurGphKuYQMANLktSp9yCdsP2A9ERMJ5MOkhRDNip7hcet94T/a4zd9WJJ4VX5LqmhpZ5lKPh1RbFi3ccCues8HbKVfs0JtXgwuz1wS3qdvyC0bJQ4dQqCrLzyqtuHJENiKcRH1foFFpWHqKDBe6JOR+q8pLdg9fJcdvv1LtrPIVzbaohNRiAiEA/168Yy1Zl9pL/3b/4uY+FXi3oacWhaACNCmShtUgWg0B7S+tC0szJHCOc3CmqSCLmHfMOlJnVgFyCgP+ZFi00KdCwRbzMQCMQeNw5TJEUJwZHmMQAyOdIWdAkuBBgyeQRYDwnIm5mBToB/eYOlWcsKSL/+GPfDlD8mMXrU6ps1YZrVM62SY2Bqb2feqM//JL6sjd5p/TtQrRPkgHyGTDUZstq/z+m3DFkPWLy78oR/6Sn2d9w3P+M0Cn9s+a3d97L/afHrSapOuuhVGUvqRmDiatbWZl9jL/+7/zWzXyxXfFDeKicnX84LSSJ+943nnTIwt4BNJ66wZ5rwFog0O1WXOBWM8LCWCTpVywmg69faUFwS2zpz2w5vFnBKLTMzTKFYisuDfuwUmd0ans/TQV9KAitB6xrDDBgUhh6hiMFVgTsc1q7Swl5EFyWnrffE37P6vfNjmK6lMrLaVZFIzDYA13i2pM6dfbFf/83+vwg8o83m9lBGHg/JU+YGJyZw6eSE83IbvBjj+AVhI4BYTLMU9tCEBny6Y3XGd3fknv2b7C6fV7wOX6WP5wF0xbLu8xzozV9hr/+Y/Ndt7jbp3Wrwr64wT9R2gO/IPtlfQ8pQh9oT2fMqRUz11SzS0KPeLE1VSBbQ10aTCuzYO6oauiNxMXs8ybB0TC1gWiJnMDh6G9sFRhYb11qT4YFDWOqNtqRKDEAQQTCIQtomJPQM9Zy0e6TlYjs5kYKt/2uyrv2f3f+0vrM4kfnfZpovhcDV4vFOas5Xpl9rLf+mDQu6lykaa2CU8SAeyUWq/Cze55bAN3z3I8U/3Y6uFGH7lTKx+v/3jducf/6odKJyyWjr0VXgcudtK6zao77Vkx+X2sg/8PTHxS9X3bC0R/TBI4mMtyssVCHkSBK6hoT3RERsw2Aaqn65QnN70XrmhGjQsLTvrQpVW5hk/isqbrCGkLMtnG7aMid1vUIP5sh7tZvIdP4UNCv0n7rHx8hOSnCuScuw6Qqap1a4Ny74udlwIs8IshyQ3vpTA2HYkJmbVUJK2LGaPqG96XbPBg5+1M49+w6oSm0lH2ti5Ub6uOqxT3uFM/Gpn4oPOxCw6QfrmbEzXAQxEAttM/NyADfYKPYTbBfjAkywwu/1jdtuf/IodMJnTo/AVjAhG0s240rRWbc4u/b73iBfZEDElDSuLb6R+53wycvYCNkoJllgmJGBizhTTTx+bgcGlZMb13Va88o02njngZjekxoo5lyDS8tCOZ3mBYIuYOCCCDfARW/IEbh2NxLCjZTv11U/aw7d8ypoyh+pjmb0jNhEwlITfW5FVwmJ5WExe8ITN6PJBYoydSEws80ZNKMZicnYXjarWKA6t1HrAir2uTdXMBihpFcc5UAw7dEpiYvlGr82YeBLv2EQMdFBIDwQrTn/UCzljb8PWQk7/+SDW5rELlrzyy4ecXBN/1L75x79iBwsn3Y0aioPKMpEbMr/5auRJmYON/Zfbyog55qqUgphYzMbMEZ3t88MKwZwWcytblrGyGZUNIL1xxXm3wdJf1WMQNaw7dZm9/m/8a7PdV1vKFlPqg3uHLR+z6XWDri4EbBET0wxJJhZbRHL0vQ8UN2JD94KdvO737fidn7Pp9JRNian5tm44zC0WQvkyAyu8mBee+HpZ5g44v5nR40ial24cSVKyPXCQ1GB7qyvfmrJgy29Pr4xK0uOSmumkKE0875r49b8UfOKxmJi8gLB2jBB+B99LwOBHHrcNWwzqD6dSrtzAcQpygVhTzi93OdMzGRN/0M3pquirP4mtUizYNGem6VW+4DhqxLYmxi0Uq3LnylZIxrLYyAEmlopQN5OnM7F++Jp4edUTmY89LMPx2JoF/O2JDcuz1p6Ra/Zz/0+zS14rhTPjb/o+ddE739JiSDby3C4MbCFVCoMyd33VVP4bKIxk6koSph0rpW2Lk65/WLoiJJfTxEpJ2yp8HDtpeagnqwptaww7uraskSzpKp+3wNBF16alkavF1OpypX2bqfKi80KXbJ7Ho5t4kIcAiIZwfSrYnH47bF0AYIFzyDV/tBmkJn1uQ1dpKO9r/jKIimJkC3KpKCEfj2yqNLSpYs+mRDfVZEX0pZByXdZ12arcp6t6tqYwsErStzIffBuLJkeJ6DNVWLOSzHYfuJWCKLg4kUGt+1A//uS0dmFgi5g4mL6MJoddoGoo5zMzE68rn/McS0OP+c6sfN0RzLceyvpdcV+alXRF2TdcGdfiNBiuBPaEJ0JqIs05VOcN5Qf1Fd9R308qfLdIpcpPifWcEOaDsRACY+dIDijHcFee/GbAa9OI5Xb47gQ3ceHjfMrISZdrAL/DWVXI+5iBTPqZZyzN7KmbR6KLoaQ6DD2SkkiHfRsN2RwzzoKoVC+EIAdMSoYvWIY1BmXRXl33lTCmo3zl0EkoYF1yFrdMaZXpLhjfzJJNiE4OtSNcGNgyJg4HkoVmh+boL7wDMoVRtOVYzMdcGwzkI9lZnMeLCUcyY4inA7y/dA1phC6ZzeH70yzUGFsqc53znFKVG3EyhjAbJPOGNnbTTP+DoZPXKtwr+qyQPwl35ANxsIieKw05G/JcEAcbac7N9YURAh5C2Az8AitPF3ge+mojNwcfJRLp6prdBfAOYllm/naI8qN/WWaZxdDtZBGJXnC3KiKPQGe66lVe9+A0NlaQPy16mpCP3DlOYqGCpOXcM+gxgJwyCvGCROu+IyoKU1JEXSDYIiZWI9QQzpJiSol7XwfHyXNqcVh9E0afIzEbUg4tyyduSxxfw55OqV+W1o19I3fRnxFyV3UgF8SRJUlbqaDCzWqKL9M5HNcjyKV5YOHsxU2CJYQwQr0RMuLz3tV/9fSEVWGMVjIlhinFjpi88xSCJCboj5/nxMgazJwLkBdWcGQ4RwiX4CYDbhHYWDyEnkzS3D4i9BmRZEpx0PG+CMATkKwYcWLeT5QS+lJP1ZGsuOMEH3oPQToZhiOQSqoAA8eR/GSYj9NV1k8m0pXZpgmj2WheXSFRV/5lvSc3jVHnKrmqCm4xl2oh/bhlNlygdL2gi1dMGaq6vqZwU7ufbdiy0ekxh6wzRA8nAdi/OP+Dk3bqC39sj9zyFzY1PmWN8bLxAbAwtcPWCE7ayD4jKnSUhfkIDVjoi6ElIZUd3VQtlK0/KtrqpGo1IbzRPW2zkrDdvp6rJ4qRJKrS+hRTaaetTL/MXvNLv6IiLlPP7syIIOAe2PjNHZ2Q1duBkUd1GoN1/kx1K8icwk2g3q4JRB0co8MqM3qc+W6nhhcqgBhw6FwS7p0RYRieQ+0hDTuUBmkky4rD95wQRDYB/xxi4HnJPM5S+1+oKRqJiW79kN31xx+0PcUV0UrbrbGStEJFApVDD7txSW6WlEG1JlqQ8kiH1iiL4SEU0QaLOYK7J6pSP8r4Vs4SAtIq4xFr6+WSwbyi457VrFfdZ93m5faGn/+fzXa+TGp9r5vugPMxFfDm0t7QhmcbtoSJxcL6B/JBNl6E/FuKRZsNluz0rV+0+2/+lDVGK1Ydd8IcG+wzYZ2WfGXvbAkB0KuOQLrz5b0xZrMkKv9K4uYkmVivWLb5+sSqy3dZLW3ZKImtWpYQGHCmM2b5d87EaO2W+hLenKnqz1h5tY9L8urKwtyh2lZpKoH3rgIkRaDNagt9lwmhFyw4/dLnmwKRmUZdnwesTplN7RZHzguddePkW2Q/4o9wPkzMkbclmW1rHBdcmrXSjoOWVmb86OC037dyFHmgfxhJDqeNhFxRGACzJJjWnG/G8bx8QWIg+uyXZ61f32tv/dl/KOI4aKNoVmJ7w0JgCWbodfJ3JDzrsKVMTEGgRCgVEhhFVsykb+nJx2UaMySvgPbyKtFo9R4DYLAUn/yEKRj/RytiOzum8t9oQV15d3jKJl/7Aztx7002aPWtgiTmKFnV4Hw1MV4ts9Y2PG29h79hpx/6urVOP2FJT/VyopRJrkuM36R3Almp5VTJc7owHXgxADjg+CCEb0n9Do7Yow2+goYtWKPZlGkrJmnM2a4rX221S19ndulrLJlM+aH1z4SJC6XYhiqXw4rL+15ul77lR80OXKMXJDAQvAxZi5m9i3LLwLtLL3t5SsOJIt6ZomCIxIW1fkeywCQQrM4a/HnpbaZDs7p6kDuoKwNcgbWffdgyJg5DVkE30cREyCipA/nun8fKrPG5Y5ADBtFcefC3VvVMV5wXkIEGhIHZIwoy6QT2G7L/bHTSJp/9j/b416+zQq9vjUi6NO0o1/NkYjrO9x8vWPfW6+yRmz9phZVDFiWrUrqpTU9N21A+PkQZzpyipSpL9cvPmGK0lGcvRPAthKymEw1UMEmFC1brBTzR2xPrd7tWrsg8pfsae236qjfb3h/+H812X6s+mnLZDZwPE3OIFjMdq9aw0r7X2lXv/wWzva/RAzHfCJpR5uxm8A707ELwvidnRfpGBqWlfNL5M95RxqzKwhSPNvYjB8YlwMSwL38902cdtswnJoyFEP+AmH6FbySwO5Pm6blrUaLAogImi6JACDExH/fiHT9nWYgTg2SbDx01Vd5FCHAg+eioDT/zK3bklo9bedizUqqglKQ7PyZmAEum87E77OTnfsdO3vlZ21nqWiMe21AV8NFNVRTDgv6lHJqTiHgHxZqaxamSnPRIm194gBZeZ2L1EV9YBJwXuCrUJIv5mkS7M7G2aKBbv8Iue+tft+itf9useakeMj4Cjs+HiSPr6b0lGHH3G+w1H/gXYuI3KDNpT5QA4GSnxOpEVE4YECM65O8jXgCRDlnlBaTlnWBriBZkahdRMIpDeeE+8uxCMXFOsxcWoOhR0YqJ/GF1ELoVIxl2hE0dHd56VUfIAh2Y3TBo+OJPqmsYdGDYnm/gJpPAwHlw9sAUyj7GOx4Fs7YiCVuQ9H9G6EPOiUtXHrnfWscesjmZ/tPq8JqiOV6VAWr/oL/C+lUVitE20uKcac20RCQCfiEGTlYpo4FZdivcgE76t6/+6kuT9SXY1xSx2JpYout0TTSSLNvhB2816/FVxmcm/GAtFv80xMxYf1ZCqyoCBoYDULCQqFIGemIlNkNaCqKzdMwSTY4e5vtYbDtkuJK0olO9mIppw/FNcgdoq/vOEwUZ0SksHJj4QsHWMDEAp6JlRyJsdSwSDrZ0I4NeZZjeg5CuwDRTSENa9bxY3w8cixj61zN/7vh3oaAsQxkxnaO0ynOcMqigSOKfCdDxynNlRSZ90rf5hgSJFAJjMbhTrJ33JAr51afJ9GpY2iKBksW/EAN4EJo8cA+OxsWypfInk6iqwEfbYyvWRPSsmSiIYZK2XBThmwO5seD03vmCinMvK8Jc8i2xiskz1O0QwQIj++g4KkT1zoN+eF+qTj4FqufEkwYgqxitCwFiaTkhKkMmnSkK6fBM6e+vAOqzNUCr4Tj3Yyk2IMwb7HZVFrILi87LknVVyTzpXb0eTBwHPceFgShyjc4KG3+XjtJNxEy+hEIie4rRyWcGer9QtWJlWjnH1huM3JXCz+qoozjJk64jGYZAT9qEIqEJPGIGcZBTvlDlBRigZw7bx0rxcSFRPrMOQ1wjMbF/sD2uSiOX/ajgNjZwqWh9aW9UM99bVsx5A+SFpUz5PgoNI0NAkKGC7zAUnbE+Woa3erivgLMW3vF1Daq4nCM9ZxU/zOzdnTG08nL6c67VTQaKwzjcFHNBgDpsDdDIDGkBiMhDQEUIAlrtEiwYIWhr/roMdIzoj1QhB6Y5orOo7I8AAwr9ja5HD7rX/cxAGcCUYclm8ICYo3YClL71rzzIdOoVmrYmE2x1VLKurkmxKWaftoFCv/TCDIO4YQsdCTdZYomE61A4mpRnrBDXfdqGsYLRsC/5i7EqHIuB6+WiVZHO4j681GcKQU9kbAc5ZZwNmXGsDgY+Tly+6IgRl0wxh8AATTYzwr+zKJbnAGoZyB/qyisbMxQXBrZkYIsuAE0UFBqer16CFfiHuAJBWaLNgD+kR/gnPOKcX1dreFV0hJjIE3gB/JYmHp+wDgNbN/+F1ZKeVeS0lvhaPd11PgNbbAhP12zxut+24U2/aVO9Y37AGjp/LDHOklKkdU+RpfkrbLUzEFunUiKJOlGMjDqSXYYt8UIEWl5W+2ul2AbdjltHpeasFdUvtcEpm6tJ1EoSMyDkn1DVO6BsZfoqu+of/JbZrmuFZ3YH8dmdYGl9JwNbbonJzF0rzFh/zxvsZT/7L8PodGk+Y1eO1MmOd1J+YROD/GaWTUIIFOF/9GPTFBTMmd3qMQl5zpVaBUeQegEZlV4Q2DImFstl6CagJ3MGDv+AIC2zAORXmFiBnxtMLIfUM8NXlq7OxR1MLyZuffpX7KiYuD6EibtCIlNM58vEXTVg1Vav+01n4kbvtA3Vz0M55xNpFvLkrK+0ussOvuUnbCTtG2G2iSjxpflEagm14g18AQLNxqbma5P+LWcxi+4Hj95pC3d91majticiiR/dpE4AVe2ZF9nBf/w7ZvOv1lMOGo7Oi4mLLiHMVmHiva+za372l5yJx/Gcsy+amPPbYOJAieo7HDVW4kEIFJFDIGAPHh1eyC6I6SCqNxbZBpp6XjAxY9AB3TQmNDlr//o1h7PMGIJaDxMDnLzvve3ftgVZdGa0blJTSmF03Nqf/qAdu+mj1hh21Znydfwbts+AidNVW97ExL1SGL0siFlH6uxxsW7j+ZfYFX/335o1ladPXVAr5UgDOZHEpfQLEUKvu7ZiHTkOKtbNTZ+0Bz/5n2x+vCANPPApVz4k7muWR4m1m9LEv/ifzXa/VsISJpYZe15MrLS6rhVnrLfntfbynwtMPIrQxMHCwylCbwZahApgZP3iIZBfc8gfnZMkD0C4hoEwH8D1388+5DR7QSEYF8E7haxBT9gmpgoobG4cDUepemQeBDlaA2Y2XqLz8pC50dx5h7D1kCWcLC7ww+nPG0Jh7hblQb/5Ah9ExQfN06RvnYEYle/glnaosrvlIewSc+9STfS7slcS6IUa9lmikFYuMatxMCFH48zboDxnSTFsQ+VLHMXaDhuW5qwvZsNvHhcbSqfAuvO8w88DoD/Xi6KBwO4E7kOuIYjNfNcRASoN4oGRcvqZM+8ITl9ZVTa/vxn4Db2G+ZRA9yG3CwNbxMQwoBhZ7SiKA3zaLwsoJwIaj4EFRgCDqTxUpBJQQ2UAAwcmVmJGAZ0pg3bnLvwCuAsMzJf2OWeJL+i5dn8mwOISzGfd0pEFVZoyqgo1aZWmta3QX9YDNAWJdMsCB9FDka+fe0PyVrywAs7TUP3VZwCLOLkY4CMRPtF9vWFq7cHYlroTW+jFtjKsWm9c1zs1WUBKm6H0vEHGJjO9wXaSoHX6CdOc3jPqK4yDdUJaJyZuGGwbqp4s21CME6wqhCVIcJolr40eXldQSHtewsH3/C4MUO7WAZY7jckbBHfnQZG5xAR5AWUgK5hPWZJNcQFloSM2MORLG91DEIPrJaSog2dwnpAVTk5scaOGzG3nBECHsc2t6If4KVZpOM+JPgRwjQMQ8UIMImwxbOzjF+plhvVlwDYPvNSueNMP2eVv+ym7/K0/ZS962wfsmnf+jF3zrp+1qxS39xVvkz+8TygNJm/WkxlkNHEWKIVrWxAO/UADihPjkRZrjJmFdSWgPvQ88szzkAHPAnVBmeFhTp8h5IlDTZzU8qj8frPqvkCwZUxMe4IU40a/JLI4MjpRDYbEEzHhG64cCA+jBN0ckBKMIMdHEd8SZpHPKdMHz4h5ZB+UoHOQeoNUMbF1yac+ZW1FUcJ5gwuG4C+xzSz1qQRZFETrjrxTjhOqNXVXUR2r0r7iaj0kZfSMzYCLG8ABupdRAvcNOec5qpvtf4VN/+g/M3vfvzL7gX9m8Xv/sdXf9fes8va/ZdG7/77t+MG/IxxKk0s4gmPvw3waZx02/w69EaaIoBPFKIzVUfjGhYKEPrTHOgU/JiqwJtTkR0QTyM7pkSfQIAZx+NIIp7yxSDhMVdGaso04aI90vrU21JHBOSZbQn7KkNVJT6r3swcUc8EhR+3YWyZQg9BSvTQVupFuYFrNz0JY0ZVJ1Exiou2CUmVhHGjPgXQYaTCZEImtzvK6EkMVSo3ZpN8uAJ4RUPhE9RZRMc0gyJnYgwpw3Swmp0ZeVQcS0bUbMS80APX0PCF0g+58ySNfYJDPXLnMrHGVwhVm9YO6Xhrum7qvylcu8/2lHNYx7r/ORmtWwmbtp4t/4L3aFOWUnZmdzrzzwqINvB1WZvkrmMicVMk2WblKPEcAxdAkg2ooChYUZRo9HP+jnufMqPU8oErKxXLTU8/8wgGt3gKATWWWMLkK0mmTrpxbhO4lOGL4njALkUcD8aKYkqMXnLHFtL6sDeRmK6XdLwFVZKjALqgB351lS2PH4lR+sELal6+aadFteC4BRA/3wMzSzLJeJgxyKYwKnHDKer1wJlvYRBrIJvQ3cHaPeqxrSEx2aUcfoIKuJHQnFWuNStaWlZRgBWBZIezZ2ZZ0LEpUgh+5w1bYPHT0W7Qzbol5O9LgbDkVbfLMz0ZX4GAIPh2jZxPRGEoDYMIHxvIgYbFZpF8I2JIpJgogYMH4GI9+OL4FjBimS0d9wTvICEzKA5xMBcwfOsy1HxJQjOomCqOWyEjFkSFrpv3YHP3unTD7xp/bsTuut4oQXRCDBy2uOpzvFNNoyU5/+nesdcsfWrN3WJ0jwaC6hVMeSB/Z8uwr7UX/+qM2rlweXlaZdKIngGDPIbwXEmToF4Q7MJHfcc0DeN/8m0DawJ7Yc/QxMervTYCbHaViqG9+yO7+4w/a7oijj9u+QWEiq4whqL4ERGXXVXbZu3/CbM+LleGsMq8GOstpR9pXuXmewQR2VgxlOj2iTIhSHAqGH7V5G1cP2IQP8ylmrDR+YD1PxV6FC2hKA1vGxLmUioXOsTRtkUPkYdjBip365uftvs//vk2nZ6zCuVVCTsopmGp8hMQUAkeSpuwU4egeNHAihCLjYsxv5esuiaR6sVy2WiTTp3Vc7vOaVWsytNVBfraXkmwz8dYD/c9QJeCuk183IDwJ1zyA//wezCGuGWF2c9bfPpuJSV9MpRlv/e/ZPPGyBHjbUtFMFIv5o8QGStQSj5ZnZ6WZyzYQA4cvHTK9FEZhMJnXXTkB5RdEM4WJaEuuEsYh22n5QH2qHzDoYOpSe8vf/99tMnelrxtwhs8H8TyXUOPNbX42IafZCwo0xH0Rv2fejY5AgyqIKYcLj9n85JTtnhy1faPHbf/4sO0fHbVLRsds7+gJ2zt+wuP3pbqmxzzs5V5xl+i6Pzlil9tJpT9qc4PHrdw6ZHV16FytZJVyHATqhcLgNnxbEIj5qQ3LXLxxDRpXcjULsCrXjRmILKUuHsMfhUDIGZFlQGn552ohuYYynleG5daKTXVO2+7hEdufHrUDopt9uu4VXe0ZnbQ9aQh70xOiL4JoMT2sNAojAukIx23f+LjtLsiKHKxKVudChnqE+mbVu6CwJUzs/KN2cWVSHYnm3SPpxt6zirotZvP+oGVlKeeyXN94MLBoMJQ2lWRMJC/5Arx8GA42Y4Etx/uMZJ9zlCiH8BX0uyifOpZJHkswlKX7I0Y1Bz0njNyc3obvFpzLwOipMCiJMMcnLYzxTRkPkaWmvow86F79iKYMFERvMvec/fRcc+bFFFZeBbQpIew4YtqRw1X7acn4jFBZmnQmjm1K/nJVDyr9oZUHI9GfLCvZ3cWhqJSge37HIrkoET0lfdEioSXTfU2/V6wiN7As3xlry0+9pD7OyIzDBN/Yq3kBYUuYGCjRPgGfvgjFKqCM1V6G7tmqJsvXqmoxG+2r8jmqQgoL58v6zSdQueJTs56dwG5DrJcokpxGCoqhy8WxVRVPOgbGGBPD5N2G7y5sEDL9vynAnBA9UtYlLdIepiQEBg9MIfCBFMJmgUA6CImgzhYDY+mNUb255FbhUbkpV6ou+V+S64sbJrqQgoiHE6srtxo0WBC9ScEQSlzlnsHwZb3v9KfA1QN0plDjykkHjEDjMnlDVS6+c1ZLojz6AsGWk3dRjV139OFAMStHmeCaM06Ah+4D0vpDIH4j7ulCSBdFkp7klcXzm0372RjDNnyXIGgkRg2C3xk0cMZgDpAhQR3lg5VcN92rL52B9QpbgfnY4MbbMAsaWOqS9QPS5OOiaEav9vSIrYCkT6Q8RmOVLL9OOdkEC0/PUR58i6kga46RVwalRqIllE0IgZaeHKBP5UMg0VntyYG4p4p/dmHLmJg1GAAdOGEUEOQjLXXfTwbGflw+scHiD99wL0YfS8Myz8bII3Nuvp2TGuseObARClYq86mXkjor8k7DBx+q0IGK6sk834bvLsC0OfNuMDCdF5iVwaWwqYF7glwt1kxHVQUGQcMbyH0UHj9haJMbZn2mFtHC6nQlGIiOesozrajEmpKIofm4vexqBcxepSMPuFnB5YPCWBp1HEmZKN1ICmAjbNAeY1bkxckkzD+nKotVfD6LgsWQN801hxJ7uLAAS1xwoF0wIVehR0wsqemmD1dJzrhg7PZtjWPrKFFLoav0HUnFgZDDqGJ3XLaewkAZ8XEs9p369LGuIzFr39ffjqybCKmRDKRS7EIhqsjfxv2+8LjchqcFdairrDxACbl+DhsAU3GmU4MEck/WlAfdI38TGDAQT35x5ex8go1bZWxFaZypKtaLpmxFpvNqYdqWC1O2KroaiN4S6+jaV5gobwl3aCwL0FtPQqAnmsxDV5q9K0XTVTE9FdqTguiJ2/uiw/6koviata1h7THny8iizE1opIyzVhiOy8OFgi2bYvKPPctHEQoC9zHBz5zccNkWvvk5O3LzR20qOWNVppDU0XzOlE72E5+FlLEQxwBFhQl3dSFnMk3UyUwxIWD5Jg4auFgqW72kLl45YmlnwUqSxhNxPIYZsD3F9N0AcJARuP5jPtG3PlUTYp8UNgN9hw/rIBRixxFC/JrilDeDpeOOte76vN31xT+z2mjVyqOOeHwk5mJwK/QlC3/YdhG2XkgrKw+mMt3QlxDgGoajQm95kAYoioGLojk3o1HfUZhiwhVkiuman/5fzOaudEvANQaLWDyvABey57eEiQEKwYpWmwPQGbJ546Kk3YnHLD31iNXUCczTsWMkwVwREvwTlfoH4pDZbO7HIOsX627GhA9Aw0zqUtlXQq3FEgbdu6+zxYdvstqkIzdp7B/Oog7bTPzdAHDgFKCQ4SBj4BzGwhEfLBM/SdiTRn4tms37Xyl9IYAYJK4GN0u/wChnfzOINKnMKJ10+akHbPHxu6wZJVZMWT2vfipVRRrhyMINiyzb0pD9zjfKQFtex/WE4TfWchzBxNRJqXzsBaGg4mvz1rjqjWb1HeEVnOWc0Nfvs3wvAGwZE4Ox8VASEEkF6MLHrGCuYsLhn/qBbYxfQ1s9nW6ww+kufCcfwOBzLILCjALSjji9A4AwtPzwmNmX/osdvukjNj1u2aQn7a0saOg2E3+X4CmpDNzAjgr0u9+jY2GULB7cef/Lcss2l/C5WVJBEb4cUkyfFOr6pa7kw2YJn9fhXaViwIqlljJ99TT0A0Ii7w/vEsqgfK5ZRZ2Jeb75Sn15TjqAe+KhQ1mO8t35NZIyYcbE09IOLzMr7wIAOW8BSOqx1lnSMXSWgtpTlKnjBg07fjCvfRCDAGeTQMERDvL13Jdack/36eqbtwXgBlFJt/JhM2npoTqhNUhsKDMbctiG7x442auP8nGRdYDAxwMxXVuUL+ZrHTc78YDZE7ebPXaL2SM3mh3+htnCgxLM0rgusPGgJz4OMuSQagS3NGxbShj/eThu6iffctqnsF+0cEA0sUdhSkGMXtBzvuZfnBbT8WWJKZv4bz3nEAIXBqIh6MgD7yhw8LzfK87veab08omhN5g0zGUL1gUEjMwVAr1wsGVMLGwH3pNmmiAdJaViMSkVcEbG5GCkwq/oP57QeK7ZLiTHBYMISFaQw4VMxcz5KCZMjj8iBHI0aklmdok8z6KebfjOIPRfCOFXHgIgJsNg5VnPsj8wnXedgM+NunHlWlbMm5zUq4et/82P28JX/8Qe/cL/z+7/9H+1ez7+n+1+hSPX/Zad+uzv2spX/tiGd3/ebPE+vXrSqsWurwdgsdBEAr4iknCKiWVUT2Q6Ox2IHkoZk/kncUkEbYQZjyASQvAzZ/julyuLzYH0Cq5tud/8jKXBvKN3HTWi7XMMW8ZtAh5yDDz7QLu3CJgfBlGSWGU1XFxZlJaMdOU7ia6hi0IngxRqdahYYGBgHQX+RXYFsKa07HLpG2tgg88ThIAej1JrICT6fMYliIRtOF8QFWKaSnNCj9Cr9xI/nEBhB5m11tWzsQ8wYhiF50o96Ut2JzboDZ1hSO07ggYnzG7/qC3+8b+xRz/2v9vCX/6Wje79Cys//kWbPnmjTZ28yQqPfMH6t3/Elr/4G/bEn/+yLX3y35nd/wmp3Sc8j8GYcyoDlYitoAAZdqqdD3YhKCRcOM8LAoI2uCpAD6Ql8G6gL/1FKawH0hOn4FsN83vomOeiL6xFwL9wL9pWHN8+zoHzwjyfCwgXNvd1oFFZAAlATgBZyKcbCD5nCHpZlumSsLBujgW0IwW5h2SCuUw2TlybEO96Pt/DTIJteAaQd9bG3cYvMB9+0TFYTesx/OBGfmJNqpNPuVTY5nfiLjvyyd+2M7d+0loPfsX22EmbT45Zo3vCqt0z1khWbUZCYTYa2myha/XuMdszOWnL937B7vrTX7PW1/7MbO0xn62oiQAqKrCkclibz6ZArDuoAxLI6SEEKhUuPMpDFi0gjWLy9JueBMjjzn127u+tA+q/JZDvXvEezdubhdDpMCOnNVckqQllmV4sAJG5o4D0hllDNhsv0wBYPr+GctjvUrKhTB0+aMY1CIBtOH8AgWdPmTiN0yvOqLKuZBEF4znrU54jRMcVm8QyZ1n/Pj4mf/fzduozv269Oz5uncdvt0Jv1dJOW+J5YtP12GaaJVm94TsMrXFZOr5qUX3GziwsWiStWumedJN78VP/yez0zTLHj4pIuior0FFulQUTGYGPIoBCnp+wRS2jNymKoHt+ZlG5oM6JA8h/I83PDevAiwLICt3M4WQMBOefD+VD0QgBtiymzClvVVOfl5B11jk4dHZ190fxYzGpGBnsr4e8n9UXobfEaEdvEwP/V1u789O2K5Vvm7ZtplGRCUwaWVxJKrM7sX4/tSHLIdV3Zblfw0Hf5mYaNl0p2HxpYPsKi3bqGx+z5U/8FzHyPRIQyyrQDXVBJkh0pXZ8Ypbfz1fYMsrOhzcCchmtDgYPv4CcRAi5ZiXkdLAO6z/0nvwtpudJv87lPjUR5hYhorBsU7/OymQbvnPIeyQAM/dhMItr6LXQtyFwQmT4Um8W0ROTDU/b6es/ZKv3f8UOVHsWDzp6c2wDdVmB+d8C87ASyFHBGtWyzdQq1izILkvaVkoHVi8mNlzr2EjhQD2xPYUVO3PfDXb6M39i1j6j/Fn3F0jEpwZVsFODIqjC8xU2emULYKOT+Qd66WRWz2AEiQz0EI26HhTHZD3P8845C8SZ/i9kqqA/UIEYOazICSEQGgm24fxgA/sbWKRPcrxmz0B/FoPuY3GO/2Bgabxgxz7zh3b6wVtsR5mFGBIA6hrOQuN8sr60Lkt1RnFD7k/dWsPIVrupdaWVR8ORNWQRD9t8akV5S2qvtMTQIxnM0tKLy0t6qPxSDkyk76kRU1HUZnOdn5+wJUwMEp8c0MQwWWDkMIqpW/DulKA/nHskz4ilmni5G0xMQv1yP2dTEzxj3uObuBwaP5QwCGcNBxtgG84fNrAPhF95nHCrW0e/ArEYx64NWYzRP2F2z+fsiRv/jJXGVpGGXWKNhtzoKC5ZHMdizJL1xyVbGjVs0easW7vE0qmDZlN7la4uc9psulGwUi2sc25X52ylcamVLrvWrv6BD5g15pAIKhWPmD4fuW0QGPr5DVvCxCARbZkjM2jijU5fv9scSVjHfvBuglYV+MihxHG2csePMXbwkhRIH4bKYP6wNHMbnl3IBShBnSUE02UA7o3YUhHqnURasn/Evvnnv2EvmxtbRQK51+va9GzJV1KOBl1L+j0bRzXrRDOWzr3ILnnDj9iLf+of22U/+T/ZzMvfYwslMXSjaUdXJtYrTdtw6hJ7PJ212kvfbgff/wtmV3+fmH23WVl+ufd9EPgEJ3DJkudz/3sbtwJAIu6qX727g48c2DIjhhzzBAYjCpzPwRwwX/nFcM7IRM+ZRGcYQwLaPTM//sffg7nFwjKrOfmDPcWscd2GZwHA7zrQZ7Jxvd9gYpmyusUFolML7N3jZESZ0Y9e97s2OzphUeuomLprMSdEjFMfh6orTw5+WGindsmr3mbX/PQ/ten3/aLZK3/E7BXvt8qP/ZJd9Xd+2bq7Xm3dmYP2eL9hy7VL7crv/zm7/Mf+odn+N6oarM6agiiUb+hrjH2+4O+1VPRZVX+eAW288ADvKVAYyAxjlXhNGDxiZJwpD1laAcwdmBRdytkfYfIgmMv6r3R0F4G04UPRggH+10j9qdxlpvn8s4rLst2GZwj03AZDhH4EuxP1zWgy8F9sInOpmnSsf+8N1jpxl2/ai8W41UrJBoNBOGxf5nRXXdorNuzgtd9vM698l9mV3yPT+EplK81a2GXW1P3l32uX/o1/ZdGVb7XR7lfYy9/5U7b/B37OTFq7O56xQVS2MRJEV3ZGBdqSac3qLE53GUI3in6eAi3eIgh6F2YMOjUQQCRkRyDe54fEjtmGbR6D94B7vgnBu+hc17t6j1nlIPm5+uAW0x0clVIYSwNL2kexDaQRxtLoz+M+3DrYhMTNfRNA4hK8K9L7YiQbaemYHbnry5YuH/LjlNjwwpQR33OGz9mp1oqaFh+81ubeKaZ8ydvVmZfYsDhliTTrxJdMygmO583mX2NX/fA/srf+3P9szVd9v+JnVWLDCtLqCHvyQ7BDFXjFUIgPh4qWiuxD3Fz55xlsDRO7uQVzTaQkQa0k5Qg9zJ0Yz5fGtdQDKwqLCgsW6b4yaVtduhgpbuwb5VzhdFnP5WcpXXG8qGerSqf44ZnwbpFDy9iCxuF5Y/ldE5lvLETIiW0bnglsHiDcuIOMEMiYybrlIwDqr/Ejt1rn6D02U+jqiXS1unogrRiVa5bEDVtKazbZfbXtfcP7zC59rU3qB2yVjfdkSXe5VlV2HK1RPWC271qzA6+WDS7zeVIR5QSbTk/9kAifRszGSVjFHeqnvyyZfB7DFrYORkYHC/HgVRqyGEY2bHz6kNnK4woPKdxrtny3pPhdZot3W2FRvxfvV9CzpYd1fSAsgl+8R+FOhdsV7jDrKH5VYUVplh6Vnbbgo9Pj4cCShG7dhvMGuCFwhABOCUOTYYaBX7BRWTeYr3BTR/1xxJ64+8tWap0QEyeWDlIrVUu++2gky2htLN+2vM+mrpEJ/Yp3S9vutL4YEH7L10AXRmwB7fhS5US00x7XbJCwe4hdQ0o7GkqAhy0x+UGM1AfWdsuNbamc4UN4HsMW7SdWx6VDn05wuUGJ4JXv3SRLtnDHV+yBr3/G6mO0rzqNEY8J5hAfL2MVEKwvA0n+cCwHl4MCJkX5YNLuaRHBoE6Uj4VMGEYVm2/II1q400q9RRsnsdUrrPhhK5vqsb2f+DsH+iujEl9FqR/CtkdKFDvLgCY3o31E+pTZvZ+y2z/yH2xn70GbjSfWFgpn5xvW7iXWHlVstThv9Steby/5gb8lP/gNQhTfKq46WYClIoNSHFkbKUY00ErKVhJ3w9yxXKrRoGUREcZKsZLXix1SVAFagYn9FwNsqGiZ8T6r8TwEKOuCg3vDImKGpnLm8BuGq9OOpacftcLp+6x0+narnbrFpk5+zWZO3GBzCvPHbrCZ4zdb5dSdFp+618qn7tb9HVY7eas1Tn7Dmidv0fUWm1m+w5rS3tHpuy05Lk2+wpI+mdSDng27LaRVKHcbnhWAiRnMyrWxQ96nybI9dvdXpCFXrCl/tCRvaUo8NBl0rFwcGWeFl6d32BXXvNZs/xXhXblAJQnwKvuLJRyHxaINSnKm8I+luVnswXalBJtcdBSx95ACWUsgjQwwMM24C64U+5MnHblX6v/cLH++wpa1LuJoE13Zpub85FMBCnHBIjFyvdCzpnzg6UnLZsepzUkbz0kDzk1WPMyMlm16vGQz8oNnxgu6X1Fo26zMrTmFanfZmkrDjhc+LM4IKWdPY575gWovNFgf8RciCI79jRCYj396/LSBf2hCAjHhwtgv4/6g1Uf/dWWu3nmJxR0rx+zovRKsMSuoxHhSzo2G2dqa7sXALN6o7jhgpSteIdt5RplghqsMzF+VxfniAOxKAPgkaTVOreZ2M4WpIlSJsRZpa87OqhQG6ncxbvcJs8PftPbDN1pyQq5XuqS0bJBQBbMtlWfNhpwbMuB2M9bWHzlOySMPG0/zLPKwFbBFTCyS8cXputJ+SqWnQCTmsH+6Uuaz/Bw+zo2hNtSjgQL7hTnLn+mlsktrBq2UAstIwc/tVuBES7aeTdKxJX35XxWObBHRqM8nEhQ+6HGxQ04ZhLN+eIQDc+IjliCCaM6D4sgjMcdEHBa0Zx7YGwwrg7cNhslDiOcfX8rvq2/EBEVm5XEjxgqceYZ6dL1nA/qirrckcBdv+qxdEqUSymP/9lFPFu+CFGJlVvf0c23W9rzo1Wa7OFiOUWZO41Bgx5GIA6sJPZsHthj6wGeBAU6pY73BBv8JGsH7VXETMe/K/Wb3fMpWPvVrduhjv2J3fOjfWuuuv1CVxdTpGaVh0FMVSUlPXfUqxJYjgUCcAhd+gilkE20EL37GtONUsYzA+9cU9Vv5pWlqA/l0Of48D/5cYNgSJmZEU3yk7mMljZroDdMfJK8kmX+GRb/pPDwspD19E/ZWkxiDnBAm7wHmfnNE8YdpSc6ebtSbVqtwaIBKooMoBiRf7OANzcDx4n8EPBABDSFuMZfMUPcV803tSC/5hQVOtnCWyDSZYw/xCF7DT59AyIOyDSPRQWO73wv2/UEW1F98/7kvAg55LIuRHrXTD91s1eGS9ZeXrYYK5gR/3GaZRRzzOpnaZ42rXmNW26UspyxlmyIM7L1LmeF0Ug/8zDWd2sT2QgxmFgIVyLe7ZK0Hb7aFr/6ZPfLn/9Ee+Oh/tMNf+ZCNHr/FdgyP2fDYnWYnH9b7ojs/oUPtR+KDH2LhMsqgCAcvMLQnuyMmhwJE6XjNcEstldeIr0nEkVViFE4Al6O65kbDhYK8vAsMoEISHG2q4B9rxvdBjcrEIa4kiVaStuYIWt/8oEdI4DJxbgKF/cZIOTfdFBjICF/uL1tLArbdG1q327MEgk7G/n5TOObTMFvU0AsO0I3jgHtIDeoQkcdISUw7RWR86+MQvgomZpOBJ1MQI4wit1gYvS3IZSmOeyJFZlZlIisdwafrR7G6qKrfYkR5uGEOli2e0tAye1M3s/n8ifqKiaHiqtnpu2zcO2TNcsf1dKR+G3bFCMovtYb1453W2C8z+rJXKf20uklCW+8HUCKlgiagFepDE30pWGnGEjF8uxj7FJRvcxBdjI8/YI9+8Y/tyPW/a93b/8Kml++zgyp7T71gc/XYFo4fssnx46rInOo7Zb1JXUJH7VC+7FOfcKSxiG1SRAiSM9YGejcoDARJsDewFWkvyJEQiSuWRjX57uxbl0Bg5Qr1T9pWGKyq3QN35VA20KreumBAPbcGaIVMjQLzBYD3nIJMaD4vOYrrQkjDhroOhJOBiLLPoviooftp66sTB6U5v/ZjdUaJMGu9eM6v5R275XjtUjeEZZpIPwDa5iMB4P6ihZwDBfwlwK4e4w3THepTTMx02lC32B4u6HQlBeM7uIQwZ1QQg4hoC5wcihmanlDiY7oeEbIU+kcV9HvI+Vds8Vv0jfvRsG2l0ap6qy3Cwa2RDzrpK05uTipTdfWUnbjtq1aXXzwZjG1GFnIykHBAayK3JTzK05fY/pe8URWZlaVUNhZTBRApInSgi4yraR/tpA0EfgPE8UEBoDjsWPfEw1ZvHbZLKx3bHQ/li8uk7bfV721LO0vWW11Qe3AnxJAoYhUTjgzoWzxS29JTKlJpJqeVuXDBIQO9I1boHrOof8riwSmL0mNWADfgZLQsdOtd4d5lpzIeDgdqi3CqAgplaJxOkEBQxdH5oUUXBrZsignU+0KPSB1KlPeOOn60ZMdv+ITd+cU/tSkhtCoiKUmKcWA3wyd8NZ5tDBzwzRBKCQ0ugh1EGNdoilKgY/w1EcFkVLO5irys4WNWTtWhIqQ+uFQal4oX4xSTMzEIkxaUVoKgAYjDbRMfsKHGclgmZTdb+UVpKMtI1o2f+0Q6NuanK+ICMefaCRsvnbCktSzt2RExywOUhmYhDm5NKRZ+Wboa16wwc0BCcsZsZkrmjUJZIRJybTog1ge0HrDHfvtfWrP1gEVrLZuVD3yiHVujOSNGWLSuhHF65Xtt/1//13rtGhsVa04GKFo3mxFEqjk6EE1LO3kOS5TlcnF4O1+IIA5TtYnmPH2bHfmLX7fJQ9fbgUrb2kuiHb3QFXJ6ciGG0pa1F7/ddr3rn1v10tcrIzKV1vXvXOvalxDriIFPyW8eiB6FB+t1Xfgwpx2G78byCFSgLJpCbac8gD3Cw36z2UvMpnaqE5i7ppakpW6qPcinTfQdGqWEyxCeP9uwRUwMTPzjVBO1DjcECVZ0Z6Fj/cfvtmLrmJXHMscgBp8nVs/iJ+W+kjODuo+BBDrbP9shxI14rme8x2FlfFJjsGTpPdfZSflmsqgslRTmEXBxMrHedyYWk2ZMrFyduBn2c3wxiFWUBSJ85UwOZvhUqPHpTVa8LR214fHHbOnkY3Ilj1jaOmWjtoi437JRV2bgCCYeqTgJW4RmFPl+X06ULJRnlP2URfWmfs7qusOqM/usOX+plWDqPWLwx2+105/8z1ZuH7KaNBWCcwntW21YTRp7rThn09/zf7HpH/lHqtg+SytxEMBqXj6DQCuJygO/aWc5hemEw2JF5qt7S9aQRWGdR8y+/ud270c+aJfXe+JNWQfiqWF52royRYYSTMvRLnv13/1fzXa+WLTRtfaRx6y9eNJG0tLgIG2dltZdtjjt6n3hYqC6I9BUAVyWApUUHuNa0wqN3TauztukpvbP7rOpvQettmO/Va+6RlJFPr4sx3Sgt8Swvi7CB8H0fiksULkQsIVMLGaCFtUPXJG+9JtLYM5HKqiTYBbGAhGz+TGhMLEksCL18iYmhnvo3rGeu7Rr6adyZIlesmijL/2ePXDTx61RlOkoH6UqQuaD0xc1EysPP3csiw74y/VVEGrus+pnlfoxrdKXibjyiPXv+JQNFh6xhRNHrbUk81Fapyo81pjHVUVLCEXhnc0owY+TJSSBS2AcOhZHTkZFG6TySeUro+EK0szlmTmrNmo+jztePelf8qgO+zYtxcM3gTuSnimDanLS07mX2mU/9q/Mrn6vrIUp90nLoEdNgL693NAS9Sw9kP1yBCOswhOOnWU0HBvN+vJ3j3zd7v+Df2vNzhPWiIYybftyzWSRqC2MtwxFS9NXyAevzEjJdm11admSPt+yZt/5UHVIrR6pB2WpFCUQ+eDfmH7L2g9AOwjJYaFhvbRgA3wW9Ue1VrO4OWfFHZfZ3le+1aLXvEfShfOupyRXhTloE2JHCzsNPPsQ/RtBdn9hQQTCOdD67xKW6yDzh9ht4jtOOCeYA7xldjH1YPGsJZJsYxbBF+uS1lyVJqorriFCkwbQtaBnfN7DzxbmYG91wvDw3Xby0P1WEjEXU/ltEg6MxGIoJnq/X9lpe9/8A3pH5fABtlCVdTbb+K07twx6Evq32/DYXdIKqy6ds372xOTbr+6x+e/7GZmfyjMD2ukJ/CbP/TuEPA9qkxECf2Firx8JRCSYofzyz3UyJTM8ZXb/X9riTR+1hXs/Y8kJLJ4TNj3q2M44tflYTCyNU0pGVhWRlsUsJTF2rBDJeQ4zCcKfNHRFvnZdeJiKE5sW59V15TtIaf+EDdYOW2/5kATDomtHync5LH7zQTAhiaNlm/uvtsa7P6CKzwgdVffPC+qbgq/KCi4TbAvQtqDFqIPu85FlBi2VL5acr/jDJC72bHToLussHrWpetkGfFheFkS1LG0ol6pWHNlg+bglS4/ZZOWo1TlJU8K9lnasKgUypedx0pUlyCESqQSzelPBNbCw6o4bMkV4Gqu+2DrT8rtno4E1EvnHHQnK7oIdf+JhWz110mYaDZHVLtEltpDqDG0HQrggcGFEw7mAJGXETyYJX47zta4Kdf1hoAFB5VVx81lMyDSE7pl42qRnnKByrYSGdM8JPAOu8XiOZBCBDdVR0u6N4bI1ZWq7JL2oASQxLuA07CEwMDd+9AEYtuEAS0auxeiMdW74iB363H+ztXu/aKXVE9aQXzkrjVvTa4W+BFpPzCq00BeOZIWCTFD2AhekdTkXvMjoGPFKxFlYLoxHYpKkJZO5JcbumHSTNCCzCIlP2fDxPEZ/UVYwIyO1RTH3rt0SzqtHlYd80JGsgVTEP2EzC26ULDEB/U07ZEeoK5WJr9CS5pU11mdQtCr6EPP5gBtzv7K68PMRLLtn6tZbWfQzN+UNS6h03NLjo/VNhWmuohOexTL30brQDBq7INN3hIYXHrsqkiD0qFxZEJRblhqAxIRrFi7xqZZkOFTbQt6V9pLNtB+z0cNfsts/8mvWu/0zasSyjYYy8dUMJZOGZ53E2K/PJkATWwNeb/7A0N5FKhyPw5unAJtSnTyEmDyEZkMSG2kYdABBAYRo9zlIo6dCVCSp6tNWuq4z+0UJaiQaWNIcrRA0JOalroojBuIHKw0kZO+0dW66zk7f9QWrLD1gU4NTTmh4IXx8AwOZQ81T+TaY5xMGDOQXjMXgqfDGh+7Gcjph4IoYqBKXLSpXrYxbJ/RSNJoJcdtQ1Zoi9EoWB/iouALHDdM9MFJJTPrYbV+yhz/8G7b6xQ+ZHfuGEnDU7AlxzDFl2vb+IgvawrXgi6VpkOpFU4nEt0cIJHrn0C22/Jk/sod+9z9Y6/QTlvRW/QCAqupYkQUGNVC+y33QhXxT+33ZgCL9o/TSIrh4AyEm0QOsgUIkM1iMykCakCPGK1pPkgnTmnngskyIsri3JHOAtnaVb11GYpwMrdGTpl950B7+8p9Y77bPyS/uivYGqkc2ziBccQVg5meDobfInKbSwiwU4CFrhP7ldxsX/qjBQjJsyjA+0+fqQ0lBIQFGFQHmK7noVxCJT8qzgnxezKzBY1+3lWMP+mi2S1xA6S5Gc5q6EHg/N3FDjGqnNufPOQcFrZY8eLM99KU/sdGR22znaME1bypG7I0wBEsWVeSCVOo2EvP6fKlQmsikTNUgdzsFXNgqyhc6wGlrwNoltVeaFveZ4QeQnwykotOqGLUiPFMXkauYAhOagxkQLDDxtJLF0qD91qItHn7QTt7xVRs+cKvNpDL7d8+rQGUYlSVLxA2A3oEJvdDRwD9RynSQnbnb7M7r7fjnP2SHvvJRW5EZXR0qvn1azztWVt1Ybst7vEpDaBPby2EgbiYKY2ldDhLA902Uf6kS+eAnjM3rtJ8ZkrA9vaj4suInVpEUKMq1GMnMoMoj4TIRMoZqLxtyyhIe2JCrC6cs6bZtfs9es6kZ5SYEYFY/BeRMfb5AfS88OEboVJCW6xLYw1kkTxACYtEj+RPEp/QFEc6wAcJ7eSA+BPKAunzZgkKev4BHFzHQPm+LuyZ52MAB3peb0YuH7OQ9N1h66kGbj7rWEGFW4AYRX0UmYaVW84/NLXYHdrIztDNSl8tRzRYVVqRqW/Up60/N26C503qVHdYuzNjKuGGj2l7x6i7rqnuGosVEoasqTKStyqWKmF1MJmGHUV8QIcMcPjimyiHs6BW5oVYfLNnOyaLtnixICd9jD13/Ybv3P/+ynfncH9n4oRtkph+Xmb4mZmmr+2Vmw7gTmc2PftlOfPq/2O2/+8t2+yd+y/qP32J7Cgu2J1q16mBB7WcGQoIcgSRZxnptyoacHHeS9GhgVvENFToSSl2ZcUlcU7umbG1SsuURoWyr45pvlezajPWLwkW8w1Yn09YqTNtQAp8PAKJLGCHv6U+fa8pJJSUXWIzEH2iOrXP4Tjv51Y/p4SkV3F/XurkGhnkJz1Qbb4kmpopoy6AxN0JgMrgrNIZ/zm1uOuqWN6EA/YApIYQCdhE62ONDHJKI4M8ZUZGvNn70a9Y6co/VJJ05+RJAIl+smhh88XawSfgFjhipDsv8iiIcSxZseNf1dvSb11mzd8x21UYyI2UiKgPmPBmTGI2H0kDSsbUpi6Z32KA6Y2vFuqVTu23Q2K3rPhs299pQTNur7LZ2eYd14znrsJdXmrbPfG29IkYuWUvm44Q18IWe9Iz8Q2kiug48Y0rTI0VpcerfpxIi/JIYgM0Og25P2oxTTBlMS+30kYfstLRq/+j9NjteMQOFsiLsts/bwx/7TTt185/Z8NBXrdo5Jr++Y1NisWjYUrnS0ggpFcxCIkbXUwk6x5cIgg+HgwBfRiBGq9RiK9UaPnrNENVAfd+aVOVvT9lAbU3re2w8td9s5qBNpi9VPS61MfezB20pO0Z3VBCzytQvlcuBCdO+BOXIBwXpHjVN5ZSsNxzZymrL9h18kayNF6s+DWdY/OKcgYGcoc8XtmSKiQIgvc0FBVOakP+jMgrhcQCW+fibaG/MGQHznmhmmUIYLoF1Q95uWDJ/JT9r8JlftaM3/6nNiLDLkoL4zj6FcRFOMVEXMEEO7KUN5rR+iZjQfU7DDPC0HrOFT/5nO3nrp2xP3LKayHQowoU+mO5l5XrX6taxpo2b+2zusqtt98tfZ3bFi2Xv8nlP4ZLErr4IunfnVuW1pBUXj1r70duss3LClpZO2qC1ZDNlMc3SEdthPf8eEgzMK33lw+RVCYIVCobCAWY4n473BkVVVR/BgDZjw0qse/me8rTH5aaV6vNWrVQlO9s2WTtlU5z2IkGV+riHqsqGDslWF9yKSoRfrAKQjp0Xpqhos+7kUM/JaV1Z7UqzVmxclVCKmlaev8R2XvZSq83tserlwkFZprwY3KrMkMgXdwGgTFAMbgGpF4ayEI4+bCt33GRnHr9XgmTJGkX5vcmKlC2foRGqZBBNcM4r87Yqs2X65e+xfX/r36kTLvE6ncvEqQQtx/aeL2zdPHFeyjpjBiTTDWjZnBnzdFn7BOxZhSD8EFS9yqQ/TEwcZ2e5IRnogpTOxCet/1kx8U05E/ecuC52JuZtNF7ID5EVdhA5Y7Ac8PAtdvjP/r1Njt9pOyuJ9Th4vdZ0RkEBLrUGFk0dtJe9URbIm94nLaN6YjXgFFdqYgIxgurrDk9OuN4fWacwOsg8PZYNUz0tmYlnHrTHr//vVjpxm02la2I0ejeyQZEvOqjcCV9lkGktcz1Wp5bTrjMf9R5Lc6aKG0m7M3zl0/wwpJixJxGU+ui4no37NqW6gMJOqar2yH+VRcYXu+rUVe9KQbrwYMCO1Wk+SKbq+7y5BEZnLPEXT9nlV7/eGq97u9mOq8wa8ld9E4Y4j0lrNkbgPNNnBMc8DaK2olmIiJqCFz5kfvohW/nmx+2Jr3/cdsjkL/YGNjOtrJS0NyxYtTYtATK2Y9Gl9sp/9WEbi+bcLxfAyE91fz5w/m+eF0AUkGOGlAxJoCYPgJtjuvI0VDEMYPnvdWYI2jv/BXhOPFeAqfgek+NdgS65mOHs+tOoMKDlbUczs7Bj4bC1zxy1MiuZRITMw5elWdi40Bbv1XZdYZe/8UfM3vxTZvOv0Iu71RVTerBHLsa09YpN6xVkqMoP7kdz8hd32KgkE1NCrhXJ9I522TiWqVkS81fFBDuVx6WvsmJVacR0WEvjiRhB/mVRWhWex80YSaMl8qUG4jI/uFCSryhTNNKVOVmmGpviDd9IIfKoSDPV0pY1xqs2LdthtjQ2vlaKv4nvjfD0IbPI16v5iZkTSYBxVJEZXxUzi71l+uOzFkQDmL0TmSJDMXNS2ykGltbd8TIx8ZUqUL5+Yafch13WK83I52+q/VOyHOT/4hPbnITADpXCWoRZ+cdz1hZOhvUr1PY32eybftSuev17LK1M+UqxjhQ1JE7vDNqrcuV6HmxtydI+KjqjbO+zjMIRnrpuDt8JwAMXHKiUT/lhokF21B2N6dpXzXU1qd+0TTG4TzTVbQT9wNWA7TGkSR/MPb3r7ykRWQn6IlQ0NKZ2T/kXXLJKrygqUPvFCaAhD+GvGqMLd96BaEe+pD9YtiSV1SF/bQ2mnZLWWlm2hqyGisy19qhk1Tf/pPw9MV9lv6VsyGepFRsYlFlVQb+8V/BVw8RVVqLwyq++ik5Avw/lCvHdJZnya2JG9ZgYciAKFv+oXgPRqXqs1JR2nbFCWYxRrFlLjLCm312ZtT1lPBrLx1S+bWXVVr5dvcuMMeTAlBWMDfOySYhdQbEkU40FGupXtke2xiXrxFVbLTSdQUf1XbY0kGkuoZT4mgPZAYO2NScdq4/atnhcFktJgmvMfJmei1YQKtBW5qhBYcZS6bJoiBw4AtA1NHn5X+GBSqPB91xjzZe9ReXOSxAKvyUJJhErZ3/VRX4D9gtIgCwcOWRlJqxZt803qOi4jIkTlUO+TxW+HSCrCw7rlfLSQIFuIszgWJ0oJMKMbsLIrOCWJALXoqR17ZuBp9MVLJBQv3lM/o4Yf4fpkLGQk0gb9X2k8vkDamBAjEO4g+J1J7PPHzGNghUiKegf+ZT/iA85zVQHh8yV56VtZMoyD4tGwAZWFr79ULcB28Gs5h6ihpjpMX6DawYp/aXuquiyZf32irIS9SoB861xJSyeSMuztud177S9P/yzduDVb7V4Zq+Ypux9xWo6Fvtg6rPOmsUUKRJAtFEql6SpVYLiEM6MAFOmov08iUG/a2udro0kiKYPXGNXvOYddvA9f832v/b75DLskvleFl1I44sGStLslfHAV2QNOqxko57KyFdU0RBlnt0RwEFQKgSeqM3ECWg/aTD9cWcskXSZukQuvjQ2tIws03NXRP46I9GMjKsRDI/zECIHi+QvoJ4ARWTFfEcQ3t4CoNoMbHjFqWkhfEOWwRbfaE3r0SgswqfxIEGBpGNMKF3d6MBsRMrLseIMhZFyYDQSKKCyOeWh0LdqWd6y+qgkyVjNph6fF+BcShA+QA7AAAxmpKyTVP5iUQxcRiBKE3IWNIwai4gb/gV94ZjlihluB74iyjvGI3KCcHOVvhGG2UQRj1aspFCV1mY+2tORwfKyDbrSdJXIpqqx1TjRUtFDadqVUdlWpCHtFW81e92PWOH7f9ouufaNQfmvtqwu57GhqqOc0FrKQhRBPTh7RLQhP3ooTu5LBa+lkbS1hALzuNJoUVV+ca1u9fkDNnPwVcpbLsK132+270o73etZZyBzvDK2WfHZlOoZKU/GJ3prC2o0WzCx7aAXN/jdJ8+DXlHTxXC5wuCnfGqAv6pmFq33URBR3UrCP2vLGRfntCFcbIROpL4pqs8cnxA0byKddGWlGJDxsAP5ZkVmV9KEdE8Hm16/cEBlKMgLgzvdWGOpoJ7lNQgLaRWGUiqpr7yB6WFwGsmZlwxkOOKI14uYORw8jxLy7XaJDDF2u0gjRJJ67MiREP420PDcBvCXh/U7NSj8BkRWMg2HhZpkIzpTMTJrpejcBIURKzJ3e8unpDmkiZK2azNImE+KuhDwX6GPyBc97ISHpvZlTgpO+LAoQ1e6qozu8hkbYx7qeb/H9r2RDUWsLLksVatWYynTtBj5xBFbufmr9ug3bhHTd2ye5fEqiH3OyHBOFGIQ3NuFoJcGHSccK0SE+rlSc83eT/D1xSqio4kE/prKP/boAza5+S/NTh1VoZEd2LtH7kNk/U4/jEkByjJWQWlfbkdbjOzbN5W3D5JFLpg4JAp3wtsI8mi+/wZAmH6JrsAW3OsfEpLFYUtLlvQG0kMjtzaZXoOJySwuyiqSSm40ZMI7ZhXc1FTYzL2CLNYhXCl9c3hqODuXCwReOXUM5pk3QL4D/QUTUzWvMGcnjeT4s3B/vCYm7PsIZL5WrkBvYBdjd/m0R6Q8wZbuWSKo/GOQgg0j5q1JHJYnFeG8IkbGbLq4wXEErEs94SHvV9fEMpPll5XqM07gPggkVERS1+CdTQm9ZfmDpx5TWuZn/Qg8vSrx6H4OmRGzqSynYvqMZ8KhhIRvMnGyUV9IQ/dWTlk06llZklR0rO6AcsviwYHVotTKfTHMHZ+zY3/0/7FTN33Y0tXjxoKftl5fkVHF0Ei9Gfkmf/aOR6WaVeVvN5V/U0zakBCpFVhF37Wi8sPhTgespIqtrrbF3WPWP/51u++Lv2erH/11s7tusN1SAtNxxYWC3GNrqfq0DNVRxvNdOeF1DzhUAjFxYFCVw3w7MwAwsdq94bmAA1kICaeOKD4XbFI6y4cflpm+ouSMw4QvUqimepcSVbYq0tyxU2hTWfRfZk0VYXC/C3D2NZTnguavAHpjS8CHBLw+FBlG46gshkVv6YjMsicUOByeg+LvkXTLg34TFu5W0O+F+xQ4QP5BBQ6UV+D+dBZ/WvenHpW0XbSaJG+J+T5JcEj5YgZq7y1YpyrII2sVE6XSxNX5/Vaf2xtGZRUNbkkDHWB6xzKvuw/eKqpaFcGxQCMQGxouaAe9SFpec8jLyoREsanieUu/yRTtu7qofFK5L3yeVI/ikpUqYnQJ4Egaf7xy2Jb+8mNWXX3ELim1bL6cSBu2lVdsu/ZPW32qYMePj6xeYcllUVp2Yi3x12qC+awgtcbocyLVHrsPzbJIMbGKapQjm68XbVdtbAenxrZy6AE7cftXbPXowzZRGbHMkEIl9t2pAIqgXhpb/7TojVM3NpO/D5RClTCvsALC9DhgGdBf4YiNOeAlrFpQxdIlWztxv3TQsuqm/hCTIph4J1HBA1kS5XrDbG6H48Yz5SH4Jr+Q+Tqmw5VIBX+YX58etnQ/McBJjJGcVQYxMKeiSdvO3PZFa933RZtNz1iVpYOqOD4Vi/NpFYfFl0ZhmxifKU1EdF32o4JKVR+R4Ga1qCiVCcZ2ubUn7rAhJ1ewbFO+dsWlucqX1L3Y5onpIDQJbzMG5flhpShPFjgQVUSzrD5sJz/xq9a+6xO2N13w6RoZIv4NJNG7tZgr3f1au/wn/onZVe+0tLTPR2SpWQ0yYOAF4lKeaBPK4/vOpEgkKKgDgHBgnbL1HrPHfutfWHzsFmsOVn1YY1CtyKSv+IYHcB4rS3Wdm5kQN3TMlyCGY2nuHt8Rls9ak1cqVdzT+xy7VJy5xEoz+1xgcLROsnzMZgvLvlPKl1SiAMF7hloGjrFqiefrpj6Qqecsuqio/bEKxRJkRDmtTlt0+ffYvg/8v8RYr3YacrwqH77sKMmjm9BS1iDgLYfn0tCiL9bsUyYbLCyRZXPPdfbIp3/b4pX7ZDXIrVCLKJ8TXAcstFHlGi95h83//P+phl+qnMiNS6AHdn0V8ScycGVHcLYkZOAuz0a6zUBOWweqcC4zHDEQ4rBl7RMP2Ym7b7DTd33JFu76vC3f9RlbvvPTtqKwfOdnbElhQXFnCHd/WvfX2eJdn7Kluz+ptJ9Qmo/b0h0fszO3f1yS+JN2+v6vWP/MwyK0NZl58t9EdRtm0cUJVP/sJoBHKC/8HbHPemq3lUX8fL0KLwNvg2cEiJ8ljwMxRPKItPGkZYWBTEDeVWBziTMwqRGWuvPyXJAGszAnKe9CbNU0lYZkh87EOMudk3sYJOJ4XK5Ym9AnM33MoTIYjNU6HODrSqv6yGNFwqVmi6Oy9Rv7bOqqN9r+t/+U7f6J/8n2/Ng/sh3f8zNmV77dVsoHbHnMGmcJE2nXUkOCoirBLebFCpD17sw80LUjP7taL1tjSrWQ9EhkmrAAhDLZgdRd4xxqOF3NUH2cZb2xaEqEIu1FfHukt3siBmYdGCzew+LGvRuuWPeBr1mp/YQ1Cj0XsKwOKwpf5VJd6WXSV+ds9sBVyh/Rp/wczwG7nm/GD0Ao7VzYeP50sEVMLOZN1eiCTCJUgiQ+A1eiAjjZorRn06WR/JihzUR9my4ObTYe2Ix+T0syNiXOWRBQU58zsjklFTMT920uatuuaNn2EIpLui7YnnjVKv3jNldJ5EuN/KiVMV+C8HpcvHBW/X3UdIOt+OuEOCzY/ItfbdH0PuuMREBCdVcEF2d7YZnKK49advTem8yO3Sei73tWgJO0awTlC4Eyv6lfDGFhtEdSo+yGYvTW1wiXpJVOnpRVVfGPpJGW45zZJ8Ugmkw831fcUsU6kqJrhSnrxAryqfvuhwbrqW9VOzGatfHL3me73vtPbPbH/6XZm37KbO+rzA683qbe9nfsxT/9b2zve/6hTV78bjtTucJOjaZthUP2VBpnlQ9Ued+RJf8+KUlTShsvtpm9wLRH005EA6nNTemBXAoGw3wmBFYVB4A7hByCHs3MVxXzdoMeBA95dZQGPDXkWfj4zSO3WfeJ26zcOW1FWRJsNHGji3wkOJJJydrFGSu++i2KFOYy5iVkaFcf/FUsGNJ/K9giJlY1qCzS21sJUzNgBfbVFQy+CKkeIB4wBePpWYEFA6NUNIXpIekI7Sob5j1jMX9JxCU3y0pKVtO7U5EYXvn5FyDU9pozv3yjHGsXO3h/Zo3RPXd5sIpU4fxB23PVtSKeaRF0w0r1qg1FUCMRe1kMV5CfOmkdt8VvfkEcfko6W/1At+j1YYLdC3LFtFC3Ill7zbMY32eiPknkWrCwRC5GSSYmfVeKI5nGmK3SgEL6SJo2kdQos72vJqYdcdbVxJcj8kXEQnXGloZlO9Krypt5o73qx/+xXf5j/8Qqb/qAmPf1aofckeIeZbg7rLDac7VNvf2n7cD3/0078OafsuoVb7aWXIHFofIW0xWrfMNJjOpajRmLsoJMaEcQM7VjN/V7kmgjWQ5zDZkFuB9Jy3dWoSOpO+Z+R7ZwOLw3TBfReGQbZFcWDjDZS9Bw64gt3nq9JQuP2bxoDCWD5UEVWAfeU8J+oWp7Xvoms9kr1FeIPzqP8GR4+lgFt5CeHraMiR3YBwZWhAQ+u+G/VUEIhjWvfLsWachg4UTSe8xv+b98X3hUaMpEnFZnNZSGCaeqXg3+CgECIYyYKxUymbpgeS8yYMhKgecTuCbO7gXefprIANXsfpt7yRtsUNtnq+OGKAqzjrl4maESopWSSLq7YEfv+ZrZQ1/Xi4vWLA5c//jZ1ZArREMREKTidPFCJv5dI0JbjvYpax293zoLx9zfZixrKPz3xbyYtezpTQcjmbnStbK2qmJ6rCoOqlvppDbZ9xq78of+oe37UWnea8W8fPG/eYWl8Q7rSwB1FfA/wxgAnDNn9pK32u4f/vv2kvf+gu18xQ/baO4l1irUrS2GqXK4OOMtfVlyqkBdpD1o9UUHQ6vVaD9tUV6yn9Pumtnj96upK2L2thSBMKQAI1eUKAydFVS6PFxlC1ZgTjVLDKu6JEdtLJftzCPfsGK3E5aLqoA2PrjkQ2fYtbGccY5W3sWZW7EEkjPxBpDn5rABWYyb3Vn4K2CLmJjKMC+s4rxiRGVYEdHgq/jnR2S3+AeoRUd+vK1uGFEsSmOHwHE80ga6RwhMJAxEN+7/lRp6T4hLpX1GpaqNRc+yriwGw88rgFuFuxyPAi6OSv5G0saXvMymL3u1rdmU9UbyG+U4Mug36LWtIdOkNJH/Ji386M2fNjtypzMyPnIRE4gBBNapZrzs+eI/Ss0UMG84kXTlkI3v+IKduf9GS1aOGfuI2VSPyY5pWxA3sGuKPNCAHGcTRSVb6418C+jB17/Xrnr/L1jjHT9rdtkbTJW1ofxijsRxIzdvkK7+oQH1c4pvwJlqkZj5RW+wPT/wN+zlP/r3bMcr320r0sonuypQHFSpVmwos2AkZp6tF/zAvmE3CJaYJZEIl/aKHf7Gl83uucGs/YjyP6lCl0RTTL0Fpsj0uAcUL8KkOGiLBk+ZHbrRHv3Gp62Wrsgfl+BCUSRierSxXtBPCaGaXfqK7zHbd41+TSsjEPLtQl7yueGpYUuYGLKjc2CuDQc/eyJmHCUD9484ScIHQhQq8rsqIo66WL8h5DYmK9acLOsqySrWZb6Pc5vQ2kNluaq3T8kvOa0+X5XmZg0u8ex3dRfs6XFw0UBogqgp6EYBMXhuMvXoSRDNssq5y+zy173b98QyXcN8JIOIDNn4jiGZvNORfMNDd9jaNz8jpnxYyFrQyz0faBmzJFb5jTm9Qn0QJVIxrPQymdLH7rHFz/+RPXD9H1nh5N22M+5ZeTKwDhyofCOZtmy6xzKoVMPmg3Z/4oNXMy96o13+Q79gNWlge+k7ZXvvU57qHHE6x93UVaYoxP1uKTQ/uC80mlXSusEdww2TVWFzB8xe/V7b9a6/by/+wX9qpSvfayvlS+10T4JdNFEXGkpqS6z2i5ddk3b1jAUfO2plW33kdrvvuv9mg6/8odnpbyhPDo5fFge2LGKtAUGO8liaG8ZnAVJUkAA7c5ed+uYnrHfkLtW154OHkhF+fE9zdt6k/G1UnhL97bS9b/9xNWJeEoDzuREP3z4Ef3wjfCvYskMBGOTALYZR3Rd2TSJEiUg6Rx+3U088LA08kjRnG1rFT1HwHSWTivXkW/QKDfkYDGZMfN1vS4hp63mnULO2TO1eZZetTMTy1R0W16ekPAbqc1KLKNEGFOd1ufgOBcgh5CCcBW71Mrli/DGt6WYJBI4/O9Ow8ekj1j35sFVSmYzjoVUrRVsTxTFajO/BgpDOyopv84uuepHwgHiU+S2tQc5jEXFRzO4m9KhlyV1ftoWb/sKWH/yaxWtHrDlatSpjGqJPakTxvEsdsKR6cm16wsVw6oDtf8MPW/PNP2EmzWmNg0KJCJu5Z9JTd1rHf92zcIf+Yy2260MJoeBQ68pwdLFiiUytiPen9li0/0qb27XPcbDWWRP/DWXRJTaQaYBVV5GpzXZMBEtZVkGVhSD9nqWdBUtbx21w+glrTKk+U3Oy3mbUpyqjL4El67FIea5sJMjGZ6z9pd+35bu/ZPNSLCPWjavQuBqregW1HdoyW07rdvDaH7XmtT+kwner3kJ4IIRvCxwdm66h358etuxQAGdi1SSCo/CH6ZBEYisa2dpDt4k57vbtZyzfYwshH5zmGuZpVVERRKz32J86EfP32XaG9kZaC5inHciEatYr1hBxtR+6wdpH75E07yqNNDb9oHQX6zwxIXSm2zT6Tc1gXxEaT3xoValAsg8gnjF74At26jO/Lo15p3Db951Ap8SPTPfEUiEFBOBAzLDvajv4Iz9v9rJ3WFK+Qt5x2Xc1lei0orTT6qM2vPerdlQm5OTo7TZfbMvPlYk7GHoXovVQqGvi90SEH1WbznP9eNqaV77Opq95h9W/9wPShtMBAzKtHbMSEn5cMdKdIWAkovcn+NLFCZ9VAGIQPdZ/7xdP5k9ULAJ2oDoW1UcDuQX332IPffVT6vt7bXcVkdSXoFqwGvJCL5WlJHgFFwNcDYTPo/2ClWUZ7H/TT1jzVT+ihu/APlYiMR+LhRjJHhy15J5P27HP/CerLx+yKQm8ta4EW1M0Kj8aWdfry62YnbPhzIvtig9IN86/UgJrh+hYQtEbDlDzp4KQIH96bipHR7h9EmwZE0v3OtKZaoolDZmXHMruqjAC0lcnRDCKKMw7UQzO8j5Mb37yptvEogwWgzDRju8GY+TVZ1sJH12CqzrHzCQxT9z6WYt7Z6xaTCSFpZOFhfNjYjTRmp34zO9Y5+b/ZlO9x9X/xMvX4gXdQmgrsy+3K//1X9ikcpW/S9WcifUUhgPO7gzsBNf163HhGt7hV/4cCO+KuJQb+cHIaKrAxErFigoSwcxyMGx00tY+8Ru2du/11liT7yfCTFniqM6YKtesv9axioRhJ56x3t5r7EX/g8zcK9+hSu8MHcanQOUzrt7w53bo65+1Wuuw7S4sSbMP3dpEKKDp1BvuDxelkll22RbNj0sN2/GSN9nM239GPuzbZD1daqkoGVNZPSfBGtrH/74qVGXUibp7H9O/6k/RiFtOGYPzBkAyAgBW1SK9A+1gy4qOHr3dlm7+mJ245y/FXKdt55TyGvct7XGQgMpXnWvy4Xus/lBET8x6ysR8sy+x/a9+nyw0MXJdOODDBNjLVSHjyNfs9j/8d7Zj8U7bXexbe21s5amq9eUDtOSDT1WmrJeWbLU4Za96/y+avfbnVNA+1/7gZaPOeSvOhbOfnptqc5vPhUBZFxioEOQKXYwlARN1DvdRmT0rIEmSD+lX3aUg5FXlR7DXVcRlMcvVFF/Jnsts9nuZPf7BW8wVQkn3DV1jvdvYK3+4IXNOJC6iYhH90yHg2wKEiXzNhI3vnpFzLQ90x24stOHESsxXSMwzR+pmIUmUBp6ivc4XRPmfgBMYgMBSSadrD/qh0lify8Z+fmWvCNBizH1y0klg4gDSVviLAMuPWIVf2mPT7/gF67/oB205nrNCTeZ0R88i+WyjiupTloBLrd4+ZdNHb7WVT/22iPVWcdVRvX/KTD7viQ/9H3bmhg9bo3XCGmpbHBDg8hNLqSChyXnUnCDph+KIu9E6pUrFCo05syuuVXmzKqfgfm7QwWSgRFnVq0ywEslvMkZTZ5YLUchlchcrugDADXBLQQG8S5TqRqq2yK4K0cAl19gUpvFoYNM11Snt2aCLwhDz1kuy4LAYxjbUa0lZbpo06OWlts0f+5q1vvzr1vrUB82O36GCJMTKCsdutUc//EHbsXyf1SUkEKElFZeM+hYP+9ZQ25lnXhFOL32DBMCr5aaV5o2vJRbEwBt9B3gjnyIEeKoneXg6cHxeaIDUGZumI9b7iqDW0UDoYiImmbBtTX6ufwWCTmGQhmU+8vFShCnU4Z0lcnBNTRBj6ffQh8B4Ft5NxLycKOErkb4lCr4NcC0HqeBHsvxTZrRqzpJPjjUlf5QFnw+hgSwsgPNw/WFACBIGdmbMuZYFFWJSRBvxuLFey0S/eyKcpKvXJBhEeJuJgHtE0uZ/vMlIvSOUzHX186bA5c6X2pVv+TGb7LjSVsZVq4ixODQvHcpHFoGx82huqmCNdM26h2614x/7L7K5v6HwTXvk479hrUdvtMbwhM3GHf/qQyQ1hlHUV1GdoRhBqpgPunOsT6hZuPosA9MD1EH9gkWTM/C37A1n7tCmPCV5QkNgkRgn2lCM/w6uRaz+rqrdKi9uKgtcLeEiG91uNMrOaB1JRd8/Iz8bbyGR9dKoiZEXO3b51MT2TU7Z0Vs+ak9c/wcSaLeYPfIle+wTv2nVpYdteszhB+pn5UOfMSXFqHWaFu1Mr2j7X/U2m33lOxUpRRSJNkWzVDO04jsD3tkcvhU4Pi400Ak+OuoMwFUIEBaQrHkFQAqrYhLjfH4/o98GethXIoIbkd4i3kAeowFZsRPepYsRFSHXzU1HUoPKZwL0GidDrFltLH9Q2XHyA5rAj4uhJiJkn6sV4CN58aoKWjhRGgiY8SQ3v33bJf4g8ehD1VzpnA90U+T0c5+zJe+zW/OtIMIE3QwIE0HxwJV21Zt/2Eazl4mxYt8EECctH19gteaaKpmo/s3poi099pd2/E//Nzv64V+21Yc/b3NNafdYpmq0qpqK0SV4+rRB8hLV6vsG9A/sF3ydta7qI/oiitG9Lu50/XZa8MwAz9D5XxKRI2/WT5NU2bhRsiNsKOE/qSD45Yvr8XjQkzwdWqkR23JvIhM7tWmTEH30S7b4p/+rrXzig1Y9epNNeku+UYR1+7gOdDEDeolw1xlVZTm/ynZy9NGVr1P5UiQSHPR3duDJBW092L3wAHE6t+kGJ8rVUYh3nGeB+7yx/sqmcDaEt0iThxCjv5nWhIxYv6vuW8/z/IEaYEVQ7yASCB4rbc9Hzrvj2NawK0XAw4E0sgrNlQoGhOS3XlLwJY26MlgihsD85oADkrDSiXJCzjK1BwMfIMrL+1bgp0MQaD+/ObVDMPHdAuLU17/Xrnjj+2x13LTeKJJmkqWivFEYfK5kLIpsdRZsrtSy9ORtNjrxddsTL9igfULWQGopg1AiWubfExEwR9YOMSNVnLuslKkrAs31pjRcidMj/Uneu1sEm5g4DPmwYoy+4SuPEpmiwWSYWEkSlS0OLLJkIQxYr0qAztQiq3aO2+DI7ZYev9uqwwVfc81Rv2huRpv57Et3WLDOpG6FuSvsZW/7SbNLYWC5EHLlHETnY98tdWEB7G4BUIx6niMP/B7EglQIFnOHxRsyt9HSrpkYgCAwHxy0GDomVBZUByKHLCAcJB3PfZm+8oAx+Npd0Pxhp8wzIyGVLL+YnVV9me6ynML3b9WZvaip+6YN5afH06zMEfFicwHUTX/CcnoJFq8s2ak2jCJzFaEFJoc2sDDAjYD4StU1Hfo0i31aYLFMDmxCdxChQWwiTd3vt+KbftJ2XP1OW5pwPE/DT5bENKxIqw5l+7c7E2uUEzHyyHZJW+8sj/yzR/7VB+XCjqCi/Ne+tFFLpvmquJmdR4wx0iy3JlRTmAcmjmHizN3YUnDJmfWBg+qvOD/gPuE7UgMJSNbvy10Rk09xCozSgKkRDD4SHapN9ZqYtVyR25DKupLlh0Agb/ns7WHRTvdFrTNX2r5Xv8fia+UHVy6ROT8tjY0AVTrhNHZaCPR6oWBzSy8g0InCCvNvPkikYinZRTchayRIghhdW7O+y41qXdkpk6HB0/vNOlr4mQePzLSRG9KKzNM9I1CdGVpJRcDh6BV8MNgzeGwra2tWwQSWyV2YLIvzlqzQO2lR77AEyRkR0KLaxcfDFMZ6PloJYZIFpWcZoK+I6rNAn3z4Mv/QF138VR2FdnEMiHhDezOMgOuIMQQGAy+zS37o79nuV77XDq3IHy7URY/SQxgFYsb5OXmdkhjtlgSUAgu49kixIGur6jamThdWx/KHZ60ye7mVpvb7slinbaWhGxlsQ+Mx6MXmiNAXz0oPfGcAs2WAheb4U+P4kEBNwjJuzlhxdr/vilro4tdLSAsP7GdmbpiNCf3e0NJh35qNmjQ1x0bpfWkMLI/WSHibOmhzL32rTWFGl3eLFpqoJm+tH9YP/hHWzsQXDv4q2nj2QG3xKR6VmKqD0Y+cCRyGuoIe9eALp4nLqxaIADQ4KugcZx4M5hBHCGSykU8wcxkJF9PplWxQ9RkA7IqpGACpXpKWr4x7vgd6JkpsT1m+46GbzY5/3ez0N82WbxfV63pGv4/fYnZC9x5uVbhtU9DvI3pv8W6zk7o/c5feu1fxd1i0+IA1orasDcjj6cE/aO0ggpWZ60fF5NqZkShG1pMZs9lX2iXv+Hmbedk7LantV2ppGFVbykgavGjtgSyJmaaVp2Jri2nxANiXHMnvS/oNmcgH7bIXvcUuf8W7bGbHS6S1GiqHfd3qMRUXhtrUN/pd4FQ7x1n4t6WwiYndMkjDJ1fZFOMm8e6XWuON77fyS95pi5UDtjiIrCy/uNZs2DBJrQtji5SaDHwM+Sian2AtITBwvMYzl9jBa99t82/4UeV1jQqRCY3gUnlQLrurxq6Rczq+cLBl88SuZGEm3efSCmAAniV1mGIhoUer7bqRaMdTwatl9BEElTJiDlqQBoQArnjuux9GJ63z2f9gh2/5c2smy1YdbXza9LwXe6Qrdvozv22r3/g9m+oecdPLp6ul+TCzJqpvl9HRmRfJN5akV4pImnmYrskkLvgB5ozPRvJHKWMiNTdSxfnyP8ZqkeNkYzkPgzVfdDWuVu1US2btFW+wa3/875rNXakyGE3agHPlEn6dW+hnmZKKR7uIwKDrRH57KZa2P36DnfrIr1r6yF/aLmXL0sE0rthAZfBVxOqobzXhP5LmYpR9NJY2b+y22Ze+3ux7vl9avWlnPv9JO3H7Z+3KObFtT3kqj6QUW6s4ZWvC6TXv/wX54j8tf/sSZ+wwkv6dAyI8O0xIIXbS2EwnuWilH2LRhR+k//lfs0ev/z2rFletFo0s6SU2U69aYdC3Y7Iymq/9Qdv9c79odvgJW7j5eus/eqPFvUXhOJIJrKDywu66sX+WhQkRSuHcgH6xavUr32yz7/75MK9eYBqUjTlKQCKhH/rxWrn25gF9cn7t/6vg7N6+kKD6M7meN44r645gUIZzHAE56J4pikTEPRDhM6oYmEodKYnowTtVDdADOtUbQjwUp/cL8sdaA5l+YqyBAqu7zh9CjTkaZsRyRdEJJzMyVlVWJ/tZT6pOXYRfWn7EZjuHbLr9qDVWHrS57uP6/ZjNtBSvMKP46ZZC+zFPM9NWnH7vSY5afek+m157yH83Vx+xXXz28+Q9KqyvKqiwc8CJZBMwOs1usEAsGyEqZUNyQkGJkW+kz3TD9lx+wBr12McZsfomsqlHCeuFYVrpnREDQ5iWVV/h5F8p2LvXbNcuNbYubdV1LReCsqW4c+EpI7cWYG7mrQfybdmoUa5FttJqq27CxWVX2M7LrtRtWbjhexJFS9THfA0jUd/yuWd8ftyMel3WjOiN9s5ecYV8jT3KXe0D5+BPIafvHHyw9QLDljAxzSDEEX4uhlUwpJk7LokTKtaXxBOhYtf56qi+mHNoJWkB3wAhVq7bmrQwPmMIkfzKkvxHjqXh3UKyoPfkV7JNjukgSd8GX6mTb/NsmXKYiJznzAJ/TpCAmRmLwlekBIQJGqwpf7Y+5iPcbZna0mijgTVHLZtKlxVWdK+g69RoNbsuW3H1qM1OVm13qWczaitparIiykP5z0OOWIUNnwzfTstIw1BEvy8cM30CHu+4wR7+5g22uoatLCIV9Y3l95VlIUzJCmyUZRqKOliEMlTDx4pfXT1pa/fILfjml82OPSw5ULDp6bL1By0n4BAojVECXaH49d6/8PD0RqVqI4Zt9VLfSVWRlbOT0yWOP2J28xfs/q9eb8Nex99nzzXfJvbTNGFBJWPps/vBrZ7jMZXFc/JuuUF3f0OEwCkhWGqyWCheOOPii874KS3MLr0LCVvCxGqS0ChmFRPHeMOMGltPjMlhbS0rLB0Kh93x7dnT8iNPym88KQRxPSVknb5D1zsVuBKUhvhT8h9PkUZhQfHLHKQnX/KkwuphZ6Zq2pYJhU8DQZ0viAghctW6UK77933pFh+7oIfV0UOmH9CESupIxdyXT8RX5hlhxqLiW8vshuHANw/KMcx2S5gJJ5h9kYTSeMCRu4nvyS3jmHGMzbeApyPdzYDJWathFx+37k1/Zg/d+FErpws2t6NgLQwYlQWrldKuBMeqxUlHCntoI5k6aSyzP5LWjXu2vHS/nbr7emvf9XnrrD4mU7GtnKW9QZETsGqjdroFmR12FfxkIr47wJcS3f1S/6TqJ4ST09wNH7EzN/65FU7f6yee+OH3ohPqyio/DqLACmRKjgaNJKXGcjmwdpYlxI5//TNm935RJuZRPe87E9NiaIPZFv+Cp4SvL/65gLAlPrE3iwPLXUrjBYdBIokx1zKrd3/dTt5/qzVG0lyjrsUyiUEEq444LI/v3PIBZ6ag2DXD3G+S+ZIR61vJsTjwAZ3JuOIDTaOTt1nv9CPWZGmniMm1BDU537XT6aqt3vBhO/yV37ap3hM2hU/blrEP8arcgc+Jjq0hJvBVPMY5V2JsTooTKZTVmayG9BVesmsnxYzwFUALGxIqaic+q69DninbymTK+vUr7Op/9quy5a6xCUtQvwUoq6cEGHioOlSl4Zdv/aTd/9nft/riPbY77sgN6AUfk4arftTRB6gUB1PycTOesdeYW/+K4UQeY9y0VP5lQ5YHS5N5BwSzPror26lf3mNXvOPnLPr+X7RJad/T1u3bgW/XJ2Z6qEQl8Yk/93/ao1/4b+4TM4RakFM7Go19rf5I9IDJzLlbLPSYnqrpN2dmk5O8d9EW+9XDN5IKrnlhYgYPB0PFRywUKdqSyGLqsmvtwA/8LbOrw+b/wQQml9wFmevWkyLcnXsmWHh6IOctACqvonzUWdrKR6AVx3zmoG2DEw/b6Xu+ZEv3fMZW7/mErd39UesS7vyIde/4qHXuVNxdn7UVaYDVuz+XhU97WLv7Og/cL9z5aTt95+eU11fUj4+IoWTeqnNYXeUdf96guoohZ3bt8x06q11ZEtLI07NNn6Ips2tHOpUZbW+plyUxpY5D34bpqMCwaHO+mRviJSIUx9JQRGkqwkKTc0oG0xxD4WeAnesaLWCR8HRAsU8VAJaI8ssFBvu6xYSwdT9VPdQX0BtlMwg3jIvW5wytWP6yumqMRlHXYR1zqk1J9amkazYdJ36qBXXSo0wThxry5YmUDSkuuPNaXDjAAsBXXQc35XOg3SzZnPgJlInaW63JbIZJJYDRthZXXZP6rAP6FMaViVyVhVT1OJWg/hiJnsirWRrLXWpZ+8idduamj5s9IatwtCB8yLXjxBpvsvJnIv5b9tozhy1iYoEIN5xuoMAqA98hojhJtWLStZlyYjNx1+biNZvXlbAjatuOuGU7pTF2yJzbUQxhp0y4nXq2M1pTWNWzVdvJAva4bVN6XsNUVxGcr4Vv8oytGRwhlild+So78PLvscnUJXayM7GT7YmtDGNbTiLrRdKaxYYlBY7ajf3KEr+BNEC/KMdBz7oKvjikOOVH7vp+ae4V3ye+ULdUpvMgqtqy8iVNcXqftPB8wF8G3ylJYB76Phpp0NlXfq+9/m3vt+a+V9hAmiOq7JD2l/bBdBwWbG3UtHZ5r61V9pk8d+MzLwil/Pgtzm9nk31dZmcN5oBG9dyZ2G/h5LEzcQITb3pyIeEsc10MyDRQbmRyqLuPsYhdYVC/V/2oY1wKA16TpC8rRMwqocPiLtaZtyu7rF/dLZyo74sS0oOBXEJmUlLrtTs224htR31ix+67yU7e9Am5ffepqcsqA6tT9VGfMY8e2Ow77bVvH7bkUIAANEKNEl754kDQxoqSmd1+9G5bOnKfTDsGrDoej7/p646FDOb12EpYkJ/IAeiITB9EII4OUyclLOrXla8IUFa5KLNbRfhKyLL8IQpWFSCy7/hQADElUy9xuWGV6bJxwld3IC2pzi1UZ6Wxpm21OC1TsmwluQJ4ujB1D+aVhOdbvUPd98W0ff9sqBg21jOV24saet6QPJuWmSrvOK5ZSxpyYSxRVN9v/amr7LKrXm/WZDUYBPGdA23CM510hJPSlBV2X27zEgztlbaNVxd9d1JFtcYULO59pe1+xduttv9q66mNxdZxa4jYhwlf/Jvxj5KxIymVXR1Jo41k+zM4i54rZCuV/F7uRXnXZVa95vtUeFMxz4SQ6Q1C3pJNoB95X8E4/lQ+/ejhG23l8N1WjmBexhz4DNBYdZe1I8Ji3nfQl0ldVZtFNxU2hCgj/OVuPGXDS15nu679Qavuf7mtdPVOd9k/ylaRr8QuNWgz4iTNKLa+3Ipua1luRdFKO/jm8awsLZnoqo+fZqm0m42EZxu2yCdWOyQZw8L4ACwMD/uHz9iJ637Hjt/+MZtLj8nHkklCjZSQtKl8HDdmFBeDbPnEeNUsGiGZW2tCEEqd8YeBmJJpEkaHmfZh72yVb/TyjSYlDj7xDludfqm9Gp84ulQOzE7lBZGRVUAHU18ANWbagQkeNm2U0sclWU6bndB1dUkRktKcCyuT2qe4ElZeqVAxLdLbsyV4trrxD3Mpb1SYmMMb4G1QPEdG+twVcfrd2G3L6YzNXf3GkN+TmJgXPeMMqH3ego0nnuNQZp5Mx4BUNIXKOnmvLV//+7bwwI1WHrUtlUDa+70/aY13/6TKi23hi38uU/EPrdk9of4q2nSlZOP2ogidT5hKG09JGHXbGYFCsDK/1Uf+DeLmLmte8y6b+qn/hxB3QC4D8+ShLl6JvHL+csB1gM3t4RfPeJNpRXojnDri/U68bhhhof8YZyliBneesNFnf90O3fDfZfay0aOvt5RancjKMyxtNlhxlE6pISuo15XNEbzujgRVe/pFNv+mv2Y73vljqsDIlj73p/bE9f/VLq91RVBrsu5Ui3rVOv2BGHhi87vmbWGtZ4WdL7Yr3/W3zV6n90oHfeyAr5mScTCkzm7bk2EzHr592DImzuuPZmRdKjRc5Mym9JQtfP4P7MjNH7H59LhNi4lLYFOAHzlk8AECVwYMupR5T4QyKSroOczsbVc82xVbIr6yiLXaHZiUprU7IiyOMJUdyIkgrOntlOZtbfrF9spf+veqzEEhfEeG5ZxgWJuDqCBm4y8pikwn+FcFVaDqERqm9/x9/YZS8tQMZpCl/9E9FeYR6XgXJl6HvHwuvMf7kJ4a4e3PngFOwbxLwFfQb0wTf4chlTAvjCsN3zL4VmCUnh98BBznlTzGa2Lkuyw5crfd8LmP2xu+7z029boflfC4RHipCafL1r/jL+zQX37IisdutflJy8cX/FvFlbr6UqKORSHKLlazqS08yXeWBrVp2/3691vxbf/QbM+1fr40xpe8cRXNcDg1VOJ1cxPI2gVupd6DQFJZEjp8BABKHRUangqMpBLMPtKsPJj3GGPuygKz5Yds/IXftuO3fdKiwUmr6N2eipyW+Ys/L561xpzcoDXRhIqama1adziW9TNtk8u/z674vr9mlVd/v+ogwczioeEZ6/3lH9hDX/qQzTCiXxn7HHnQsiPVTRpY+DzVL9vkinfYVT/5z80OvkVoloWldDGn6X0rVbz+jOvZ6Wgr8C3e3ipzGoIRtkScVAoapf2mrrX+ki09cpctH3lIWk7SjLOVJCrZHSNWsb5MvIEkGuYLWnQkXzqVNsPEhl36Qh6juUzIsxeoM8acFsPLVPJvOqcFCQ2O8sHUZly7YEPM6eoOmdPv1YszCowsU6ENZOaaGflOrXOScoaSVgl7mtG22d7n/LfM6BBEAP5MRCdiYLUVoaCyQ3ryID33Sqf0E5nWhLHix3rOUb3Mb/piCq9NBv4DTBJgZOqlSCwdCYqefDxwxV7knD747KsP/EgwkGYi365AHZpNVXfeDlx5tdVYjTV9mYwF+cLKK1JdSvOztmvfbht3lm11GSsjskq9aSudrnzHoTWrykt07ivuYHD256ngtkzMVXFOvTxt0Y49/hnSknDnRxU7qC68AzFkPx3gVP5n7QHrfKMpsLOsKL3el+tUUP2Jj9T/hRTrjCFDuWJo4a9/0h6Sjzppn7DZqaoPYHGAX6fNR/okAISXNQYMqzWrNeu20B5K+E/bvmvfa/vf9fMWv0QuQDzv/QBtsIkEzcsKttNHHpMyGVodq4SPxlUlQERr5ItN0Jc5OBmXrH7Jlaq+THU+jYGAVR2+JXhH5eHJ8NSxAbaOielpCEmdGBhY4ppVSGnHeqeO2qkjh6yohkzU0Zyv1YfRxGC9eM4GYopUv1N23hTwPZvyaxtixin/InyKPzqWbylJijldr05ZPFiRD6S+EPL4AkK3kCi9pLp+90sN61Z32YG3/KAwMC/mmlINGfpRxRhBV6CKDOigLJ15nVkyhvkOA4fqQYL8wuQrrJvSBMX6c/55ag+hO8OvIPoIgJ6Ap1DDLKUYx8WM4oQ/lg265axX8kE9P9MbbaX0RMFKUqj6pYTyX6NZWSPy+REuiTQ1y3Fi1a9YVOrpOWscfLkYZs6OH12UF7Fqs42K/GrhbDCU+6LaybzqFCq2KmE2LItx4lR+4oJ1Fo/ZeOGw1Zv0htrLwcyMW6CB3cJQJd2iEWSM6042Akm1o9XeSnad6J0xxKMAZuglX07LQqH+SbM7PmOLX/o9W7jnOos7j6uOek8CvNVlWnJiJVljoB5PpRvP+LncqxMx6uxl9pI3vteqr5dQv+xaEQ0HHTIeHTmOvH6NplXlPgxOH7POkrS7yiwVlJ/qyadWi7F6lgP80pEtLy3Zrtk5K+yWf1yaFs2GkfDQvryd5wQHrvl9gCfHPBm2yJymCMhm4gNUEabSWGQiJJh8seGjd1r32IPux5Y5I4kpDfpWhMdeXT6FCenxseaYkULM0sBdeq4uVtoIX0j3aNuouGbD+65Tvz4iKYl8lBaWje7TPO4T75RP/DJ74y/9ql68VL70Dq+h0OyMuw7c++8NZjsvUJ1yVuQukGYegDx2o8vOTseFeGqoWNpBFPECnrDLBvMOgvcvOShBhb2DAtLmgbS8R29wg3sSQdn+WVlxI1MtCrgTmL0lVovhx1B2b9nGN11nR775aZusPGhx76hVxMGzMmZWZUomIthlkCwbaketb5E0ZLst5ViQtt97rV3+hh+2Kh8Cn5YLI8Hp+26xCpi2KdGv+q9i8nZxwyoyPwow02SMd3PrmhfXhm8N909b52uf8GnKRO7BXLkvl0pCG/ISrRUidmpJe8pKKHDOmDTr6eJuWy7M2PTeK+0Vb3yb2Wu+17WvxWI81ZdDDTjqN1RCGUGrCIpHvmyHrvsdSw9/0/Y2JjaQEOOgP77zzOAqNVsZVa35ou+1/T/zS2rrq2xUnst6Dlhv3dNASPWdwJYwMSQg8vDqE5zoVCyH9vshZ50VUZOeoJkR67zhjIrpilTWPdxFDzN6xdWZmKskusdnzYAgOaH/i/9fO3bn9VL0bflBbZsqBFMKs7wlpC5Pv9xe+S/+gzrtchuLqZ2oBSAbIDfqiX7z/86I5wfks87/52bCw6eC9XTcZAE8qIaghvqC1zwZ9R6LaXw7pJusesoIDvvrZJkwOEjbC0X0GyIxFMx77ufyCmdLM9YgLoF1IGEO7ceZ7cstYVDIBqfMHvu6nfzqh231sRvlIx6Tn5vqufzCqV22Ii3e663YfNwLi0DQ0ipkKZ22TrzD5i97he158/v8ZE2rXiIhrLplSEd20yCsiMCoAgSLYMC3jqoSSpBrmwFF4kU3991gj9z4CRseudOPz2nKycJDHsrUx/WngZBGpVS2TkuMrDYMKzN2snqlGO177Mrv/SFp36vVdrx1juuVXyzfzKsk/PlVlemqbnWOtEwOW/KV/25Hv/IHVmsfdtO6VqvIzJflIEVSF7PzDaZVWXhX/dD/aPbGv2mTKQ5OfLqO/lZPvj3YEnMaYgPl0AlIodLBz8MkknRk8QE+pfuRHHbGAXlM/XBPwMfEb8Tc414mUEk+JquGYnxKmW+GT6rA72hk3UdutjNMW8mM5mPX1STN/BbVRT5or7LHdr9ZHRjNyUSrncUQQH4POSMwgld8/uAddW4GT9V756bhd57OmXhDE+eBWAie41sLjDO4VmXkX/eptJUkSFHOhfuQjBzod96ePLhPi8CUsByLMGlxQb+Lsj3RSilrQHmfgx1mZ625f69/CLwtUzntdaT5nNzVxypJSWqTgTHGxDbGGsyfDqyp+N7SMTty3+02XjpjzZ3zVmxMySTnLLGyu1msMnU/QMzqpqzXTm3jwZB18auqp5j35N12/Lr/Zg9/9SNWXHrI5sdLJidJ5SRu0k74vKoKZoiPwfiJBFvM4hUxZmdS83PHdr75/WYHX6PG75IWFQ2WZrKVgAEfvlSX38J7GECNxbTCwXTTat0lO3n4kTBlpbxTdQoDXGj6SizLbzyy4wurtvPV32eF2qzjEmrKIbTqbMi7+TuFLZsndvJTzcu6Yb0w65tYH8wnWXw9nzQq/rB/b1eB7zC5byQk4nf4y2hfmo/aQMQrTrnouYQBBThmlN9k0YoPf95aj99iU5O2lX2VDQTGpykr8odmrS0tsO8t0giSmMzvkjMAmoM3BulmTOG/We7nXvN3HDLe8wADuiZVyJdd8jt/DoNttFVh/bd+OngitcWfepMpY9BpWRXbeNSyhz7/UTt51422e1Y4lF/oIpRKoMWkbcPgkgxS4RV+QWGzmcOLUFlCuUxsNojCfcwOhHrynOk73+w/1bBJZ9nOPH63zYhTq+rHUben+nA6SCQsD9wCxbBis8jUTNWno/BfZ/R698RDdvzWL1ltTZr8oPxxPpHK/mPVzZd44udSP/xg1bU4aKmhYuAzd9jgC79nT3zud218/HabGy9bI1mTDlVBasxQdJOqfn3RTrvXQ57brHRDS0U3mxI7SeKLbHb9uLTk7per4TKrk5rKZgV7wCcQSX0XfVBElKAO8n5T/GAYW7k5ZbEIeXDmmKVrp60kgQV6OTDA/WcRI7S83E1s5859Vtx/ufJhLKDseedlbAZwu/n65FQbT86FLWViqI4Fh05EMC8VhYpgXPxZxWwONIP3QhBlYZcBTtTycXUbtikWfBrFwQdJVq146GvWkonlm8uUkLyYqmI980C+GANbl7yFxR4cpxJ8R3IP8jIMqQQDWvk5l50tSb8zCPX1vDblTMiBGMoNLefKOwQe6o+3z3/47/x9AjWrQx+9RRH5w7Z43832+O1fsYX7vm6lk4esOaX2YYp69ckfbEooISiVHUyLEPTHcDRBv9AeMDDN13/VSn0mQoyxdyVkBotHbXjqfmsfe9hmItVJ9jqmKKmT/tA1a53ljXrWlVnPa5xOy9csa+OOtPWatc4ctmO33WS7dsjiYgF2jdYgiBE86gfqlYoDhydt7Wt/Ln/0N23tkRtsenTSDy6sjPoyc2VXwHRKiyZN5QOP/TMXBfnlYRqpWq+JkXvS6GUrTO216deq72v7bVTapfQBn7SadvJmTME+DaY4GqIEpCnIIogZmGuUrTns2MnH7vGDB6HeRE54ucwWRjG76lNtztiZpWXb8arXKlMJKixF8vC/Ib/NkMfn16dPcTZsCRN70aqPcKV7EELlsgqiZZ1gAgkTeBJiA4HyPvHc+ftiRoiLEVT2QzmqyZuA5pb27D98k60d50PjMutUHtMKMnKEYBFHrW7tYt32v+Vd6q0pEbEksf5RViiPPKinKI5wVi3OI7hWhQEQDuS08RfjjUEaiGCS9r0N4R2wENKx2sytEf+d3wcgRk0T/bPSbc16t33Bjtx6vc2MFq2ZLllPTHLo1ptknJy0aUzSmlwSPgEhZuRzJRA+I9hYy160F0v+RAQtHPoDfcgjd4AU2fOtoK0HvyrT+LB/n7cpwm6PYxuI66tiRj4O0O9Ls8qMTdUe/uHSYI2RF8sjC7IcWGjy+B03WO/Yg1YbitFmxdC+c0sq/MT98sFvsls//GvWfugrVm1JYBRWzb/UD5qUF27CJFHedBd1Vvks8ilKi4NbP6JXfj0bF4pi7kFpzmbeIlO6ulfdOx0W8pwTfAcSCJFQ4uIDni6k1G/CT3Ek6w4Vv3DUFo8/YVWZ0OVIpnp/YhW5CLh77S5LOYc2v++A2a6XKZOG3iW3kDXA9gG3IjPgdtNPNUgF+ztPerIOW6aJAadLh7wyXCEW+WeqKKSeJ8mrjE/q5K6O8fezBJidpMecBpzAsmyL8geTR26UJn7QKuxWUYcMlVj96FplXG5YUt1he75XTCx/mwPm/Qxp98VEHLpnaShlhV1HWbyXeB4BiQ5RoOHIU39oi6/pVb65ZRLqrwcibnZeeatYyuimrR7mz/3qfxwwODGjrXfSxg98zTpP3ClNJSY2+aowm8j05PEjduTxx23t1Irt3nOpmHlWWcD+Y2lWcle+BG8veQeuhomB4BmHZ4g4F0rpsq3c9WUZPsdtSuYOfmCPPPE9C7KR5COWKzUbqj2lasnnrxk4R0ZkCpsOdNN5rhnZypkT9vihh6177HGrdxasePxBO3rzdXbvlz5sjd7jNj0+Y9OFtg+IQvx0F9O9zHh49clO/cbiHpaAwhy+3k/1YXArWHyxleYvtcZr3yNBsUsJxIgCMEGVoCNnWNoHuC8rUP+4jyxzgsfMsPBCJHN6VWZ1QeY+J4EwlkAZvu9B95Eshem6fOKXvlVZSTjRyWSgK80HcrrNfwOb7x080ZNiHYTOCw/UWc1fl+peITobH8HnC4MW5pm3jzR+zWMC0YdMQuDYFNbChhA6wc+B9oxEcGMZjKNYQZ05rgqBNRsz1zwp+WdDGODwDxj7iDhLMiX1PTBCK4aSM+VM76JZNSKArfMN53QCdx7NDxcSqg+BeolAimUWhlQtSXMs5O+GtPm7XIPgUb2XT0rzPmG1ZNGmpCWbnJOdrFhT9/uq8leXH7cRI7t86t617cSSQVv5oItkoThyBc7EAfIyfKvhSFqYK4GVX3VO0RN+o4qVq/IpRfdhy+LI+slA9lAipp5YV8zd7fetUld/zDesJ9N+TTmzpwTLlFKX1tasKrN0f1nX4zfayc/9mh366P/mU4WX2HFZFietMWk7o8ktVz+KWctV7HVLWXiB5pdjP+QAu4EsAVFEVbjEEmNVGaMIYG2o92bkp/qB29LMEwkA8gxniMskpy+8Rrqq8fwKoEbLbMeScFxAt6VZq7z4DXKrX2ISLco7ksBQvKw9plCropk47dqRh+9VhcPYCn3HgXs5hoN1+sxg69ZOZ6V4hbk/p+auALiGn0I3pifIBGPiJtYcc0sAGPoURfGxKnQEyF3PID1u6XX/h5248aM2Jb+F0z960hQwJN875tOTyeyVdtlf+wWzprRSSRKStXheSQUIXJ3EainA2Qhpv1677xCcOTMGkZT29jgTCVzDKyD+4QIQ4wQis1e+e1vNbF7Cl/MRVSApS6N8wBDo4FheG54wu1+m9Kd+wwon7rQ5CSI+d8qZ0iP8NAmxxcIeu+wdf8/qfBeYT+OwYguTdd2eU73yeXhA7zMqyy9fk4xUWwf9Hh+2w7/3L23y2F/aztGKjfuJDeX0MpLNFA/MFldnbMeOfXbsyBO+CIXVT2i0WNo3HCcs8QQqJAhSWR8TvQSGWG2HDw1joMmrqio7/HyXHxVSPn6Yu2rH/GwiwbxzdpfVZGW1VlZ9IcZ4qCuWnPLpC1+c7tmfVO3F7/7rZm/7OxIAV0gYNN1n59vX3ibvG138XvjFSvOfCDr1kcp0UpAJX2TZ6vCYnfjkb9viNz5qs8kpa0qAMbfdH0eqc83XrJ+KD9g1/+wPzXZfqyxBqjKA2ZUzWTnZ5V0g4HbDMuJKBLXYlGgTbA0TUwSEfBZsLpb7pwsCegGRTe9Bw+THiWXe+SBD8eDck9PTx2z06Q/acTFxcyAfS37JRIQ1ETPzLV2WXi4mJWtc8mI7LleSUx/46FqsZ4xIc8RMApMIcdxjUjPVEj7Zcj6AHpUQ0R2Da55vIA039TGpOemDdrF1LRHDrgzFeKUpa+zcb6//wD+QTyUCYPqNAR/AhVfOxIobHjf75sftgY//R5vpPGaz8r85OmhV6OCLEq3eyIazL7Kr/ua/Nbvi+/TWnLsVYTiRXNQ22pcPHtJfsh6YM/ZWM0/jR5Qwe6BbNSaanLITf/b/tu5dn7TZ1mGTfhcDqyp6gWnXNdF9ee4qu+Td/4MNDslUfvRh68hEni0lvh93NAinYTRqqoWkDYzLEWAULXngy2kRvFGpojjVn1kGpUEB815Hym0opixU5q1Y32mXv5yvEJZt9e5bbLj0hE3aHR8Jh19W01jasm6tScNe/oH/q9lrP6CMDsrN4ggnNYuBVgQqApQW+zgG+GUBjQrz54oSjlidBhnaQEIiWrHBzR+1Q9f/jlVXHrH5sp6onozXRP5FxbGdKh20K3/uV6x0tdw3VwzkL/Gl/FhJR1sw1Mjece1XL0z/uRJBv+RPz4asxy4wuAOoxsF4ECu/kf4iEK+cVzCHrNJeNWQyPiGslVpKHthzaC1/hx7PWg/QRvLHP1PaEVfZPmN1yCCRcTccuMbmYLsdZaF55QlrdJ6wXckx29F51HaK+He1jygctV2dx/33zvYhPXvMdrQf1vX8w7zyn+8q+L062+Mf8rBTv3d2DokRHreZluJ7h2yu/4TN9A5bs3fEZBurYXy3aXMnrnezAFxI+w2HHjgwD7QwLQSxITimmlNWr0u779ottIlwyny/SmmEwzHMmQ/guasDA9NPiDsBheR9qKI8Xy8yspnd+yQgpXFEjGhOukfWa9bNfLZUPufeF1nl3T9hL/2Bn7CXv+ZNVqk2pTnDd43Fc9JWY6uL3iEJvijK6C6GR7kW1kePWbAi7ZXxlVcHjUyV5mbn7fKrrrbL3492/WGzy15qLblSA4if5qhZfFjDsUXbGNSb2qFndbVDDKs0+NcBaK3KQ3iBF8crpSng5ojmsAyUnePVp0EVV9m506q1ushZ7I7Fov/YSakUCAtA6I/2GmfDeW9keUoEk6fuQ0+G0p8SqPe3AGq5NeDEIYkrxA0xbYSknopnoT3ftPUzeuk5n08jVEWIMrEkGdlIxnK7ntCX4JC4f0oPhSkQH3wJdByoSP5sKrMmiSQR41S+krSgxLyEtn8Jj9U3Y1HAKG37Dhf/NpFMO12cyV1OKPBNZA4vKEhaUwRy+XwCfhZ5M43L6ZhlUU24jqwi4qzoWUXPCBHaS3WoS4pXFHrY031VeN0KCDUBAikIEGgKLDiA7YrSXBBaomRoxUS47OlmAOfxgqwXcA8T91Umo63k5aTk2SsRa6ZJ7JECiF2kyyoonzP2dKnV9+6W/y7ExnUxX0FdIsbQO2z7Lsg/7bZUwCFZCRzSJ0KvzO1V+mkRd8FPBWkqcNBAT5VZk4pflNm/UGz6B+N74F64q6ivapIKpI8kbEaJNLPewf/k0Lsipz80ZQdgpi737OTywBJ19qQS+Xe8VoUM94jFZKW6hEpjRpWr+goAbyV0A/EID7RNNV5ntfA3+6XnAzVcTfP3/IQUtLekESehctwPhi1eUQx9ggekjfp6JAXi9OmuleLc0lECXdm++WRwBOs/128NXv0LD8gavFykW5A7eaD6m0OuWB2ZCsQFpGL4kQfPlYK2Ze3L8wq//U5am9M15BExYihim4hJkfRoC4Clum4MiBrSYVdI1zMF4gJPyHxmhFNX1tBGimQQgtMLuTIvjSzxI2L9efjNc377fCnxyou8PX89iiR4OKvad9Z4CPGMsmJ9+cwKhCFfnsUwaDirMqrpY9ACJaaN6ni9mqNAIEbERFO7KRv8EWSse1DrpdkkHJFQ8kcn/TWfD123EslC6cOu2oxovZzsVrqFTe7cUqbrI1ZyzMi3ltnPUsPeQFpF9S2hYlXfioRJsd+y0QO3mX3543bsYx+ye2/4svXXWlavNYzPRHW7el086LSqek9kIYwqNbkSZZ/zRdjyiMYLE6J7mfdi5EjMjo++vHjGHrn3dnvwT37POl/6pPUO3WeTQUv9S13DhhdGPtkCMRKCJzU+m8vIvHCktq/jkHSUp9u8jYg2F29u0uqJ6sKHCPSaC0l/NmCVmCw8BXqI/FDGBea7FDijjE+c4r+DNS+RQgKRKaierpGfCqjF5vDUQJlbAAynM0EhotUvmgMBCbd+zZu3Xl394UocHcdzjo6P9QYeWhjwEhpF7CyPI0CwA59H0qOB4ks7LK7utFTSmQUmjFRW9TjWa/he3oEwJFwkAI1sf+STnUhaQoKElEouMbGpFHQOnY/m4oAAtHVX+Q0xG3nkqUTeYn6+2TSI+MJPiOcAcvKHqAaKoRy5vT5wNFCCSTO2FeXXF0en8t3rkWyVUdv4FpCbusWqt9oBJpcfXFSbwI8TmQKHH7Bopi/7MZaUQTFVK5zVNZRFUrBOb83svm+o4DPWjHpW7axaUx3gDERQCYUMr44QCuSqfEYjMWfc8ONpi9Lj46StOqn0ebYu7hBhV4VvabdkIM02Fg5kg0hYTI1O28r9X7TFWz9h5VN32e50yRpJ108EGcm0TaXMwDXtqEnQlhksGq9KYHTlX8slEhGAN0xeBDDz2XyoniNlOYSAjwnEvWX5o4/a6ds+aWfu/KQdqKz4QpJIwjuRbc6B8MX6jC0K4TOXv0pI4QPiBV/MBg1yuD6M2VN/M0UEvRRHXSv4Mk8VDg5UNotd8J9JS319ahBt+sQhGy4vWikZWk0JeKUlv6AwNWtL0kTdUt1qOy+xQV8ZMZgYo8HVEPAnjHMAX94F612xDk+OORcCBW8JwHywcSgUBs0Dv8+tav47T0tz87ROVR6EFC4CCDb2HlaQaVed3i+GmLXlgTqQ41IUD0+CYNKGa9DuDPj75gDZa1FNWrIskSEpGokYx4O+9dbC5nPeYV1u4oc0i6BUqYqIo1yfdj7CCsWcynhKaZjqUp0VZmalmaQJMbkiJSzKPJy4qSVBJim11pa1oAb7YgUVVMLvl6bzr/nlgy05kLcXkGkp/v7/2zvTIEuv8r7/7771Nj09uzSLNBohaSS0IIQJxoCLsBgZbOIlpBzHNlWOXdnsb075Q6ryIZUqf0ilKlUpSCqJ46QcG3CFmKCERbEMKFgIgRCjhRlpxKDpWXvvvvf23fL/Pee+Pc0g8sHSzGh67jNz+r7vec8579n+z3K214yjUBtXY5vVW9ucTYOEb47zNb9KrhOnW7TmTmn+2OPS8SellVdcT+Ys/VUL5hXXQrAW3+MMK0ZjGTCLe47xtxus2oa1It6/4PwtmhlcsK56Tjvq5RgwxCRBloW8DgnajXnq6mDNdu+atZc1NaoDNWpuE6smcQagwUR7ECW0Sv+BSbIwt2MzhilB2iNvzgt42gZKxwUb9FnmkwbIZmoDTWpFk/0VjfWbqjvPJdcdSy5z1pURHe3VJQOWRbdwXee9e8Hq/nnlOhdVc1nYi1w16GFQ6C0Wnm7gJD5C33Y79Fqrsed9h9OYMJNQx2bC81/X97/5WJQdaq33NDFVsErd19LivHZut+R3W01s3+l+Mu4MOWHAOwRwcq+Nrupij9dKANgKV+okFJ4KocF9iUOipHk+N0aj5D66ogvnL6jZcoNbKkZ1uaFok465eNc2OI50uu4cMJl1V/66JTpAqxgAYw7LOeOB23hlMS2OMOo5pWTJnHZpeSUOXGe6hJeQT9hDxQ3bcDzs7AvLfUspd8MOtl3fNq+B6vicaIs2UvU7xmzb9d2j1xE9lvhrfUvf+h7t+RsfcIJpcUb6JhPPKXtSm2P8OAC3ppXvP2uwvuJ3AxqHc8b5uuSEDc9+s63lxTm15+c1cJ45IpcvOfClwwBujEYBFaeFy0DMQpK+3dIp6dyz4lif1rGvqvWtL0vf+T9qv/SkxluzBmsqP/WLKUR9lszI4t42a8sSx3Ladvi6GWJa5MKBdZgmMES2lTIN1MuP+/m4Ja7NGRv2SN01696c3FKq11SFaTCfb8Dk2mbBFtNhJvn1qe7tAsB4FWKF2LQrumJG02FE/NwP1Dn5jHT6ORXWZp25BWl1Xrm6NT2/C5U9GKftZmqDEfpgBQVmMOZtdz9n8H5J7a9/Whe+9QU1zx93vKaret0MaaCy6zNOn7F5MW4mU2KZ57s+5uYyoEnPYbKVW5uv/7p01eaJXwuRwZTJZFnHHR7uyPB9ujW+NF7OYCzmbaf0XNlzL+riE1/W7PGntXZ+duPjZwAsPrZmbsgvVHOrM83TWbcaazuZiXqtzansjt8wzmNMCHvXqhBrh/maf8fqZXP8YBztUlpfcDzHz5UdlmWhzF0bxL3FYCy90rSBagbQPKu81bRyxdLI4cEIbYhKGap8oWqpY8ByYF5uSu3td+qBX/ld98LbXcCGMwHAKLx7vTs9g1f03/yaO2JhXuf//N/q5a99RvutUtYtZdaXLfnQGR2FsCsuL1sCW419Vg9uUnn6ZlW37VKpMRbaR9l5LFFOA6PbXle7bditp6m31tJZ9Zpn1Fk5r5aZQX5tWTVL2Ennftx1G+VwZsJZhWVKrt5NGsaC3983mjhAn40kOavneYMlZmFdn0utttaLY+ZVB7Xn0D0aO3RXVEz/had14tknbF4um9EuWQL33FZmgpyb5aqgaJifa+4AoU25TqI+zDxQwXuFksvTVxkNyv7zrt9maZvN6TocQeXGpApTVnWnDunwh/6OOwL7if0MBu86ZpormAyjVWundearn1bn1DeVu3BMudUzaq7M2WTxG1EjbBdXbdv1DN7Jcb+n1dWyVej97/u49IF/am59IECLi0MCTHzNMrv+69J1AeLUae0ip/xxrbqBkckZgLNHVHg+tuBZcjCm3XTnPnfG3B9e2ot1uknSuOIMNEbLoRzrlplPtqqWZxi0Oae5p7+iuecej6V+sh3HAFerz8BRxZIip/Gb79L0gx+2qGbahlScZr7uDlyzvWsp4vfV/D4Wm6iFUTyv3jOP6tSx/xvvabBB11KJJsjZPlzoFLXjyFu07Z63u2dOujDTalZ2q3bkfqfLiL3DZ+X3C5F2lJ8uwMBK7K/97qM69sU/UvHstzXVmdWkGQX2ezZtQ6dsDhy3UDPTyMepnUxBNcYmYlCKby4xWMdId9uaQ9udn33KRaun+V7TDAHpzK6dvJml684JjlWqljor1gr6aqMmh3aEFO6qYfsVTcRacYyGk0uUiKKZHR9paxnxiwZ0ec9B7b7zIU3e9W5p5rADbPN7HHHpjJF3XOef/l9aOndCCxfPGrzLms5ZtTdDLlnTcBFjfIERAqQaTIg1y4ErvwxWX7R2w+F4Sy5rO1cJO5SlkZy9tVaa0dLYYb3rH/1zaYKFNRPRvn0zAOoLSV5kmssayLc/86+0/tJXtLtwThPltpbWOvFtpzi4wubRmJuouerWKVe10h/TYNshHfjV35PVKbfnzgAtecRxjWOL5Guh6wPEZDEMJpMLT7eFu+ODywrQsUSslRNYbQT5gbkndjLdnNUHhAbE2C/DdBIwfI3hSm9w4xtx7hUXtfiFP9bLX/0zbetfNOe3BHfnWLFO12P5phGx++53a+xn/6H14JucruOyjLTAmVoGst/nZrL0t1ZgKRWMo2Ub6tH/pOcf/bS6zWVz65obwCChfAb9+XZJt7ztQ5p6/9+2fg1jsESW7SgGQsg7WQ7Ipnlgv3ED0tEN+C5Q56yWHv+sXvjyf1Ft4QXdMW21f8GmggPgOO0C0wCTzJZBYgeWhBzfGnqOgR2H3oczk+R1piIqq9XrWpmhH7/bfwB9p81YA6PsLq3DMoWXVGlrJ9YaGn4ZSxqt0MQy5XYtp4VWXqtrVVXH9mrfLZa6By11j74ljsnhQ93qsiyUpSMm29HiO1tdg/nMC1o6/qzOvviMmrPPK79yTtaFbJr4hYwsAxAzDgbHWTMdIKFq7cYQls7fIl3D92WmBMi/ZflycacWx+/SW//Jv3R/8fs5jM/lZyCE2XnMnRiJX3tFi5//N7rw1H/XZPtkMKk1p1dxuZjfho/H2RZmgrMrNh0mbtXR9/26im//iB+mUfzN9HqB+PqxiYPX0OVcuf4PeHH4QvYKO5aKRErIapOVKEfzb962jSuW6ZfQXHiOBDZwQjyF/eOKZFkhPRB1cn1ZnRNPq/V9ToxYjDletCYqPR8jkHnVdx5S5Y53+IFtnUjHYDOAYRio+fzjC/VpThsxuKbBiSc0d/I7DNuoZrUBKQeD4hM0bee3uudNGjv8QAJx2MGMZDo+PTHImoCT3FxuagXqWPUtMBdbq2nQWtXqEud4207rNmMJJNIlb7FCUVE9+eIfgGYEnzpxLhKIfevuZYlpmzOfRmSLRepyYIkO63AcjEXXBeo3Cxw4sC4NETLgxAEM1gAcnpkD8se66TkDfrYzrdyOe3XIGszed39M5Qc+KN3ykLWZQ7b/91uLGY/jcyCmcHKUm/nYnut1+y2qHDqq7W+6X7v2HbEJsFMrbt8Fq6w12/bOlbNkCTwc98ABXJoTKyTWXPsmX2JKEID3Q9IudSuaOvSgpt/8Lgc0Iv0+TvREzysMhgwYJm11vvXiN3XuxFMay7fcH1jI4TSRCX4MX6BhWm7r1sQt2vHAw5r4iV82H77FmXBfC8HhIK6XTBpz/VrV6dcW+6oSFTCshE0OohC9jm0kNzinOnZsXwW5sXpW75AmboYYpAhAMGWDi/XY7oRcY12FncQIolVXg7LgjsvKm7w7OfUP06C/M3oc89YwAsDJ1yzCOqPzxezhpdzCfEAd4YweFsYzWlzP830mloTaTjdQCp3VAHVM/IeodHg3fADMWU6pJQ1kc7np47EDy9eFivPPySe7jmjfO39e9YNv0ctNy6r6bg3c4fnM65qNe+Y6ATKfj2IGiz7Ee0mvZOlTMWoZaOMLiZz1nUMl5ptNjFi7szJoiyRHRUcaA3pygIGD6ozkTRsKUtE7ZhALzYJ2HX5I9330d3Tnr/4zjb33Nw1eq86TdxjAt6hV44sTZS06D7QV+cul84mdkEFc3+Vr26v9GTM4S+y73qdtP/Nbuu0Xf1f3fPQ3NahNBSMEeGxqsCUe7R71ZQfzgj8jJcktTIiqZpCyVC6byTTs77IwcJARbRdjEHZoatWyxqYmnbdS6gcoeiDX15gIfdZ/Vyc126pp25GHtPu9v6D+5H4xCkMdZMR3pDMCwAiG10KXUn5DExVLVlMFu87CQenJID6UFTC1BCgx2goRKNVxxI7CInX5kiEGUjhLGPthF7qrmlOjutq/1FB8ecJqJNMhFiJujFIcB8QXJNqqqhNS10gomXtjswI8v4X8AGfOSwyV3vAH9qwGyedsc7cXNFFYV9mMZ8ydo2R7vAKgu0vOAXqnowTLQNXKSusMuKck30QMPodpgLNqx15ZDhaMA9923anDD39ch9/1yzrrzn++x6diJmI9Niu4kMQstoitgb7mK/qObabSVp7znP2Q0XNrvxr3s7rF2JhfzHlcFvIh1QYG+4o5Qr88Zl5o+9ao5mge0iJLTMv1rLPzCZtmaVLLqJT3fsgS1ZpG+bAG9T3qVKb8PEodvAoo2cJ2FQBnOza6mPjL3gxVOLppu53V3tohaefd0uEHtX33fnVbqNbMKgAUl8sAYaEUU3ixY8lMseOCo5FwFDQgXrf2UnI5ZmbMHJCKjUaM+FO1MGvF4QLEt3O6fDECc6PgPlNy+sHX+taiCjM63ZrU+fItOvr+3zCALYHrMyEzUh+9RJvVZ6TxjSOJqYnhLxU8vIwCoAhG16ZVsGv5NfGcDsrvsA38jNhZzJgU2iCuHduP3eoGdVLOEyVZl6RNJvnSXxqE8ClOsOTwh/jl3hoB4TJunJLKfjYcKUZ+EPuEdeMyb8x9tt86lSwLzx1Mwi4QnTo7Xx6IgaEdt2vqbQ/r/o/+loo33WsV74Au9CZ0ft0SGajYeISnkRizX4zmkgq2P/2KVyMkkDicoU64Yt3PxuvqNrZrubxTc/kZXdA2LRZn1K7O6BwbexwnplhNfdcJ97ZQtcrg3nkD0/buul+w6vRY6ELS1FKmz5QD0pSE8pUd18zL+aGkNNvAwOL44R4SuupyWp0+9f1T1hQczyY0jKZqxstUEUyFQ/7Odxtaqu7Vam2fFvPbtZKf0KDasLUyZcZXUY0je1EvTIAYx3bHaF+3bZPRKlq8sU35yd2at3p/rl3VKudzjR3SQumApu9+v+784N9X+Sd/SZq53VHHnV1Lesd0cleMrqt54mhA10YGPCoGqYcKlRqcJ1l1AThXoW8DRvFLuICpKYGN0JEOfxyd9JliUn9FzeNPau3kkxp3z2CEN7oTEs8B+27lxp5bVbsdm9gdgMyFA2wsc0hvysEM6Mh+VrK07Rx/XBdOPmPpQLh+qHyot6hbK5aUhb13a+L2t7oXunNYYq7bn5JllF2nfHPnN8GYAL3fAyDSwBLLOw0L1grv2Kfpg2/S9PQeaxSo1IaIVXakFbXHv3SOVGI2PXdmRpi7rjxO5IhylMpac37O9Wo60x3TXG5GvW2HNXbzA5q57UHte+t7NLXvoC6eOaly0eaBVfGwm4sVMwdrG7Yh+QLh2NTNyu87bMFozcXvZTYB8PIdpFDBeVvMVcMuDXYzG+5oLdkeL6LWOk/kDyoM1tR6/uua/av/ob2lpspta2JOp2gu0rVqTKhVTengR/6Bpu58j/K2qxf6Da1arPMNrOagpkVrKft/6sNW7dOgFnazk7DK7P4T6rfzaNs/1pNbDTk7e06LKx11ytMqmlFqx5068oG/p8kHf8YmwoMuDNNUNcdn6S69AlOFnNBqrz9dJ1NMpmEuMxDjqJINKUzjZ0UJDhrQjdtUd3RFHOTn7vCRxjAKxCWAKjEl1D2jC498Uhce/YT25C6EXYx6iB3IpoxlK37b7ntYkx/5fQ0mjmTZi1cNoRV+5IBfwNVYn1XrkX+hk1/6j7FlLc9mdaeJCYx9PW+VbPy+j2j/Bz/uDnWrO/BEyCPSyLg5aUP4WZmzB1LLb7DeNrA6zwJ9SklYBltqjI5z2AHTbgzSMPW2fFY6c0Ltk8/qwisvam1hzgqMrUjmhu1YiEGaSOOSJRrrx8fGZiytdqq+b79KVl1lhqCG1eMqCxj8Nia8576nY5/8fdVWX9KE34dgrEyMuXzOk9+7VnYad/y8dv3cP3bG9rkQZjCUiAqC83ANgLGDXTF8lIzyQ1F+l4X15jHwZulZpDytWR3/1L9W95t/qtsq8yqs+r2u7G6jpKUus9tu5913ad8v/p500z1O2zVHXazOOr+npdMv6/x8Uzve/QtmePv8zkmbSwlyaCZYacFumc7qrahz/pQunnxOxbXFpIKz15u12DXXBeWxdsDoN1WSBEfXvKejAqZbpPr603UD4sszSZMn3+zJsObiNj0NxEOBVHeOuEWFZuogUQJDCkIo+hL7j9U7p7MG8flHP6nduTkDwg1hDk3D9izNVszBt93/sLYZxD1GH0nDjrSGb8tyFI7rUutldR75A7345T/UdMXSisEivzgxhrJBvF2T9/6s9n3w16QJRjSnYgcX8TMQZ2wIIu/xXSPMB1QOMyb0BMLYJwKzThy9gE0B8eWJrLD0dMAKZ4qEHYN00J1xPCMcPRGJHkfLOBfEpzQsh0qjOXYO706u5RN68Q+t2J15UjNaEd8ByFUL8dmVvCXokoHX2/U23f63fke62RKLKTTSCJUAR5pOHrXWDIl5X8qBV2y4CGfVGm0IoPesmn//KT35n/9A2xef1Uz3XOyK6hij/XpRS4O6FgYN7Xrbz2nivb+t9uRtbtyyii4fS0jRtljlFpy06PIVxtXkM0Bu51CsKT6/vsiZuYR+RX13zJ04FcbqeNSJJW6PAdJiKY2KOwZ5jqJc9nslKJrkjU6uyw3H36RGDhs9PFFwGfQxl3aDhB1JlcUPYYEUvwROkipz4RNpWAm2Gh2NFpKI8Ol5vDEGlXiamiOShv/5//Bt4cgT/oTMQuNKqOh2rGIaIDVjlNxPhvEHwXBQ/ygTZTMjcYdJb8vemkaQIfJFLpMdbkd8g4EjZgA8fD8+sGjv2NlUndSgwkolA8c2YcyHFm8209pn+3Sf2pWb1aoeUKtxq9oTt6s3eacZyR2WMEec0GH1Szu1XtqmZgHHMb9OIzfptAC3f+2n8X3a+6YHHGdbMEPmodlPC4MgKxxe0F05o96pY5agBmDUn3PLYByNgKocxjjgTZoSYCpEO9MezP7yJX6XDg2ks6D+i08pvzwb51uxcCPsWb+s5/DsN1grT6i6xwxx205Hty3tVFrO2ICzzWXp2Xe+zTwpB8fOx6o8E3/jG8ZOh6WYbYvXLrMQVreRvH02URQnbZePOz2rzuUEYOLFenkaZ8gnU4pXjrI+8YYnhnw4hmwDggE0mjkRTYwPcMWFdha1xxMcIEpxiJXF3KhgpK9dkmyon+vuPIAoyTaWSNKZWFqJXVzEDYEJCwnbnPQjvi1gwoU/lez3E9adIVlpdFCe0rVxiQml7zY7R3RY5mP9S99OeeSeia10T/5TqRKD6Q0lKfXDuxl8Q1gRjVMniUlpsPOi2YcVgKBlbzPb6LBHE6siHVOEhUE4hovFoRXYrhy1Hwv+nUdwyKdSOnTu3LSqhx/UYn6b5tedCvzFgKlXqwHGmgGaX1/UmZMG8RIgBpSuYSRvzBQwglxxWpWNvb6GnJ2lJXU2KMfS1DgVi40h82d19tgTGkMLwH63HczwU9dYY432mkFY3nOTyrut+rcuqtJbSra3w/jH73PAEozIKr/fyeJS6jSeAfdoX+rd5S6zLdVtFZPPZsRoH67RvsOlU1k61tbaVrnRnYIdxEov7HOSSoLiyhCtdF0QnSo61gZldz/su5mi3kIqx8XQJXvnEnxMNFYQd3aoV0EJCAkQSEEDFiAn6MR1AieNnbXS8H3R+Gztg5zehuTlrYZypDvk9I5L9wHsaUjFsULCktdMO8jShxFsvCVC4wolVF6g4jvmjXCk51eWy8VhHP8LSTeMRI+F7AUbgbVkQ3KxxzV7JRTX2XMjOnql750WxWLLIMtEdfAB9ScOxkfWe1bVOYu532qpABMwoym21zT/g5MG8UV3bkOOpEg6/sJGSnaXspbqkfodDjb5NpgTOvPCrOZOPq3x3LKZzKrKxUIcLsC4BgOGvVJFkweOSvtutzZR8ytgVim5IF4JAwnJn8jRwjE+kMgvcyGj+u3YoELEqG//9rqc8mU/J8qJwJE5+sO67XUyi1c04JUj8vuGJ+o6jaGmhg6HLRUOv1QQntCN+eV+4wmAiCd2bhsWIdCYuDingcEUVDrbum2n2WX+13Ygc8csKUQjJ73MJXWeX9NQYl4CqNNBRYzRF3SHTKLwtjQDygaAkjl32Q2fVjVZBWZBP9KNLky5CnX324qfIdWRRib8/dasFjaXNXIDYgnjzis6GXWT/ke4CMtN5kGWokB4MBnCOmPOamYbph/EMzuIX4Bk8FKe0DEiMcqQgjLCLe3UHQ89rGZpQk2XK+afXSQ+HF/uDgy4ojpzF/Xytx63dDzn9yxbs3EbcBqk64u2odKysgUakX6uF7BRx5NKXV/S6W886nTPq9pZ0rht3LrrisMBOURk4LwVGtOa2H+/IzG+YPU3tAXnw4lHkXEk7V/ex5ovzJDoG2gG9Juwz2F+KU4+RrpwEUqVYs1JuNZijYD9Yumtr6uspHFmo9LteNcVIpK/LijVefqbsv3DNbPZ91WfBACiW9ADg2FuqOahs1rVdFD6R6ybtV+Stkhhq+B+xvPg8BE2KZ6XesPwJxw5IKW0zjiliX+SJij0pI1X8rcbUoCDDmIAhwyOCKRAINK9dJW5S9GHTyL/XP/Ik0s+2eNwl26yfxuUPRrSsFbCxYNggEnNT+Eaxsx9qk4fiEUx2KgsTaQYAYLeusG2pubpZ9Q/8XVXzgW7JQdIzAvdJcLapTSpY9eHxRmXTPXFgNbsd/Xyd/5S9aKNhHgvSQwCoNVGQatWvaf23ab69oN+Mm7HwhyAl9KOKBsX6V1O/hLzyHIQdRke2Y9p+MwupjHjX7qP2JHnYbzMXUHirTcIuSajsyYK8PxQDWPvpkaMKSbbxXxjB9uPbouK1rZ0Ss72E47zpEIdo9ESyOm0KVm6YgJqcr7P8aU+Du9jnjNn2y+pfvzGFkY7PiweHH14Wkic7xyyIe6uDfFqeop/kdZp7BabHuIvzHCYQ3THqV3ae+g+rfbHXU8Wms5+01HYHIF9O1ZYVOfMUzp37AvS6kuOaLXa9ixrjln8kQ0QBVGPtl1Zuhh5WDnnJE5q4Wuf0vbOrBWhnlqcWmLtaaWPTW3makm4UpjS9lvvVX77Lkcijym3W5GolhuAgFDi8PQOAJzkJF1l2F1C2sWQiX+s1hrIADjZv2kwLAaQ7Di/iy1uSORgDKRnF2GIn1EAefgGNrEDYuvmPfvTUWMkNeJl+bMnmQuXNY1zhHp+TZvK5Qibglwm2UOpuEsUOom6bJHCz2CaPvpO9Rv7tZKrBYjZ0E+5C4W+KgZttX1azR88JZ14wg8WIg1iJ0s+o15sUGj7jS2r4rSFcvPSM1/S2W9/QfstYHssWinUYoqua7C3B0UttK3e7rxdxQNvtgBmFDrld6vStewZV42A0mYHpevNDWsfBqJiEIWuxOh0GsgiFBXFKHXYw4AzAIpDCgH0S7ShIg/DBPuI43q7xmbPz1HPna7DkG6MU/tdMfIdAzl+B+/NXnGtKSqAMvjXP1xCMB3Uam45m4tBuAjTs/aw/z7tPPIOLeYmLUUrZlquPRcN1Tff7WiKr/YvnNLZbz5q1fgFx+GIoESAOUb7cZaqMA6+K6y+wb5yQrOP/YnGu4vqLi2rahuV4YeY7rYUZpPHoia08853SnvutGdaGRb52qJ0Q4A4ISH1vM1tCcdP1hw9AB/CJF8umW/m5A/C0HGZYmIOOHMbU0cB4pTSxptCdc/eNkw3pLA7MyqfQ+MLUEk74LABYtK8lN4bogNGcfzHGQrmYkI/SeUgp5bGaXmTVGm4QNPaffe7lJs6oMWuzYRBIeZPqQbWmdQctNha1rnnn9LKt79qtfosR7uLNVzAji2UMMyYqjGDqMkAXjyh5l98Squnj2kqjVGpUjDU15vmkauRGz5bWtp1JHYRpe2cVQckf2+ESrwyROm2PEX/cxOHFB0S/RCHIpgGabKqwNcxrC6v20ZrFhpaj68mpkEVgByDXcTMAMd2NaR2ihkppPQyn4wsq8wU4ihdO3KT8uYnpOm0Y912zDV3AizJdr+2lGouMZ3NBIhRckPlZ+olQO46YecPK7z2HdWBe9+jbnm7vfOxeixG+w2qgU2Eok2G2vqqzj39NXWfskQ++5xKvXlV+y1xSkbsumAqad0q9MILaj7xWb34jUfUKK7HySmFMUv49Z7qFsUVpnr6XXUau7TnnndbCvMVwjHnDyYcutCWpaznbnGiCVGLE4gz4CTfbJTZVREcG8c9H6oeiwESHAe4rVtVa+cYrDGwfd+NCQk6MZ2X1JLtnDoM/pn1aAobl6MA6k5rwhJjUmsFq5r5uq+rvp5Qq1BXh21FIcUNhmHkDfX8GhJATuUyRV7YsYvPsM4Y+aV6XWwbDPayX32Htt//08qP71ezV1W+1FC/z0GDfJbFUtRhdjVKWp/9nl587M+kY49JSycNWk7yWHJCHIvEfPKsut/4nJ579E80U27bv20bua+ltfVYuDVVd836vZxZ3Z+4SdN3vd1S2IxDVbGC71rX3ZUmWuCGoNQF3XMCbJfaNfliV9nH0jeWP7LFrV+J7WorlV1aqt6k1sRhXcjv1kr9gBYKu7WUn1GntsvhUNcseRz3UqqQq9bAxSf99fNuSWuDMbWqe3Uxt1MXSzfrtJzW+G26WN2v+dJutVhIz1ZCR+9bwv9IsteIqKeoOfIS+vRwfCC7Za0jEtb/urleDGRxVJFKO/Tm931MzYrLy/eliNLvxfE41kfUWVrQ9kJLlbnn9dJj/01zn/8P0omvOcw5qX1a+u6XtPzZT+h7X/5j7cjNG7TzMQBeKnPEXi6mYhHafGiCrZC3PvjT1gDucF4aaq/DekyR8a1LNu2GvXpLEz0HO5NLRkgMWoMEH7d9NDT2GtviOr2eSmxEz9vGmj2h7isnVKr7QdMqHSMz45x7ZdCyUHfnLbLh57C25Cw9wb99Iz0+2xJvCBS6ilnMwG6iCy9pcO4l494BGEBrWtqUGIHOqd3OqbLnsFVBO0tmFtWzg4itfEWmslKXvOoUGE2XoV9Qa3wyDFUaKMYRPAQwmnv5rrBm81axWeARknT+OZ353Cc0//xX1Gif10ylr/Xl1dghVB8raKXVU9s28wonZtX3qji9X9WpPU7d6S3Mav3iSRXaZ+JA/UFsRLGgLVfUW+9YKJsF1+qa7VR14B0fVf0n/640c9TMeNy8kPyZGMsILWtr0o0HYtYHInHdpgAuAzFrFuDqIZAdPg5SZ6tbxy7WyRKIuIkJhD7Iyq6iVWI/5jgbKpKQdBcwGvbycDBIbafDcqJYlz18cxi9dqiemSrPyh8G05Difh+2d5zrxU6iSPnaUPSSIQ9hh3GaECJ/ZjRRVjtnr+uKZGyfuWSMjTzMq2cgv/Kknvvcv1fn+GPaX1lVOQDo6qv5Mek67po567I1m7brlWkjQFzpLqvUXYu2ocWKrsP+uttnTRoz7+xUduillYIqR35Ctz/8a9Lee5wXM1qbKrRxLOgJDkMC167+riTdICCmiMCVHxrSUtPqHN0wAx0L1aOJh5jru8PEvCRrkPmsXo3dOkVrgjwdiC84MKDTKrirOQ4zuRDwJJ2QQoAYSlGGNLyxVEchzcWBVaxUcl4M1ljuaOpZ4pSddnoCXeNOOMx/zG3HLYzOUKXwPLNnPz+wTY9CnQwI2F0hTgZgA8O81p76vF763/9O+dlv6aa6VWrHWzHGWSHKfgb4Y99ilo/rdS2Z2WRQYb7esbsMiBXYatmJvd01msaMb65ySIuTh3X0w7+u0pseciJW4TFx2NvrTHTNhIss4xqB+PomCpi6likw4dZ1m9K9uMU/dptgsPmGJdAtdyAAVSagOyrSJRZo+JfugJQhiuVrxEdOQhYu0YHdjRwgAzEdnR7l2Jyv5AjZEk/en/KX7ulupIfDl3exSZ8PsaWUrwHRRXAGTSw9tRc5IUexCYSc88y+2Yw5zxgy5EsZcTrBwGaDLqrz9c/o2S/+V5UXjlutdgxrJQPXSyg2w+LxKuZ+ueU0Wi74XnF9bEIrzSVxhNqMzZoXLwx0cfI+3fGhj2vsrX/TVVyz0CUvqEUW8U6DT9zmzRhgOCnFrUc3DIgzsMY+T8g3SBVuozPSazg8mEC2UTn+hWchYf0oTmsgjn8ID0j5GgG2nE0vgw/A5q2Ep6mYUCWz7g6AHbFnCYKkAY+EwUH0c7YE0sV4ffZLfySFom/ww10TAmGYFK4TvpqR1RkbHxJ7c71ZjHYYfbcOS1mYQIvyM0hn6vVaKhTM8lqn1XziET33F3+q7tnnNVPuqFFI2/mYZgPvWTmjjnxDnXd6zDUPVCp14tD35XZF5b0PaO9P/YYqD37Iwndaq27DcXR72rLjSnNe+za8s/xSp1uRbggQ0wkSxNzxuKHEvkkdBGlnD/Q5Ois9yBKYD0izyYwpYDrAxsFvdqmzrXLh8Mhg/zJIRUfO2Z6zT5KovCh1Sf5yF6/3BYNB2LshrZlbhQySQC4oH041oZ4T+Zp2QvLIXA7ls81OXVKPob3k2cvbcklYklE3fpxTP6sgAeGYAWJy7sAMI+PXPK/lpx7Rqb/6c+XPfFuT/XkVemtmCuxndlldXoYSkPpt5tT7BZVZq24pPD5uv+K4FqtHdOs7f0V66JeckR1aoe4cfozcsbOMDy+Xaw6b6hCmm9jJ1qMbBsTAhK4Uq4YgN3houf4XYAPEATP72I7rVyp+PtyHa+8EIIehswA6vurAAww57D56n697QxDHrV1WuZ1Oz4wg2EV4snc3qdt2MA9GvmM/sGORAB8r9rtYO8zLMyhcE6K8DMi5VPEROl8B4gAFI0w5Purt3OXGXaq0Xzvt0CUkoM7HVwKLLj/fS6/GstY56fjjeumLf6TmK99RzYZJ0YyREytz5pwc7s5mBga4Oqy/HtRdJRW12nPaectRzTz829ap7/Ertqs/ti30AYhPnSY7nPwUA8RUJ5oRbbIV6QayiV1YXFZabkzJ33/DP3toYsooC2RKVyl0/Ib09C+ghkKKww4SUC/FfHWK58SJ0Dgoi8WvXeQhPR36XCNyDiKvTKOF/pCUEB7FAB8O/8S6Ul4v5Zx6bDtSDMLbp2CM5QcGP1sQF1+Wzr6gF/7yf2p94RV1l8+r1F8Luc4KLKzZVmWnflA4oJ233a+jb75bxUOHjcoZJ8IiTT6bw+6v9LbIQfZqfvzOyK/dtau/K0s3BIhHdG0JEHGsDmpygMmYD0kd020GM9+QQqKfOaG1U99Tc+FsfHWSBZONalWDsb0q3/sB43WPxXisrHb4JOE50of7yztxAHaz51ZFsGkE4hFdcaKDpeMRwJLR1Ldstu2fA9UxZ44bDpDxSQXmdQke4xQOg2nBeViYLgA4kvLvEMCwhss78QjEIxrR60pAGDuVrsYqKqve1nPTN4lsgBQNwrC7e1a5eQ7ikNl2We/s8Kla9HCDlkE/focA5ntVhcLmYUQ69vAioxGIRzSi10JsieBkSGaSGSxMp31CqNrgK+uEwJoB+uzoMuxo1mqkKTyktT1iHCK5GJbcjF4Tl3EbiQ5TZrh7i9IIxCO64sQyTUDM1XCdV7jN1DNq+bBYksJDyvCHi6WvSGJAmwbLYiScez/BZTEjPBfRtbNENny3HI1APKIrTkzjIYUToAqxFhywJsha3Pa6NncBGCLYQI3pPiTu0AZGHGeTxwHEIYidHKtgI1WC+xfKQlwC8ea4W49GIB7RFSdA3GHuN48EBrqb4ITOjD0cU1W+DrCbYhKfUEYn80R8tYFrHmWxCZKugvDNXHpiR/cOD+KmJ1uNRiAe0VWgIaAyiF3e4wJbABiXHibA8iAB93LKUsxomHJQ+s1CZKFGIB7RiF4bRTcbguiyy7RyLnP8+2EYAr80Dp0Iv8spg2f2eyk2Dt/MbT16dTY3ohG97mQAZZiC/Bu3m7yTLE7nhVzusmjQ5VDM7l8doq/uu5VoJIlHdHUoQ+pmygCc/cZf5pQBXhp1hrhDEv84OP6ofxZzcwo/Lvb1TyMQj+gqEd3MQHrV3mZPjlbZkLvQ0IZlUIvrbI06NEwq0Y/rvpv9tzaIR+r0iK4CASjAySg0gA3PTXQZ4DLRHLsaNt1nDopr/wkZ9GouI8fd4jSSxCO6CjQEcIArDVFlg1eXILYZfEPgQpu8fpiy8MMAG883B4zZ4vj9kehbiEaSeERXmTYBz5TdxeKNAHcC+IbwBX3/XwT64cbz7GJzpI2HW5ZGknhEV4EyqEKvJ7h+XNfd+sDdTCMQj2hE1zmN1OkRjeg6pxGIRzSi65xGIB7RiK5zGoF4RCO6zmkE4hGN6DqnEYhHNKLrnEYgHtGIrmuS/h/KyC/P4/UmdwAAAABJRU5ErkJggg==;" parent="1" vertex="1">
          <mxGeometry x="98.46000000000001" y="70" width="93.09" height="90" as="geometry" />
        </mxCell>
        <mxCell id="w5DdY1P8ZR5gTNYnL2e2-2" value="" style="shape=image;verticalLabelPosition=bottom;labelBackgroundColor=default;verticalAlign=top;aspect=fixed;imageAspect=0;image=data:image/png,iVBORw0KGgoAAAANSUhEUgAAAZUAAADhCAYAAAAAnyhYAAAAAXNSR0IArs4c6QAAAARnQU1BAACxjwv8YQUAAAAJcEhZcwAADsMAAA7DAcdvqGQAAPltSURBVHhe7P0HgGVHdSaOfy+Hfp27p3vyjGZGM5JGOSCRBEKAAJPBBBvbwNrGxsZrr+1dx11Hll3bGPtn7HXEmGCD+WOTJbJAOYzCaDQ5p87p5fj/vlO33ns9GgXESDMN73TXq3vr1q1b4dT5zqmqWzfUIKFDHepQhzrUoTNA4cDvUIc61KEOdej7pg6odKhDHepQh84YdUClQx3qUIc6dMaoAyod6lCHOtShM0YdUOlQhzrUoQ6dMeqASoc61KEOdeiMUQdUOtShDnWoQ2eMOqDSoQ51qEMdOmPUAZUOdahDHerQGaMOqHSoQx3qUIfOGHVApUMd6lCHOnTGqAMqHepQhzrUoTNGHVDpUIc61KEOnTHqgEqHOtShDnXojFEHVDrUoQ51qENnjDqg0qEOdahDHTpj1AGVDnWoQx3q0BmjDqh0qEMd6lCHzhh1QKVDHepQhzp0xqgDKh3qUIc61KEzRh1Q6VCHOtShDp0x6oBKhzrUoQ516IxRB1Q61KEOdahDZ4w6oNKhDnWoQx06Y9QBlQ51qEMd6tAZow6odKhDHepQh84YdUClQx3qUIc6dMaoAyod6lCHOtShM0YdUOlQhzrUoQ6dMeqASoc61KEOdeiMUQdUOtShDnWoQ2eMOqDSoQ51qEMdOmPUAZUOdahDHerQGaMOqHSoQx3qUIfOGHVApUMdOmepQVejq9uZI4XpXI7HOjWq81CuLahDHToLFGqQguMOnUn6fms1FPhngNTEvplDIZew99tJcXx4Pci/ztpZJBw+TcZOLetpovwwU71et3qVU13WajULi8fjdl6tVhGLxSyujsPhcFDvVTQiFWp+UZ4lrJ5DIYGJgIbUiNBRL2TkRqhikNJA3C7xSqcZOnRWqAMqzxR9v7X6fUoE36ynA492UrzTAkzgi9qv1ok29XoN0agEHenxytmRaIvqVkDigcWHtYONwER+JCI4IKleQ/rJ8zDMtFJ0BIuwAEWOYFJnG1g8emGBiv4SVvUdUOnQ2aLO8FeHmgDkyZ/Lo9xbhBuyVMLhQPB16Anp1Hr1ICJaWFhAsVhEpVKxc4G0AEXgowqvM7hRkWUTotVIy4bOtYQcu20jAJRgJCxEa0atEgEtHQtc/OwOdejZoo6l8kzR91urz4Ca2d7UXrg9HlWqLQHofY18nfa205X1iZP/oSCBiEjDWe00MzODubk5bNu2DT09PbjyyivR19cXXCV5TFAd0gJxFLOgRr2Keq1CEEryhBF83Ue8BaNhtE7ld+jsUQdUnin6fmv1DMqF04FJuVw2zVjn7cLPnTcQjjzWiFW0pwwsP+RyTXWq+pTl0RzSIqneH3roIfzTP/0Tzj//fLNQ8vk8rrnmGlx99dV2Ho8TGFTZqmgNgdXbLEPVa6jKnzKdKt0PdAWAUnNzMzYG8UPeBh06O9QBlR9wOh2gPBn5SXqNxEgoasgrGhXguPCGwOV0A6f+UR1h9hhQUTuo/gUgt956K371V3/V4qxbtw5DQ0NYtmwZLrroIlxwwQV0W9DT3YWQVXIY9WoINeJITHPwVu9lVnWR1SwgcXGs0hu0XmrBXJfHmg516FmmDqg8Y/T9Vuv3JxGaq7c8EPBcTS1BJj8WC4QPqVoVcDgrReP82WwOx4+fwNzcvAnB7u4M1qxZg+XLlxNcZMlQZp0OVDrUJA8iHlTa/dtvvx0/+7M/i927d5tlMjAwgA0bNhigCGDWrFmLF9/wEjseGHDDYjJY1KS1RgF1lBBtorpWijmHhiycwKoJcKZDHXq2qQMqzxh9v9X69CWCnmyt2paEgECTwnISbNls1lYc+cligYpYQWP909MzOHz4CIHlOGZnZzE6Oorrrr0WV1xxBYVcj6UtsOrIrCcn1bGAw4OKaNeuXWapfOELXzDgyWQy1h6yWi688EKMLl+BvsEhbL34Ylxz1RVYt3YN0klaITbZUmP76k/trBZwTrBiwFIPWsVf6lCHnmXqgMqTkK+e0w0dPd6101VpexxdP1167fRkjVKrty1RPY30qNTqFGTOKpFQky/AOHLkCMbGxnD06FGCx7Qda+LYg4vG/MvlCgp5asQ0d2SpSGO+7LLL8KpXvgIvfOFzmZbK457z2Cf7nD9x+X6YyA+FiVTHuVwOv/u7v4uPfOQjKBQK1oYK13srqv/lq1ZiE62W1QSTzRs34cLzN+PiCy/AhvUbEInF2K4OO7QIT7VdKjN9+sm4oIUhGp8MtUyVU/lNz/LvxXToB4+einx5JqkDKo9D7dXyRA3k453akO3H7XE8+fjenUpVAoKXy/56+DTxRNXA8piamsLExATmF7IUTlXkKbAEChJU0pglzBRH4HLixAm7pqWtpVLJNGk5CZxKpcpnOaGk8+7ubmw+fxNe+9rX4rWveTU16y5q3e7ZosW58mU8fV5/WKidH9pBRXUsIPn0pz+NP/qjP8K+fftMwHtBr+vRRAzlSgl9IwTziy7D6pHl2LplM7Zs2oJLL70Ga89bbdVbrNKLOnDRk+qav6+XCE5Rs0x9G/i8+Dx0qEPPJHVA5XHIV8vpBP7pqF2InAlqb5RqtWHAIGtCACCA8HMjXkjJ2tBwlSyQickp7N9/ADlaG/59CMXTfc4SKSORSFgaCvdl9enJSSD54ZpoNGLzKa9/3Wvx9re/DaMjgxbeTq2Sd0BFpDr09XcqL6n+77//fvz6r/86vvOd75glqbaR0Ndxucr26Y+hNF9BMhHH+uVrsGX9WqxffR6Wj67H1kuuxGVXPwfDK3rtRXvqD6iUga60m0rRy6mR07xL1A5uHerQM0UdUHkSUvW0g4XOvVMH1TV/LtK5C9OxBdmxnAcCOU2Uu7fTXZjIP4dP5HHYtFdZFxqmOnnyJI4dO2bDVfPz8zbXoesCGQkp+bJWdE1gUm/oLe2aXZPA8s8Q6VjP9cftz5cgVLmc8HHhSqOnpxuvfOUr8Pa3vRWbN5+PRPyxQsvn3lGrzn4YqV2AP6Z9eX7w4EG8//3vxyc/+UkDfYUJiMxq0ZuPulUWCA/TvC3F86svX4Gh/pW45LLr0D2wAhddcTUuufoqZHp6rNalC4TDdURC4iAlsLgNfFt7Hu1Qh54J6oDKk9D32hEdSPDAho8kSJw7HZVKVQMHOYGBQEFWh4afRPI9qGhYS8AyOTlpYbJAPJhIGLUDXI1gVatrdL0FeB5EfDlOLY805FQqZZPGqVQScQq3QiHPfM3ZkJksmxe84Pl4/etfh6uvuhLLlg08DmwEAvRxrv6wkOcZT6r/9jrX0KMA5YMf/KBN3Kv+BS6icCwOGhuIpQjwpQL6UsCrb0ri5Tdcg317juCeew+gZ2AjBka3YPMl1+GyK6/HlguuQVd3jLVeppOlGTeQEXmLqUMdejaoAypPQr562gWESFaCFxJeoIskPGSBIBSh0HeWhLcU5HQsEFC4n9uQBSJ/fHzchrEkcGZn5ywdPcc73evSdwChc5+2z4OuCVQomXjeypd8CS6BgyaElZ7OdaywdDqN3t5eW94qYBkc6DMg27dvL3bv3mVpbN26FS972Uvxyle8HKtWjZ4GNlqs9MMOKqdSezfzbXL33Xfjf//v/40vfvGLzbZTu0T0tnykC7XSDLoTdVy4Efj9370CV122nMZLBDt3n8Tf/P3dqISSSHRvwJrzrsUll7yc7XMVVq0ZRCqZYOqaiHeKjdJV+v65HfrBpNPx2NmgDqh8j6QOqirz2p8AQucS6vJ1rlVXR4+dNGDw1oUNS9HCkDUijVSNLqtE4d5KEZjISbCoVeq11hyH0vaCQc9ycRxQ6bwd2Br06xQ+2qNLwOHBRBPuAg4BiF62k2WiMIFIV1dX0yUplBpUlY8fP4Z77rkHd9xxO/O3gJGRETz/+c/DT7zjxyjAtpwCG56N5AtSOgJMbSNqtssp51Ik/vEf/xF/8zd/Y8ca+pKyEY6w/pFGozqNflopP/HWLvzy+7YiHjmARIxtHua16Gr8++e24fO3kKdywJrVL8XWi27AVVddY8uSu3u7ke5KN58lHmqf4/HhHVr65Pmq3T+b1um5DypPlrtm3/ARWze033p6Iff4Het0jxVY+DkKafECBQGFt0bkdCwLZWZmjnEmcfjIEbNANFyl+Pl8weKokyu+X/brO7lZGrqm1V8BtQuA9uZSqK55iyOZTJqLxuLIdPdS4425cAKKgKO/v98sEQGJgEUvNSpM5wIdMaLSs8c16gYq3/3ud/HVr36VZRizIbGrr74KP/dz78F1115peWhRe/13QEXt5F074LeT2vmWW27BH//xH9sLkWorhWnosl6LIpOuI1Yt4n/+xia85U1xDPQeRW5+ju0bRaHaj3Tv+Th8EviPz2/H1746h0atD5df/FJsufBaXP/yH8HQ6Kh7r0jvtpCv3OQ9rRexljGPcqET33ZuyNQdef7TubN4mtFEjy3ODyW1V0k7tapHMU6tOLrHvbE9fhD3MdTWNg2XlgYnKEkYJAWUfBORpXq6e595euZApT1VK9vpH+M7nipFZIJNB57x22/T8an11DyvBfHZKemkpbdudUKOT2qea2hJw0ORYO5DtaAOrXmMSrWGEPNRIjjIIvCWgCyM6ckpG6LSUlA/z6E5EQGFrgs4BDy6T6AhgNG5AyMHJG6C3s9zMGdB+urQJlToInrj3QS8d8wr8yQXtTpyk+rSbgUIsjC0KaEfvhoYGGyGCTQ0JKK4ukfPSiTi9JmGPds9w5WzNZxXLJbwrW99C9/4xtdxlOCo4Tq9r/Lud70TN7z4xZZmPM76U7VaNVJ8sXwRgpxrjA49Gem9oT//8z+3d1ZkrarepVA0wlGEawVkWK+//WsX4i1vrmGg+xBC5KNwQ203gEKFvMC2roW6cO/9R/D5/xjDzgeASmM5Lrn+bbjwyutw7XVbsW79CqTJIzZ5X297P8X229G65DoqdbZbWNdiBLUqomH2AWtYF2aHvvuIfPMGfvNScMBiLG06XVkt0J34y6fzFUNfKHCiRf25bP0jwjbV6ot6jf3Mp+lvFCnM9nVju0ggqT30vRySTl2dUm5UCxRzNYyNTaJSjmJ6Joss5U6xmke8q4EtWzZhuG+Yj2xZK5I7Uj69/0zSswwqrUAJTifIApO81XJGBtieJHt1bpWuAAax7r3iZRftBkWUA0rVChvVDQGpM1FMWrgDFolk11j+qaVSmWAx614GnJ3DsRMnsRBMiAswBABVAkUum0PB5jxm7ZoErYasBBpFxhOYGFiwWltg2Sqbq20HCAIWWSqKY8Bhwtzlq1Sl8IiEHWjENefRZeAgJ2ukn2ChcAGHrA4NZXnn50kEHLomS0XLgh2AOOCoqn6YLQMo+u2gouNIJGpluvfee3Hrt79tW4pMjk9g06ZNeN3rXoebXv4yrFq1gnmJspPULa+iBgHd7VnVKnOHHkviKbWR/C996Uv4sz/7M9x2223WdjG6gsCjXkKSwukXf2YtfvrdCSzrO4wI+Yuty9rtohCpoFBfQDgRRbpnCDOTvfj2Vwr44i0n8eDRBnqXb8Fzn/t8KgA34qILL8XIsuU2tFaj4lQnoITCDVo9aif1CmelaAt9nVMMWQg5hI4dTYfGuwHpNmti9beWhePjiKeWNJ1a1mZAq2A+RH77sbifVRsQD+zDai6Adiv7iPo5jyUm2L7WdXyyDcoP9X323YYUz0aESgZMYS0V85Q345ieGsPuRx/F/n1H2CfzmJxcoCIBdPWm0TMYw+jyYVx5yZV4+Utfbn1Z5IftRZI9zySdNVBx5CYnLUKbxWAfgYo4Nnc3By6I0ww28ul6x1+ahKGQNvGzU6YHAkHZ5gU8SGjYSqgtcFMezAqZnrZJ84nJCUzNTFtcWSXSIAUWzpJxFoisDm9V6H7v9EgJZAGGlSDIg6PHnqtMamQJEwcKacQpbGIJWhW0VhSeZlh3xs2HmNXBeNoyXWDRRbDRebsVIj5SHiPkVgszxnLdXtcV7sBDwOzgVnFawOKcyrN//37ceccdNrdy9PARe19Fu+nqJchrr72Gz9ZKJVpWBC0NsYQiSk3k/Q6djtTtfIcXz334wx/GX//1X5uSonYPsT5BjTROJfdNr+7Cb/z3lVgxfAwxaqMJ8letSksmFkE5lEORvEasQCy8AguT63BiIo1//fKtuPXOMqbGgUu2Xo8XvPD1uPa512PL1vXo6k4RCiipTPzFXH9Re0nIKa2oy1c7qzZb0w50Rfer74rUU5VWS1g14y9RWtRNSU4WuaP2Q0eqB9WHrAw59QXNS6o/8lS30LF70JcyTVlh372xWidwsM5DWrlHAG+mXcV8bg5T0zMYmxinRXsYR48ewqGDe3GMx3rkwkwOuYU65mYLGJ+ctb4XilFGVYv4r+/7JfzWb/5mkJgjr8g803RWQUVP9k932m07qZHkfMvJJwjxBgm7qI0Z8n4ee4GvcBP2atdGnBUfQpnanEBhkkBx4sRxmxCdm5vF5NQkgaT1xrmATJW+QODJF3KWpsL9cJYDkBZ4yAoS+RVWPpwnNpehKRF3zV13glrDVxQGPFa1a+5DVoeARBaHgMLAgiDRP9hvQOHnScz6oJPpqvsFFnIxpidfz2h3bldhd8xKUoUYcDjgcb4uhcWI9GXoKa4HFOVPcWSR6UW9b3z969izew96mb+1a9fizW96Iy2W1zLfcdY524PPE7iE6Ru4BPXToScmz7c333wzPvCBD+AOArhUk3gqQUuljFiphudeBXzgjzdjw5pJhMpT0IhjSBqs1FztXMyuwGgol4BEeC3S3etwfHYeD26fwhc/dxjf/Y7auR8veNHr8NJXvQqbt27B6OpRZNLdvFntFiIfkR8cm7hRgGDEq737uUP1ySCii8FfXVns9OfvWIrkSufK5wGlWSZ32kbq7BI6+vaNAxUgzXhOpglQRKo1L9eqKDGWYEXkrJdGLYJ8tmjL+E+MHcLR40ewZ99+7N2/z4ZJ5+dnKYtKtFgKOHnsOK0ht4O1Piudz5XRryHvTJqgUsHv/O5v4Z3v/Cnrx+Iv9WVPCjO58AzRWQMVV7AAxnVOJ5nsj0NhdS036WTCjn8urndsPnbI7HyOgDGFqalpG76an1tAkVaJGkdalypYVsjCwjxRf9LARMe5fI6AkUc2lyWYMC7/VM/ylbdKucLKaT1LxORcI9FPJBMmEKz2eKPClR9RKBwF5SzBxQ1DCRQ0DCXg6EpnCBBuCa8BioauAuCwc1kqBI9YIuqGvni/ziXoLe0gD/68nQQaDhQEGvKVNYXRBdciOqbfrFdZLBaPjn8+nkgApjJu374dX/rSl/EIfQ2X9dFiesuPvhk/9mNvx9BQr9WB7veg4gIem78OtcgUE1aa79yHDh3C3/7t35qbpfCQPIpRyifJSJvWAh/80824/OIiUDxMUGH7kzcbZAaJMLkQFVANlZeLer8obIpJIjWKvQcq+OrXj+GWrxbx8CPA8tWX48ZXvAk33PQinH/heRgZ0S7IdcQaCQOqph5H12R/l0WSLorhjekD50nQ0n5NQmxp8oDJgGZZReoZrkxWYgUHsmoR0Qpx4MJYtDxUI5rfFVqrbvRn14KzMC0TdZVSoWTK68T4GBW3Xdi3bw92PLodY+MTdJRtMwtUdgvsi7qLaVapBNcqlFG0UqkUy6hVTQ8PDiMaTqKntx+f+Y9/x6bNm4zPTpUVTvZaSZ4ROouWii+U86XZi6yswaUiBbsAQMNWAoZqMFwlsLDrxTJmpudw8viYbdU+Pj6J6alZ5GiZFHI5VnyVFkeZAl4T5LI8iPI8tzCmowlJgY6lSS5xja48sBFkulrHUCM4ISArSZlTw1L62jVZHgkDhBQtD7faKkpLJRxL8DxhQ1NyAhS3dDfTBJl4YKnY0BUb3gl5Z0loeMJZFc5yELknO8HvLA0nlNx9wf12zvok08k3QOE1S4vnLo7CFb/lO2BhujxwoOQsIYVpy5ebb74F22ixaD5JwKSXIN/21rfY2/XNeT/VT5N/mWiHHpd8t1P9inT+zW9+E7//+7+Pb9/6bas+CYsU+8Uyyv0/+T/rcOOL0ojU9tI4KRuSyCKW8CtUyC2s9yiBxcbn62FUitJOY6iGeunWYMeuOP7hI/fi69+qIpYaxuVXX4/rX/JS3HDjC7F+3Wokyau6z9BMWaJr16mckFUnVYAeIte8TF/lURw5hYopXJylRk78+/KKXEWw59Bnf1FR252oWREuUDCiTT/rtF403KU7XZSIyTpZGOViBZMT49i7Zyd27tyGPXsexoEDj2Js7JgNgy4saCUpnxrJUPakKcdilHkNs1SsnsPkg1DBtufRqHMimkS41oWXvuwV+OgnP8r4bGvKFpFkp5TEZ2MI7CyBSttcCp2EmK5QtrMSKyhpM8R8CbNz8zZkpaWt4+Mnbc5jgaahKsaEPJMoFcrI5Qo0/7TyiqBR0lvmPM9OMr0iysHQmPquvb/B4tq9fKI6tAGJpCzJcqjqYMcKI8XK8dKSxLjqxCac2TgS7zp28xu9NDu7DTgEFgkCTE9fv8U3q0Ogwbhq1BiBRL6erSEHHUtIi/RohfOf9ypMOfJ5UjZdXTVBRnnisc69s3BG1ndPdJMDDXeP7nU17eI0w4Jn+rTlojH3YSkNM46NjeP2227DPXffjZMnThpTv/jFL8JrX/saPP9516G3N9MyTDTUpsT4hA49Mbk+4NpRTvN3f/d3f4c//eCf2jJ0NgMSBI8UweX3/+cQ3vrm1YiHHkUqSsu6xPvLbNswLdkkI8SLtoJLk7qSN8mQFIIICjyuhglGXaOYmM3gc188iE9/ZhJ6n3Xtuitx40tfh1e86pW4+NIN6B3oUq4c25mmLXIKVxBIJ0XLKVtBBAu11rYfDQHpwtIFFZFTMOWcstniZpWd5eIlCwvqYBHxggDFXXJpSE1UN56fzWF2ch5jVITHT57Arp0P4JHtd+LAoftpjYwhTnmfYjNQhGF2BpR3oFINULSxJQhI6GF6eo+pjjjBpN6YsH5qQ5Zs68HuPvz1h/8Bb3j7G3itZaVoOF9ySMq5FNlnks4aqOip6kiesgSFo0ePYe/effRPEghCtDi0UeI0pmemMDs7TfSeQZa1rIrRXIgsCpmElbKf7xAw6a31IhPP8diBj3Vaad20AmzFFZ2sipoag9eNZRRHwp3qWZ0aWxjsiOywEvreskhnupC04akEQSTDazEDlWRaK64StmrHDXdp4tyBh0BFgOKr2QsQnbvmblWUasNdJ4OQd80nU1gYo3mhr3ALc7cFYOMAwlGDVpCYv/XMRfeqxDwQmClvFtYWRy4SdV8tFKhowcJDDz6IO++8E/vZPhrzveLyy3HTTS+zt+tHRpYxvj3KrMMw09RTOvT4pLoVqf5FmrcTrzzIev6d//m7+PyXvuDEN60Q6ZW//L4e/Jd3bkY6sR3d8YJ9uj5K7bVRSzkLPpKjdUxeZts1qg3Q/qWSVUQiQ0EUbWCOlkuiux/Fygrs2BnBv3x0N5WEInL5fjzvBa/EK1/7SjznuVdj9brRIE/uM5NeY3fauzjWckXHFhZ70amlxUNGNjEjpzhLmAd8t2QRXB14cFWZfD24HtwseuDr1grlihQ+DTPnsgso5PLIzWdx/NBRHDl4EPffczv70sPYv+9eGzVZux647PIeXHTxcqxY0ct7G5ifKxN4atixYwp33kUA2kNQItjUyBH1UJrtreXn0/ZgGR8JZmnV0Pn4zq13oX+kFyH7oJ7AzBVG7eotlmeSzhqoyHn0FO3ctQ/btj2A22+/A2Mntf5aZl6FlaatTsj8uXkUijmUdZx3LxyaNkEQcJPhbrWXFGUNHYWjFV4VM7jrUqUFHnLabFFOoKAhKr/0WJaFwCAWTfE+vUTo5zlSBiq2pLe3h8ddyPBYjaP8a5GBVSOLpWM1HnOkUyM/JCWS8FY9OFBQbvin7AVxdJ+uq1+336M/YYaLF8Ths/x97b7AIRqswlKYt2ba4wlQLC6P/bX2OFYGnkv4iRFPHD9uO+pqFVh2fh6rV6/G5Zddgp/+L+/C+edvMhA0oGSCYmTd26EnJtWXATf5SMeqdwH457/wRfzR+9+PnY/sQIQqqEDlRS8APvD+a7B8dDcSoVnECCqRKnmvJs2VylKYClS4SmEjnqKlWY/TpyCMZAk0NRvZ0pxulWBTqQ/jxHgG3/zWOD71b7PYfxC48OLrcONNr8Xzb3gOBdtF6O0eNmUtFhdDUFFrVMgr7GNMtVyVwKSypEsqB/uc402VSuWiIreU219iSvjRPKxSKdVciYBF81iyGaIMZx/ikZyIqi2P1IP1B3uPbW56AQszCzh57ASOHtyPRx68F9sfup3n+zA6Clx0UQxXXbWcluIgVqyKU7HIsf8sUAYxgYbacACTU2GMjTVw+13H8LF/OwKKSs3No9KgxcJ8mZxjRmWp/Nn7/xLv+8VfkDHjGucsUOR/kYLjZ45MpWknZ6nIlxCqUBu7775tuPvue3CAHK7P2I6dOImpqQlMTY6bP0dLJZ/PokhQ0bcmDFCUgniXaWjS0irRzsUIDNP+V1prGWHj0A9FknQpgoe+/03rItlHi2MIvX2jGBhcieGRtdS612FkdB1WrN6AkeVrGLYSg8PL0T80gr6BZejpH0amp4/PUNrU5qjJN0IUCvZhC3esDCh3WqrpjlvllfBwx44snsLdqfMlYNRL1Vs9KSn2Wovf/CFZT3bp6m4JJh/sBZWuuFAfHpzwiq/H9jg68xaewEFCT8CiTqL3eLRqTgpBT3cGF198MTvHCOM4gBN1QOXJyWuQAu9Wm4XM0tVQ6uHDx/CIZtZpeccimh8BXvKSFVizpoZCfg6S9WFyebgRZbuxrvUmNftAI1jC5cLUhhVxh85M9BF+CAYLGOiPYOtF63He+kEsZMfxwENH8ciOe6m4FSjY0kiEu9gn+pUrG2KWFSVeUd+LU+I5ELEf/TsGUuxmuDtfqlTXdIWqkE4yqup3jraadX1axxrtCFufV3gEs7Tij2svvyNHMT89jV07HsR3v/kl3PKlT+Lz//kPOHTgIWzcsIC3/uj5eMVNI3jlTWtwxWVdGB5aIEydQDw8jTSBJUbFoV6ZQDJaRCZVQHdXARdfsgqr16Swe++Ubc1jL1NrVIVyJ0JEWbF8BX7zf/y+fVRPq/fOVhs8C6BCbrPCNSUZyZXWC55GPYQ77rgLd955l21toiW/mqxayOodkTlnoZCZ3UyItCA1Mo+ZjDqSNARNSpVrZWpUVTpqywSNUKTbgCNN4Mj0jKB/YBUBYg2GhtdSK9iE5SsEHFoBcx6GGTbA6/0DK9HTO4KungGkMr1IpmmRxFO0fAggAWjUmL7CGlTP1V2ty5oWp/LIalHGWF46lTpYV2DHLtgFeCBw1C7gXbh+NQfk7nFO4e5XgOF8F9NF8Gl7aj3L1fqpaZgvL8iyi6N0HKjICVQ0ZDhHC2WSwJKlNq33fPSezOYt52PFypW05vR9lnZQc36HTk8eeH09qc5ltSisv78Pma5+7Hx0N44fPcqrVRQoRF5y4zKsXluhAJmxl+vEbVTJ6Kithst0tM7N8TxCxUsTuRR0Ic0R6nm8h/iECP1GVQtWsuwHaVx1zXr0DZbx6K5pPLjtQRw5MMY4SVSLIawYWYFYkkJTvMEEtHigVM0xD1LblD61eIEXM8NHME8sj4q0xJvflFVfDsob9xJ1hFZeiPJI1kGcYJ8kQMdQZj2NnZzCiWPjmJ6YRX4uj4fuuh/fvPmL+Pxn/xF33XEL6rVjePENwDt+cjle9ap+XHlVDRs35rBsaBbJ+BTNjhk0ynmEaQWGq6xn9r9SljKuXEA6rd2rp9DbW8PK1UPsizPYuVM7mPM2Wqup1CBKxRLe8Pofxc/+9DutH9vL+2epDZ55ULGCsZRNciVtCh1VABvw4e2P4hGa+3qnZGpqkkg8x0jkUtO+2KgRmpsU1hWaePXAMojEaG2kupBIZQgAPQSCfvT2D6J3YBQ9A6sJIGuxbJTWx/J19GmB0F++4jwsX3keEX8Tli1bwzir0NO3DKl0P7WxbloxaeIDrRqCSCMACoGIOoxWbchpGw3N0Uhbce9jCEjUqfjj/vnDiLzuhLrzdSTfVYnF8pGbTr+6HlxtRnPk4yk88M354+B+JuBqd3Fcn7IDDB/OvLVZkgrSmbQzS48BCpPA0zyWFktoQrlULEJ7UOmdlZUrVyBD7VqbULrxeOXB5aBDpycPKKpX+Tr31ouGa5cvX4VioYSHHnyAfWLWjP0rr+iiUCmhO5PVWIuBg4DCrBQtwWckDXPJBYhDYluTf6VH2xJ5pa9Q8rAWsoQiRQwMpSjg1mDVqgSyc9PYds9BHDjwCJ/PNmZzdmcySNMqFdPUqbRpgYlWNdnKJqVvHOMErxREa/ofhOYPylFju6jPSwbJKonHElYH+YUqxo4TSMbHUViYxbFDe/Hdb9+ML3/u4/j6lz+K7Q98F6Mjs3jbW8/HW9+yGi94fh/OP7+GwYFpWh/TqFWoMC9kUS4UaKVUaJXoBVbWn9qI9ZhMRNjGVDTshUnYO3ShSAHnb74CDzxwCGPjApUUklSck1Tqfu/3/hfWr1unwZNm3s8GPUug4smfSMgGAoxOFbZr1z7s2bPXltJNTE2gUMrbRJMJdGoIAhCEkjxO0GDopgUxQEYfJCCMYmDZagyPrMHy1QSLtedj1boLsG7DZVi1ZguWr9qAoZHV6CPQZHqGaLUM8t5eA45wVMNhcQKDHFuC8K49l0ICMOUxcM7SYC9VRoMeU7NlNpq7kAajcrBDS0BYqAXwXqWisrpOZ4VVB6Tv7xFZ/CYtFvqLr7kwS8XfG0Rw54yv+yyGp/bj4EzpMqJPQ+e60Z8qlqxBu65/u6BhyipmCCrjYxM2DKl3YQYGByiMVrrJep7LiTqg8tRJwOLnsDzFYiEM9PdTAz6JHQ/fZ/MXvb0LeN7zVyIRy1KTrRqoqJblBCTCDC0tlm/h/qIpDeIl8apWdZHH+awkFQEtU5qbmUeC6LFl0yjWrw2hu3sW923TXMt9VCKOU9mKIJVMI5PusXlGzV8aX1vySlcPUd71YAELvVZRlh6pvoIFB1ZG1pX4WsGVEpCbr+Lk0QkDk+mTR7Bnx734+s2fwn/++9/htm9/1sDlhc8t4d3v3ERAuQBbLwxhzWqCd0+WFuM0W6CEeqnKNgwhRcUszfq1dTV6piZGCCKlIsMSQwSyJMq5PCT+knR5An13zzrMzffjkUcpJ4tJKtphvP71r8JP00qJRwl87LvWJHJngZ45ULECqXHsLKDFJdWR70d79x3E4cOHycQzrDAiOM0+LSkSoCSSPRhdLgtjA0ZXbMSadRdi1dotNN3Pt2GsERvGWk/wWEutaxUBZCV6+pcb6GgIK57MsDOkCEwCEc2F6JOtNRsPtRVg7AUCDpuGk7ZH34XxOi+4PXgYKp9ai3fqUDYJr/vsnGXiucqkN/RNuAcCWYJZ152gFsMqXOf+2J1bV2UcO/O+kTvyQOB9V5uMtyiuC3dx7Mj8U+8V+Tg+SJ6Eku0NxWMz+ykhVC45vWEvQTevtY68SfuLyVLZuHGjHas+lGYHVJ6YfB3JGS8FxyITCmyJgYFeWoBduP++ezA5Non5uTp+/McvQDKeR7QuUKk6vFBstVngXIsq0B2bzwgN9iU3XEteb7iXgjWZn6GWG49oknkewwNVXHDBKmQGItixewE7dx7AxORB21+qt3eE/XAlKuUw9a8YU9J8jlIQD2vgS7xC6ciHL+3mV1+S5cdDlUcFYqXlsnUcPzaGwwf2Iz8/id077sG3v/FpfOVL/4B77/wuouFpvPbVq/Crv3wtXvaSfqxdk0N31xS6UjNsqymU8pNoVCpIaf6RWkA0pMUObmixWqtCL0xLVZUsisTijF+i5RKnAqt2Ir8kNI9CYKt1M+5q3PqdXZjPhtHdO4g/+MPfwdq1K6gAUDmWTGlTUJ5tegYtFdaM5+wmWSu5I3ruyNHk5Bzm5xcwPj6BOY3Zl0psT43TxwkSy7Hlwiux5YKrsG79xThv42VYd94lBJnNtFDOo7a8Gpm+FUilhwkgA2T4DIpVzbWEUGXnNbEtzVudlRqHgEP75LiRK16nhqCNE7TKo9YoswNqKa3eJZEwDfLKH+vrLI/5FAQ0TVBXK9NXE0YUh9frvF9Cw/2JSRjXqoHnDPegYhaJi2Hn7phHFofX+RwBmQGPzu0+RxbHHQTHzunPZbMtLaW8yA/i2D0+zqk+47A8clqurfjSpjWXoncopmemFZHWS9mslEsuuRjpdMrqSvd7Admh05Pqpx1MvLXi5lUUw700t2x4CLmFHPbv3Y2JMVkqCaxe0YUI742QQfRmvWq6rvTUvhT0amcdWQsITBqyTuIuDjVhzbtQvzL+j8bIU/USKsUsNegcErxeJ+BceOUlWHleBseOj+Hee7Vg5gQtmgbKhSSWLVtraUdjzKjeZyGSaehXu/Dak8k+S7n9xf1lTcyz/0v5nJycwf79R7B3zx4cO3KA9XAMn/3MP+DmL/8jHth2J1Ysz+Inf3I53vOei/C85yXRndlPcBaQnKRVmSdSZFEmQAz0ZJDq7UVhJmv7+UkRLduL2G4RgAZLhDE6jtOIrNRKJldiSbZdnfG04i9Bqym2DIePhfCNbx1GpRHBq1/3evzkO99K/tHCD7aHDc/rzrPTBs/CRL0K5p2oVdBqzQsu2OSXvjVy6NBhMvCkjR+qcavVEPqoIW3cRCanVZLuHqbZPsicp9CgaVgnkjfI2Kx6xtd7KGFaF0zT9i5odi1jdLMw2Glr1Ar0XAk/E/j2JOZMYMPoMnUVbJtC+jhtgl1OGrkEgN7Ul0Vje3pRKCilGkFG6Shd9/Y/T5QBhfBeXXK5ku/CRQpzAj24apfcsf91ybh8WYhdcGVRuBMxCqEfxBG5Tu7i2Ln9ilwbtHwSPT+MpSTc3mp1WwFk20lMjLOjUetifep8+fJRXHHF5fbyp9JwmnaHnoxkKdiSdNaZn4tSO6r+pKxo2CVO608LIR7evhPHT+5EMj2Dyy45Hwm2T5TKS0S8yLYzBYRHdQMVtbcbioVWh9kKMccZFk6wYtOxTQkMrpvYbrlRKlihKC0gKldz+WlsvXgDLr5wBOXSUWzfPotdu7Yhn5MFn8DwstW2lRANFqanJdEEOUND5l3zD09JU27x56l0Kpd+L+TuUr+W8zzf/qxWuqfLgXqRRjC00vHgvv20zI9jfnoMh/Y9gK995WP493/9Exw99Aguu7iEn37XhXjHj23BpRfFkE6coGJ5HF2JWdTLWcTDrCuCUozCXn2jnC+jOLuATFcK5TKtD8qbWCwKfSpCc7OsNnMSGblCnVYq+16eSgbzEolJbjHn0RQK5T489GgOt987iWiqH7/+m/8Lq9euQjxKJbxUpVIdrCf2/flZpmcQVFSg0zlHNqlN8gJIE2BixL179uIkG3FuboJCS5YAkExksHzFOoysWItEl7adiKDC+yrk2xo7iNaN84iJskIltG1MwKVvQp3/rlPJkpDF4UDD9USGKkrznL6Bie52TKkOY8NfFonExtLknfwG0xIDSqMRSGpexm2fwT/G8c/3E7NK13U6V273HEd2GATY2nc7ZP6C+4Izi+OG3U6lVpg70m97LCXiErL0+CO/WS5ea4IojwW+WvmlvJsmTb9KYaf90mwvNW3KWShiJYXe6Khe2lphwK1t9h+btw6dSv4drXYyYSyepJKklxH0jknPQB+6hgbwnbu+ibvunse6tWlcuGk1ASWPcF3b5lRRyFeQ6k8ju5Cn4pUif2plFtMjD6tPCHzkbECZba4JfhP71v5SIsgtbDQb1ifwdKfIz/mT6OvO4sorVmLZSA0Pbs/i/ge2YXpuGvlSBd09gxgZ7XNtTT53eVcaUlDc3Iqd63rAEOIvOT1LF3nZfN/XnPO/Lob7EwWJkE4XZisl6Vs5KBXQoGNZTDYINU0uMF6FMoJ5Vdf0VFFUZr/MaMdPTOGhbQ9gbmoKhYU57HnkPnzu3/8WX/rsP6Be3I/nP6eB3/uda/HSF2dw/vp5pKIHEa7RKgkVkKQci1JuRVmRypnqWPVQq6hPRAyEG40ywUfQxQvKBJXghl48UWzdxGsaxSplKfuoNIfjNCsr2i2EUSO9iGc24eZbj+Br383i53751/Dil78eqUQv5QrBh0q1FhG5SmjVzbNJz4Klcno6VaONROLI5fLY8cgjOH78KObmp0xAyfJIJrvR16/3REYQT3eTXcgQ1NRqvF0ve0koqoHEzEJ1rZ7QEJd4xmnwjvzTjLfaGMqutPO0XWudUMzarx3Tawpq5l+hnpm1Ss0/xRR95cXOdR9j6N/CFNtdt0A7dp6RHQeAENwn8tFdp1QqwYWAFOYi2YkdL47hz5zvr1q2jVxe5alt3FBMMCnLupU2baBCK3J6ahpzs7MWZ3hoiMJlxF6I1EuikUizhjr0dEn8SNeIaGi2gdXnnUdtNYJvfeMWPLxtEpdfNIjVK3rJ73PUeueRXt6N/HSWgNLF9sk5kGAS4nWxonOO96yVrdEV6gSQ8QKDLJiuUqghlSIw1XNIJcPYsGkt2ziMsYkFbNu2BzPTJynEtHhgGP19g7aDg+NPWkKBUBM/+vQ8iTPcO1iO90TuPueMc+yyeFy2VxCmHFqYS05zlk6xcld1XectZYu/9gidyXqShaZ8UehS8SsWaUHEwqw7Cm8Ka33W/9DBcTzwwAMo5mdZ/kns3H47rZK/whf+42OULUfxptevxM+861Lc9NKViEcOoTs9jVRsjjWYJ1gLSDQvJUWSEoqPVd27ssXpa0RFgRrWtIK6ulGZ1AZWUpJQ3e6NICaQrlXYxswkb4nRKqlHVuHRfTX8w8d2Ye35W/DWd7yP/W4z7w7R0nQvcVPLZXK8V+mfBTproOIpUPitE+RyJTxCUNG3A7LZedu3Sx+piUSSiMa70Nuvlw8HWWEx1KVp+FpTw8hJQ1IjsgUMbOySBQRkIRa/FR74du7dYlJKLj4d//VUYwgLlwXD58kqkU8rRBq+BKvS1J+RjoM0glzzXJLDjprXjILgVljruv3asZ22jkk6dtdZM8pgcM1+7VhP9mkpyOWl/VxxBCDGzyyHzp1l5zRRxRGQaBWYnNteRLspx7Fx4wYMDw9Z3bj66dDTJjGy2oD1nSsVbXXWmjWrcPLwCdxz2yOYPH4MV12xFv2D1I6788jPFoxtNCEfj6XUyjwLUyBRKdAmkXJqW/ULto1N6tNc0bmYQGFGjhUQ60tjfqpCq7OL7Z6mEM5iy5Y12LxlENMTY7j3Lr3gdwD5BQJLz3IMLRtCJE77QLv0UrjKOnKMLEuBvs7V2ZW+gmUW8MHuz8YPWk7v1TA/NhxtsZxvYXYsAAmOxetMMGRDzrqmxDU3JQjVwoEoI2p4KU7fCe9ypWbLdQUsytfUBOv0zjswN32C5ZnAN2/5FP79E3+Gu2/7Ei2AMfz4j6/Cz7/3YlzznCS6u04iFp22hQ2aRA/XWddVDTkyDwxjgCm7Kp26U72RpJ9kfbuhcX1pU8u/mVFHbb5eXJVlaqd15pcAHYuzTEy+wGqNpUYwMT2Mz35+H267M4+fetev4eU3vZnPUrkIarrP6pfpe63iLNBZAxWN0Usb1rc41BEkxBZouuubHceOHUXWtmUp8poqhyDSiNJaGcay0ZVkXi0tdnqXWsqEo1rQfAW5zqL69QLTkYVYvFZ44Nu5d4vJ0vPX+d9qqzYwoW/HFL7a/0oMLuHuh71cbN1vqS069mSPMN9KFgS4wPb8+usGSjxuS6HpGaYEeXNB9BXXToMwnVhAW4nsXFaJG/Jy2ia7L8vlSRbLzPSMvahayGuPNVk0IWzdehHWrl1lSarTd+hpEnmnVi4gTCDRu1kJDX+Q47vTPThvzYXY++gDuPO2o+Szw7jm2nUoVycRTUjzljCLkg9dm3mBrVAd6V+tKECR4BPO6NjwxsflifpjpVCmQIsgGumi4kB+RhmZtJY5h3HhllGU8uPYu3saD9y/zeY9+4eGCW7diKRijEuNWRZBABwGINKgJdTV0R0iOPJsJSxwrOfIMsq+pFWaBAE5Hbvzqp1XShXo89WKJ75VuPq/VncyGqo8FljquGxDXu65ytfYyTFk56ew/eG7sG/P/SgXTxJYvoRPffIv8MiDt2P1SA5v+9G1+Jl3X41LLooRRA4gnZxkHeQo8OfpZEHwuZRjspr0qY6QFkFQsov/rXhmoQhQ2CYMsEUStFRcJn0c/QRk4U6GaaeEht4JSlPZpqFSVR+Mnofv3FHARz9xAM957qvwth9/H/oHlrl7DVwFtqxfDZNIAJwleub2/noSkiCyyUk+XXwRZWOcODGFr371a/jmN7+B7TsexJGjx1Aqk9nDXew0/bjosufimuffiO6BERTr2rFT8xmBwKMADQmojME0ZOCGDfQcLyhV8SaIPQDoz8Icc7jj4LzNaTWX4tv9TN81lw931+w6yfGLPiLmNnXUthtuMtbd4xpebe6OfbgLk7Pu70RBwBg+3O63IAp9k9ruXJ1FQt3H0xW3rl7XeU3HwTUTLzz2Q48KU1oO/IL76ccT2ppF3+d3OynbC3S8oDypTh564AHcd9+9OHzkkIHoypXL8d6f/zm89KU3Ql+DDJLv0NMi8l3dTdRr54hwOGqfbND29Joi+MQ//Qs+8Ae/hNmpGfzBHyzDjTf2YrB/HLXSHOpFIBXvRkUrikhqBseTIvIpteG6tGkeS+CK0UyIiTNqUfYfTerXUa5pN1ueN/SxKYEBkKfFVGHbx1MrMDM3hL/7x7vx759lGrSMnveSt+Hlr/1RXPqcyyno+q0v1ghGsmTFLxGzEly/tw/pEQCsbzFeVaCh+Lzm+hIBo1xiuLZ+1wfyZDE70rHiiRe1/5/4XJ+UsK2EWGb1tUwmhXS3Pj0RRSqdYRwty2Ux6mGmW8XC3CwmTh5BuTCF3MIxPPzQt/GNr33edgW+5mrg+uetxitvXIdoaJz3lgnqFeY1yzQWmIbmFoPMSKTQSfwIK+3dLtWpPptR0+QJleEAUGpqONuqvsi+wfrQPRQZZrQYqsuxTRjAS7yB6oGWEEfrmM0BmZ6NeGRHGn/5l4/i0JF+/MmHPoWrn389SixYlOCvx7p6ZjpKwDX4WaGzBipiHpvYI6nBhS9aVvzQQw/jG9/4Om674zvYu+8Asgsl1rdWemWwccvleA5BZWT1BiJ3HKxOgkqYabEIcmS2dlBR8zxToGLx9IwAVESKq3xIIGiSMEZQ0YopfbFRzC9B7oStQER5IhCaoPZhbBCe61Q1w0MjGycO4viwxaDi4vr61KXm+LIcgx3oKG33PMW3czqXL+e7MC0XlRBQHl260u4cILkXPvft3WM76u7a9ajtwjpAQfKOH387Xvayl9JaWWOrijr0dIk8ZHXv6r9EjZy1jgSFpIKK2Qr+9AN/gL/48z/ACBXVP/2TrbhkaxYZatI07wk+MVMIRGxKAw0d2acfeCJXC2nzSYaKZXg9wpNwPUZH4CJfxrsatrOuNkiMhZMoU4BrAUc8RWUulEA4sQxHTibx+S+fwEc+PovZAvDqN74HVz3vRZiZz7M/NXhPGXlasgIGKR7+m0ZVAqT2j1M/qVUqtrpQYW6VofpTjcAoINA1ghL/xHfqcx5UtBhEoCKe7erSPF7EnqPdtbu6khga0qco0ujrX0a/H7Godh2P2y4FM9Pj6OmKYMfD36X7li0GuuxS4KaXb6G/ihbhHGK1Qyz3gllGyoOqSZaglN+gOllLFDk8kegRqfs3tJMjQSUqoCDCaBl3Ta8taLPPsOZTtJiIfYpOW+aEVe8CbZLq3e3d5tLSWo28/Pgy5Epb8L8/cCu+/jXgN37zr/DWH38PokmCpICUoELpYfeJdK/6+NmiswAq7nECAv8eiAeVbLZIa+Ukvva1r+ELX/o8Ht25G9PT88ylFtWnsHz1Jlxx7YuwdtNWRNN9BBVtX69lxExTThpMIPxlpUjsP5OgonAf35WJx0ynHoCK31peHcB9ClgTaRLMAYAYqIgBLMW2Y/p03pIxQa9zO9ZV18nsnMeWJm9wYYorS8aPS7eueWtE9xsoMdsWxmOXL3euCzqPGTLYDYzvtCFRjD1L76o8+ugO20ZkcmIMXek0rZSXUGt+CZ773OuQ0p4THXpaJG4qlApIJpLkA/Gm2s8JDW2Pk0glceLoOH7rf/wS/u0T/4oXPBf4rd/Yios2FTHQV8DE4WPo7fEtR1+sT5+tTiEnx67C3iOLRZGUsg4jtFLCNe3QXUe+nEPfUAxlApi+JJGm0oBiBflsFunBLkzN5DC4Yg1OTPbgY/+2HV+6mbIvtRyJ9AYcODyDYqlKgecEckX79tUIDnXtHK6+oRcvWSiR8kZneQ0yLI/RTTGRENeKKckHx7uOdC6yUbUgPOiG0MdHKWdVDBtxEx+n0j0YHBg2Ja9UnMOeXUewdjVw6cVJXP/C9bjmqmFkurTo4Ri6EkWCilbWUY4Qm4lxBHTKoAQzUisw71WW1ZI3y0SPZbc3EaT36jTHQclkGXBWCuWQLBAhCclAxeqb8kGWoUYBXCrMMOMpTZahwqBSaBmy5fX4ws3T+Mi/7MFll78BH/qLTyLZFXd8EXX1WKsyLRZcq9fUhWVNtVXXs0pnDVREAgMJMc9UktsLCznccstX8cl/+1c8vP0RjI9NkjGSrOi4bcdyyZXPx6aLrkCmfzkrXU1Ha8UGiJmIQCUQ9FqRxeZ51kHFxn0JKrJEdE0UZQvbZHYTWFReAYPSagGH5LxIHqMEnSUAIJ7o1Ie5exgv8AUMLkzx3JCWC3dhqmcfVyTQsHP96dhcC3TkNHSnUxXDlhbzosoqwNI+YHv27MZ9995tc2DaHuLKq65wH+96zY+gO6N5gA49HVLtk4usbeoVvefg1OM6NXkaDWp9uii2P7QHv/iz78L2bd/F634E+NVfeg7WrRxHpHGU/My4TKfZnPKUBsVdnUyh79s3NLEcKDheyIVrmlimIE7WCQwlCmQnpIt550fJwwVaIKm+ECZmG0h2DxOAVuDfPrUL//RPRRw4oGeQKMzDbYCgdPTNj5S2G2EZiIsGCApnks4xboy+DS8xa/qiYU+PvmWUYniU6YSND+XLYkkxEQlSAZd43PiVZalSsjYqjENBW2FmBHDlMuGM/VPfAho7OUdAieO652zBc65eh+6uLEqFfcSMWaY/jzLNA9sFmvUQtT6hFwq1TRGRjhWlzwHopWpVro1c0Q90WmsXDUFFG8yTisHrBiz0GcVIIO+sFO3txVa2pBgQWCmKz0t0y1Csb8bt95bxB//nLvQMbMUH/+JfsXHjRVZXFSoeeldIk0ZqV83B5VnORILtqOdYas8+nSVQ0ZvYGh4igwfAoo9rSRCWy3UDlY99/BPYuXMXJrV0dT7LVkigf2glVqyliXr1C7DqvAtBw4aVGSdjJchANIvptP5b5rOBAZ/zbAx/LYpvlgrD2CvU9RVfcdVx9aJTij0qzg4i0FEHMBfkww1BUc+hUx4tz3SKo/sdYATnFuDTYHjgK1jk3hXRdXetBSouQtMyURj/2udd9MzmcB17vk3+MSu6ZhYQw7UI4NChg3j4oQexe9cuVKplDPT32fDXe9/7c+jrTVPDC+bN2kjtcWpYhxYTuYHcIw1UwyhsD7GBNYAmecV3mk+kFUEZd+vXb8dv/upP48juHfjFnxvGf33fBRSG2ymsZmgsNyiQHSBIyMRTYZR4LCVNHKrdjF2avM7kBSyaU5GkbGgOwIScnqvnk5QVnlp2ZPGEYyip38YGkc324I7bT+DeO7SrOJWodB3pDIGhK2Lzc9rVOJ6IECjitBqiVDoS7Ach9gdZETGktVWMFgYQJMQecb0dbtI24Gnl0dDGgaD6mMtbW/5czkhuAZDyqBDbSYA8zN7gnPopBTGhlRBQYtkLdDnWatHCXLKsB151abo7W+k730JUJzpRPuycygAPo+6UdaTnB04BDFddyxLrShIE1ZfKRevu6mayeCgCEY73IV9ZjQNHl+MP/+8tODTWjz/8wEfw8le+hn2thpS+7EqZETzcyiqPuTdSD+PpWaGzBipVAoA+ktUClboJsgpr9Fvf+jY+8clP4dFHd2Js7CRm5ubZIGS+zACGl5+HK6+7ARsvuBKFqlaHuw0hDTzIaEL8dkF/tkDFOj/PpcLoXLJaFouARd+jcMDCaNbynmnJTAYqFPN6nsIZwcfx8RXXQEEBFkfhHiScr7qUL2oBShDPwlw8neuardZphvnrDlTM5587d2kp/ZMnjmPno49ix45H7Muc0hxvuOEG/Nx7fhqrVy1nOdyz26kDKk9O5KIAVKTxsv6MNcgPwcoh9YUKnVpleqKKT3/sn/HhP/1NVHLj+N3fXYZX3jSCTGIc2bkx9PWR76j9l+bpqz1o8edyhKRkigKQIiisr6TavwMWk9UUxmxre6z4WM5ngyS2DiFJftECgjyFfZzgNYzcXBIL073UlLsRSS4QbMoGEma1W3lq7APioToBMUd+0vCvVpaJ19W3qtZXzNKneBSficSPLV+5UHq6x5G/3k4SzhL4TKgp1HWnciHSAFWYhXLvtTEffK6Oxa3ssrw3bvWsO1z+XL9XyZsJm9NxkDKBWGCsUE3Ei+y5dC4F/bBf8bmJeALFbF4ixT4hbMnwRgFLFf1s37U4eLQXf/qh2/DIngje/d734w1v+y/I9KWt5QV3hmPBc+x+VoRqU3Q2QeWsLSmWwJXAMQYVA9u5q4YpWieHj+jj//P25nZBqhZJ20/LZh5epnXxKxnCqtU3TtgaSscJ9mbzGZlgb5KOLWJbeODbuXeLSSzs4tPx3+XSnS9OnxSkrTK5U3ePfHtJkk6fD1VZda747WR1QV+WgB24H7vPx7T05RvweAri8U/pqipdXbj4zXvoe/LhrkT0g0s+jo8q38KCcwWo7WQZ6qNO2mRSu0trElYfCNq48TxaKj0Gnu2g4tP1ddOhxyPVj8CfArhZV/RNGw20bxMfEaRpCWw473xMT07h1lvvxNEjOaxcmWHYalrwZRRLOZsXUNWbsEvEKU5jTIBKgv0xHSata+6pIj1BzwvEqUCBp+658rVCTItQElSiqqiUykyxglRMb+KXkO7OIh6dIoDMMtYs056jm6cQnKeFMItqeYbhsg5oGdRlKZSdo2COUChH+Ty3t5kTzgZ24jmGaVWZveTMjCjcr6KST4xy4XKU8RYeXHPDTZQYQViMkWlrMUwgQN+V2JWfJzUmULN3SggUulHlt4vsn9YmeiAd/QB+6bsUbD82d8nu81E1d6KlwnpWqVBCqoctwQyx+mylVygaRb5MhaExiqMnRvD3H7kPt95WxKte+xP4mff+N/RSQ6jRmhJgaOm4PU+ZsgaUjcK8WqjPydmhs/pGvRcu7b5cLlfA/EIeE+womgTWChJFkTWjbVGWjaxE/+AoorE0MSbhtBI1GuOca6Ci2BYjCNf2LtLWLUigwHh+2EuTsc3tYJSunItJ54DXp2W0KI7IHdvz7XjxteZtPrztXhfm8tgiHbeVg6fNM+ZZ5dAKHH1fZWbGvQjZR8ZftXIlwWXAvgwpq8SsPJLSPtVy6dDpqSUcNETFipepYLVPZxKL4qVaRCycQKYrjhUrVqFYnMBXv74DE+MzWLO6z94Zst2IS1mzWGQ5VvIUlFKqTdelb8NcbQ0bNLkHEXdNFyXKdA8BiSJNe1dpPsT0QFmfkui1PMolKRczzG6WvF7gpSJ5Wrvsaq+rEhOlBG3QCpGwpi/rxCwUpuGsFDcq4CxtyQOmr5wIQXQcOGn0umZ+UDXNMDkJcAaK3XRZTu8jGxDp3JJ0cRhszh+o7N7CaF2Uz5sEq3bu7tOPaydH6nfuTPaEnuTIPYlhbEfFicW0CIBgxjqMpUMo1aLIlZIo1weRK67C333kQXzhKwt49evegl/977+P/uFRtrgDQKVuoKLsiBSg+me6raD2XD27dFZBxZMOTRDyQMdV7TDMVj1y5CiOHT2MhewcY0kDV9wo+gaG0dM7bN9FEbBUJaMtPcWRudqixwpJOoa1wgPfzr1bTGoqF5+O/y59d744fZJPm73NYijTnuxa3YBDnUcAo4aXoPXDVrpV97vSBGQH+mk9uUnuhuBE5I4fCyoilcT5zmu/7q55Z2R50jOVMR/k8iBfoKKloPpSp7NUyrZNS29PN9atW2M77KpsVh7Gl98BladOruaDUfJg2alJRxMsUjy0NYd7B2p4WT+WjS7Dgw/fi7vunqBwH8fadesxPDrIOi+T33L2LRDdrnTDAgd7gEBFyprSdc3cFKiUvOYzMNRI8kKCvjRtPt+GrfSuCQGFiUZCcctHJF5HPO3G9vUmuDmnWivHBBtFomDVbrphWl3iD/P14T35dLyu9zqqBJ4qJaeW5GotjjmmYy4413f3m9cCp+e4ISxXniZZ4ZQRLZTWmBMzZ/VK3uRzLL53iq8rPOa//ejYiHEl0AUUul992PU3AY4hNsNZHl339+iYpFO1XTiu+WNaZHEtqotgLptGpm8rpmaH8KnPPorP/Ocsrr/x1filX/5trFi3KVBEaSMSObW6zABLj2zmSXNGLg/KSwsun306q9u0eGHjq7opsATfbPBdu3YTWA4il523F5tM1JJLE6lupLqoCfcNI57qkaJERtC9BBVqPTbXEAhME/BN0jEdw1rhgW/n3i0mNZaLT8d/l0t3vjh9kqUdXJVvl1VO/QYB6ijMtADG6kBRLC1dpm8WjIJ0syUQeO7c4ujUihlcD6458mnqurpYO+l+697ulPSYMrSRMWbbZZ+uXsxTPgWQuWzWVtXo3QNF1nssF1xwPlavWmkgonaVkwbaDjIdOj1Zzfg6p7BwwoHOPLcAREIlGtayUiklFKbU+keWr4C+dvrgQ3firjvnUKmOYd2GUVoxvVhYOIYalbXuHoKQ4VQAUgYoDlT0SAlCc4GQdU/mn8CEAW6oqIo4NW3PRhrK1fsaZb2LwiCBklhYZJYMSdaRZzO1vd7SVx8wy9yezGcwsjmaFPrCZFPAKw3JZPmB83Mmlmfv0xmY0HlgtHtF5qskEsb0PdIxL4pj2zoJRIPnGGjIBbcucnoQf3Ssp2puSPXofAtkKMGRx/beicV1zscvFhpIDcaplLH/0ELpH74cx8e68M//ci8+/q+zeP5LXoFf+fX3Y8Pmi3mPVoxGUWf7yfJXKRzR16Gd6liZtxbgmeLp/NmnswgqYiU1hGtFL2QkcPQmbKUCbN++HSdOHEU+l0WpVLAm0cuOhHmbtB8cXoF0d79ZNUzA7q1pku+sg4oYR51Tp47RdI/CF6fFGlDHCkz+dgopjsULyN/TvF8dSPe4NP01kXu+fJemPTe4pwUorr5a4c4XtR+LfLz2uHIqk1aZFQsF+7Cadi8ulYosUxVbtmyylyC1zNPiBu3bDi4denyy2lJ1m1SkMw24xCMJDdZdg5YGr0nQiN81LKyh4DXrNyIe78Ldd34Tu3YWEImdwPmbl2Ggv4FEbMG+gV7IN+xzuErXgQf5UD7PtZpSadnqLyP2TfY5N9+h3XU198F+a89mTmhZ6INSmnfQey9aPGaszP6reQ3e5uY6WBY+wpxaPhmPIhYNExgp/hionZG10MYNhekdL1nveq6uy9cfhavlhXlnmm6IizE0pCSLwa4p7+4FzTrNACuLKTaMbw/XjR5IlTmVXaCiunCOgcw7n2JWiNIVELn03VUVRAfia5deM4xkoKwm0jNUCRaP162G5Sh4ZcGxL84sEFy619FSGcVf/c238eWv5HHlc16M//obf4zzL7ycfVx1wzv4mFqZdc0608q1UESLNpS2LCJLmiQ56hYWuOHNs9PHzmLPZvWyok4lJ4AorOJkIFZgKpVGWlstsPLULiFqMPncDAq5aWpeeaYizuU9vvMZo+n4HCBraFcmOcsfnbQpdUYFacuKYqmMYllvG1dsMYK+NunesxGI6lgWgdJQhw2uMUxpaghNQtrmanjNvlSpeKwWbYVt8X1Ym69rqv/m+WMc0yXg6bPJ0ihNq/Q+E9c2GooTj8XYRvpOdpIAo61dagSYeZsPy+byKGufJqYn6lgn3xstri5xg+8wvKBDVmsk5oYhJYBVywLrt7z9x/Dun/tlFMgDH/tEFZ/7/B7MzQ2xrUeRzQNdfRr6Ur8ROPCQfcZxpsShzu0JRk1BGghgC7NzLRMWsGl+pUxlwlkWCicmGGjFBDiMrcEmbdMSpZOA1Nv2VVkqVc2nMF0yodLUMBp1FPPtGXqceFS8ao48L95kef09zhfwKb58hrbxtfn84Z0mKZiMqzqWxzmdBZWpFA0NXK4lHqXcyQnMPHC53CkN3ukdg806smGvYPEQ4ynVptP1IH6IinOumKRSvAknxrvx5//fLfjcl0q4/JqX4X/8zl/iwouusvdqNCIgEoDHNGLHhPTtFUcsnwUEpyQn/dw9Z4vOgqXia4BFtwrTeatWJHjUAIVqGUdPHMfYiQkUc2XkF/IoUSMORxqo1KgxUdMZXbUKXd2DtGrITLRe1GLa9iFOzvSavxPmnqxpFdgWHvh27t1isqbz1/nvcuvOF6dPaqbtnC+dLAQL5786gXt/xR2bECe3OzBhZJImKs2CYSQBhu51KSotd7yIlFhAduTP7QY+j/7i+3yYOxY1z5suOAgu+HK58rDrsJ4lUPz2Glqtl81m7dY1tFIy3d32rRVtVyPS+nrt3uxX+S2mIA/2689+iEkVQGee+fpTPQYaqAs0Z+8YuUMKc30qIooNF62i0JrBd771MPbuKGHlcDc2nbcemXQZ9YpWY7H9KaS1F5a+WJqIs30puBrlGtJUEGQtmHURpOs5pylIFUJJLqcIEUa23kwGjhHglD0j+iZMgz/1b78U3hI+DQVXm7+nkhVd6ZivEKXVckpe1pRWd9kKLz1X99nN+vEp60Rl0BFDyNMORFiSBuWJ7gvL5JLmL1ClTDEQCgCE5TTLzp6gcAVqr7SEvXAZjcZNxlmsVAyVUh0UY+jqSaJUTaMRXYcDR3vxV//vXnzmPxu48RWvxn//nQ/hvM1brFxqF+XQyukwzh5hBbQTgV+r7V1d+Gs+8rNPZ2n4q1kNgVtManB9znNudh7zM1nMzcxjbnrGDa1oQJiMk8xkMDi0nKAyzApPsZ4dqAjShVUmxJWWCUJPFqLAtvDAt3PvFpN1B3+d/y7H7nxx+qRFaXs6NYzHwak8XRN4WMqOM0jqgDwlA5kWqls8MCkKff0ZCOs4OLdUfBqK20atuErCgUqTgjD9Ko46mUul9QxPuqZwDUvIYhKgaD5Fq8D0uWE9XpsKDg4OYt26ddC2+CKloXdwTLO2juHJPbedFp/9EFOzInTQJix06l1A/lQ6eVdXCj2s//xsCQ/dvwOH909jZDBJsO9HLK635bM2BJPo76e5TKUt17C33WUp5PMV89WQlrwlzJ9Fzod7z/15USbXPGhzxps6Nmq7cIo7fehTdU7Me1vBhzdjnFKGwGs6yREtm5YVo+3sLar1D0cSMwrUvIkDeZ1qZZbiSdCH0KUtAxo1Kl0Fu19fzJTe2zs0gIkp5ix8Ph7cXseffeh+3HY38NZ3vAO/9hv/F6vWn2fwpO5hj1HiIn/SDPC8ENCiiL4Vzg6d1Yn6xyOJrAqFlczr7HwORw8fsaXFhUIOlTo1LVZYLJVBIt2PTM8ypNJ9FFLaHl9VKTBRszgB2y4MXcp0DGuFB76de7eYTFj76/x3zeXOF6dPWpS2p1PDeMxzMZvCZVXJ98cy7zW2bJ2Dpq6P15oPkSffp9vyjU4XRmo/d8cWSyc84tPoN+PoWToOnr2IeG4T7so3/3SsHRLce0ULBA337kNvbw8u3rrVBJyStGWiVnsqe1uHsDC5Fi0+69D3QhKj0s9Xr9iA0eEV2LvrUTz04FFMjU9h5epBuhEkMlXMLBBYIlLUGihJIaeMlEYc0aiWpXTmW6Gp8JzLxDza3IoN+Una0FOFNNz7ObJkJGPCvBbhUYSKruDFLVmmUosyIo0ySsUS5VPEDWETe+pE8YmZFOLpq/CVWxbw1//vQezZD/zku34B7/vl/46h5SsJQq0vpy6BmjotnbOgorFEzadMsiPsenQn/TFWeJGgUrEOo21bIvEuDAyupFY8ygbW2/kCIjaeCV+l44WkJ+MM/reHB76de7eYWunQ8d81tjs/ncB9TNhj4vG4Gc85HXunYS+Bisj1QYpiz2E60H12r4j3BOn5c/f72LBFfpCMjltx9RCeBeDln+3C3L3yTSOlKqV8ijSXIutDgDI/P2/vrqit+vp6cfVVVxFcui35pva1CFBEFuoOA1p81qHvjUK0RABt/LlqxWoM0Bo5tH837r1/DLOzE1i7YRUyfSFEUwQUWjX6UmM8FmwfFK2yHXWvS+dM05IAFZKA1oEK/3VI88R96z+wTFhv4mftFiBu1lChOYXRr1Ua9jXJQpknvKWorfBj67GQX4+//Yf78Bd/dYiybBjv+YXfx/t+5X8i1dtvQ8my6jU0blsjLVE6J3MuttN6bO0HpM3kxOxJmpOprjRiMTdOqa249V2EYn6Bja3vfpABNCi8xMgLa3U2P8wkpxc9JZzz+YL5brLbXdc1P6Gu2/2xWTkW5pwNTTHM5mpkVVjc4F6loet0Pl7zWhBf97lwd+6v+7BKVdtqOAAXsHR1dbG9uiyf+qTt5OSU7Y5QyOs9CVdOgY/y1qFnkFi9KX3el10iGg/jple/DP/lvb+EZSuH8NVvA//f396LPYd7EE5egGKjD5VQikp4CpMz5DXtSZWxJH5oib2HLKxJfFcL+nVDXXS2tFqr0HhGp8Vkzpc262SXfmS1NPQ+DPvFQi6NdOY52HtgFP/9t76Dv//oPFZs3IJf/d0P4l0//98QSkTZx7VDgfoO0zE55p69FOmctFRE1pD8OXn8JA4dPIR5Aki+UEC+mEeFAlH7xUViKbNSBgdHEI0lKBzVpN6JNZxwbZGlagm3wgPfzr1bTK106Piv1H3cxwjIRWl7OjVM2r6ittJdrMEp3K22MquFUXRZcSTEW9uzuDQtjWbyLm0L8GFtz3aH+nHPds/nHYvinBpfB4vDRcqb8iStSqu+tIurdi/WOyta2dPdncG6teswODCAnp6M5ctbOYvJXWmnU2N06KmT1WYg4OqosG+EsHLNGsQSSezZtx1337uAam0Ma9acj1RiAOW8dsvtQlx7eKWog1f15rvuP/OtsJjPz1Viv2A2rR6986vC5GSd2LdR3DXrFrUu3qUdoCt2byRKfo8tY+2PoNLYgI9+fDt+83d3Y3o+jCuvfTl+74//Ei966U328qOGHrXrsAYIKjQxY9qy2epJbunROQsqNnHN1slT452dmcHc7KxtBTJnY/bUnNnI2p24K9OH3r5B+8JbOBK1Bg5EtvtbJAh1rAjt4YFv594tplY6dPx3Te3OTxW0i9P2dGqYBxGFy4LwIOHIzulkQfjlw7IsWnF1v92tyHbezJ+Ix4vT1HkQ1eIsvm73NvPTft1usPsYYscil46zevSdFfmyQJREsVjE7OwMQaZCzStuQ2CjIyNYsWKZXW/tZdVOClscfrpYHXrqJCVbTRiyTbGqSKZjWL95Daim4P4HbsPDD5KXyjHsfnAOn/zIXhzcNYkLz1+NnoEuLMxO2QpKS+QM09IAFeaz3bdlxDrWmSwWTeDTmnDGCfumPuE8xOMe1CMRVENpzBe7UaiuwiOPJvDBD92JT3yqhEQ6hTe85b0ElD/D2g0bg1VwTIZJ+qHhmF78tjoKApYgnbOg4jRgJ8CyC1lMTU3i5NgY5nmsqTNZJXrLNJXuprUyiO7eAWpk+hYEhZz1BYlBLyQ96ZiOYa3wwLdz7xZTKx06/ru2dueL0yctStvTqWEaM9VQlgcKd02+cwxrS9+Gn2S1MFxavnXMoHPquHmfhZAYZlcZ1k52i4XRBfe1k6VgQW3WThvpugv3j+dzmB+NARuo8LhAUJmamkKBVqXiaNuWNatXYf36dXavu89TM7VT/PajDj0tUlNK7unNd/aYsn1jvpegMUirfwE7H3kEjzwwhcmxGeh7aldcBlx+2SjC9Skkk+InzScsbv8zQUsBVJTDlgsWlwRLiQ1UtNIrInh2773UGtoqahTVxiAq4S6UQ0OYKQzhs1/YhT/7i734zm3Api0X0FL5C7znF34F8XSX1YOWU9TYLnqhVRP+kglSmG3+Rjh27lfVaclB8DlGvkH17kZvTwZXXHkZMprsZVgm023qgdZHNKgN5xamMTs9hmJ+znqReNaP35/L5OciRKd2NDtnERxDa5WVe0lSL0cWaB6XSvput4bGWvMrwgcDIDme6yVKe5GS8byrVquo1mvui3w89nMtcnYtuN66d/H9lkbgezyyfOnjUWF9iCxuL0H29PaaL2A5ceKEzavwluY95rPjOJIfXGj6Hfq+SUM0kTIPtIpQ7zxR4UIX1q6+CF3pHhty2bwV+O0/XIO//8SF+Kn3LEe6fxdBaJxtWSIPSoFw/NfurN0CJ75UWITKnZzC7IVbCUYJzdM4T+3Hp9ITXXuq1P7M07knJLJha86E8Y0t2cdo8TXCFdTD7D8MC7HI0VQCB45m8U+f2I5tO+YIEZvx3Xur+OXf/g5+6/1TODwFvO3dP44P/c3HcdOrX2+r6/QCt76Io3do9J3ImNWt5AHDqQSE6J4JQH+26JwEFSMyZpSNn0wmkGLDaVmqn6jXltu2jUm9amCSz06jWnFv15+qfS9NEtO3O7I0y2VgEYCLvX1PEPCl9dcMCAKg0D2tCXjvHJBY9bWF+/TNUVq0X1vsdF3P0t5NLqz5HKapIUhtzaJx4UKhiImJSQMVTdwzipFAyVF75/Yl+UFov7NNTkChrh2BVZ9RxMP6THAIOx7Zg3vvvtO+jPuSF6dxycW9iESOoVI5QWErZUU8oPbRfY7/lIR3PsyHi+c83ykswvaXcnG26VS+FY+2uyciwojJdE2+69jqgp7DUs2ZVKEvWs7OA/liDcMrVmC+APztP+/Ahz78Zfz6b9+PW24F1mxZhl/57T/Er/zW7+GSqy5HIq05GTfEJaVYA2lyzijRc0Sqe1//S5POWVCxrRhYz9KYtGVLT18P+vv7kKAG3PzMba2KQm4O87MTKBcXeBMb3CaPXTMtZWovgzqBCXLWid5e12owWQFagmjCndLcWRLOsvAdSfEFAu0WiXM+Ph3PzRlAKLztul1rv9/5iiPrRBPzPk1/n0Bf1qRWganvLixkDVjGxmhNFotWnsf/SJfvSEu3Q50bJL4h/2gbFerBWgYrYaYRnAfuvRc7Ht6OoX7ghdddgpWDKxAusa0KGYSrcVsxJkWeovcJBbDa0DtZqdL+fXzxw9kmZft0WX9KlgrJtqcRihixXDpUvVhFUuyziL29VHATXcj09OO66zdgkiDzyX+nPCLA/Ng734o/+pN/xM//4n/FqrUjKNWLjqv5U9W+q1otZiilQPmurWhfuqAlTOcsqESitC2NaA6yIYeHh7B6zWr09PTaV9Nke+t79NVyAbnsLN0chW3emFovDC51anVmdQI2kzot/yTsNXRlwEIhrX3DbJsUCnTXoV2cprBf5HvQaHeL48sZoJxirfhhL3+/HfNed72VhpYWZzIZA5dkMmV5n5ycxIEDB81acSV6IlrqXepcIAkp9gEtLeKhhjLZNJibaRBQHkI5D1x5KTXplQmUcicRaVSQiGhr+7jFs9vZDB4kWrzYIrW1D28X1MYr5M+zTZp79POPPm9PBUwc8R6bnA/Eo4CE5IFFZJ9lrsvyCGFhfhpXXbMV1z2vG9Sf8OY3vxm/9/t/hhtveFUAEg2Cr3ZmpuXI+pWVY8akPkTvKzuYswkRWAQu57BoflI6N3PueVg+K1wvBK1btxabN59vH4HSiiMtY9WWH9pXp8wWnp/T+xA5Y3RpTkuZrPjkNVknruOynCEZzCpXMOxAQWFzLLRYisWSdWSNgiu+txqcwD8VWNpdGyjQf+z1wAlg6NqBRs+R78FMz1Qe1HEFJvpUtHzl98Txk9i3dz+KBbdUtUPPEpkUpMIBSkCyztEjB/EoQSXO4+ufvwIDffNss71IpaapxOXYliV7m778FDDBKRjOeZ4Qqf0f3xI9uyQ+9e7JyPqSOf0tZlthjL4vn52jyVEtIxbRPOdRXHjhKPp6ge6uHmRS+owWrXn2izCSdBHKsZhhCZNtIzaGAYqs+IqBjZ0u4X5ybktfE1w1xKn1amPCNWvXoqsrQ8bVN571EiQZmCWo0FqZnh7H/PxscOOiVluaJK2KToztTqV5uWEGlV9OglyT9hpW8hs7eqDwnd13/Kal0XbNXW8BRfOetnPvfBzvHJAsTtOAjeHeWtHuxVoKrZcgjx3TuD07DYnRO/RME/uFG52vU8iLX4A9e7YT3B/E8ABw/sZe9qsZOu3VpmFVfaWxijiFZY0CzfOdqF3Dd/wnxUFv4McfAyDi0XMVVJ46sd+xjMJkt2mmfCfnBSiaxJdFkUnQEq9V0Juhals9gZGRKDauB+6/+24cO7jf7I2uSBrFfBnVSk2pIhyVAseWkeRVtVrdqr7kzm1x/FTp3C2FmdBkbdU5/XQmjb7+fiS1zXoqbQJLjWSbtpUKtuQ4uzBPoeYE3FIn68jmHEOfSr6jq6xujqVoFosDlsUg4ZyY2VsXLcA4Na6bhzn1Xne/rexpuyYQkbP0VO/sLAIV5c2DigSMNpnUKjBtOKm9jYKsd+gZIvGLDdlH2W481xJ89Yj7t92G6Zl5XH4FMDhYpfU7i3jUlG1rE8N6Kmom30yEtvhMfrsTz3klQW0sJ0Dxysa5Qj6/HuzkpPQ8GTkrxQNLUBsGJnT0y/NFhGMpNLRgpjiFdDKL1Stj2LKpB/t2PIzDOw+gnmcdVxrIJNNIRBPsM1SAayWEYuw/4RJd1dpGL03CvqzJfNkDArdE6dwEFVVolFnjv/sKpL5yl0CCjZhKpmhi9tiQmFpZwzJi7tzCAiqlvI0PN2oyJb0N6V0bec5ov27nuqAq8a0qRxJXNf3gWORvF/kkzhBpzbp/kjqqd3q+8/2jQzYUZt9k0fxK1S33dRbLqU6C3wFEaw6mDTToN8OYhjbCMxfE90Ngra1dZKUIYAIgCu5XvtRxNa8SpTarOaCJyQmcGBuzl1dpZC2qRnfS7jr0/ZLagC3CXw0QNzAzOYNdOx6wC5ddPoKhIe33VUFU1c2uEqPg0zVZvr4VtGGi5gRqiKMc6kIpNIx8fT1y9Quw79ggDo+PYnJ+LfLltaiGRigke5hUnPwonhXAmNrX5tyfnZFP3DbzfFbg7FIzztMnu5v9px6KMl8ZVMOjzP9Guot4fCFqYR7Xh8jHWkziAaaZAf4KTMjvYZXfBbfnU3UTTxJ5yznWm3YgYCDBYvVoBls3d6NcAHY/+hDKRYKuhlKUBHVkDV8L3GgXsp60Ma6+Zhs81X48edm1NOkcffmRbMXW0zsT2n1YwrxRCaNE5J+fm8MUBVShuIDJmUlyvpCHzFMLY6B/GYYGhqkhJ1ETU7BdvJbihaXSljKmzw7rBS+KS7vmNROnOTBN3uualee8bqykThBoPgoTcynMRWw/d3e2iOkvCvPHCn8sA/l0LF90dh7E8Xlppaer7lxOWqKAJUpmNgBhNA2VSUPz+Xa7CPO+Zhokf9wMYzwea15Hx/558j34MBEGBMeMozQFNi7psA3Lqb2KpSK6aLno7frly0fRQ1/fAGGqzLnLPw/tfv1pyExt1qHvj+yriKzYGKK489v34BP//NcUfgt4y5tHccH55PLGFEKVOmKs90bVLQdm69o9CcpMGSI13p2vpRHrXo/dh+P41Ocn8Zd/ewC33JrH/+/zWdz/wByOnggjxfZduXoF2zpn2+Z7lUjc7b4qqb+A1NaBc/qFi6sAr7+JfLjxhZjqCUg82IxHF6XSma/GUI2txN6jaXzx6zl8+44K7rx/AXO5DLp7+9HX3416NU/hX0K6m+BCvqYBhngigaoEPkFVTzUwYMZsw0g9jIFhWhuarQrHwsgVGyxzL8EkhP6eNO6+dwJHZ6Zx9QteieHhfsZXO5BYGUpROKN6diahA7Ug21Y39gA5u2np0Tm7S7EqXQymb0mrbtWgWnZXLOQxNTVORj6MhexcsA+YmCmB/v4hCq4BmyBuUFP2LCGZF8g9F8IfW4vfPiNmWpU9yZ0q3C7xKIjiDxTLhzUFqkVmXEpxu3cRKY32MH+s8MeCSpN0T5C+j+OSUQeyUyOF2UuPEvA+IPAlnAUqer53zetNUgLygmtM3GJYZfno9sPfIE6TdLz43EJYDwKVAturSumk+S99Y2X1mlVYsWI5LRkbYyE1RQof646eihDp0OOTaq5K61Cf5NVxjcDxrVu+jS9+7uPYtBF4w+tWYXhwnuJs3r2LoVVM4hH9aWdeNaCMHN4cSw0hklyLO+6fx//3t7tw5OQAUn2X4oEd43h4ZxU7dzbwyPY8Jiam0duTwPrzRqi0LLAXaQt4KW1kLA8WdOZ5P3CO+Hz2dTkdt197KrzQHqceimMmF6LQX4UvfPkovvHteYxPr8Od987hy7ccx3e+O459+04gGq5g8+b1BNMS5mfztKxZ3qhWwCm/Zlrwn39UkOzLj/ozNNQzWMcsWpimXrUW4n09rO8k+b6Ih3fM4rYHJnHDTa/H2jWrqcRG2AaMK7CN0LJpaN8w5VeyRjsfW67pM0FbdUZSoLuw5CgowblH1LHdR6Ak7EhSXHt7E9i4cYNpu7FY1CYLpfGa5kwGXliYw8z0JIWYvqMtBpAwZVpS18nVOleRTY6rxTynNwElEKaegigW7TTUHrd5/Dhxnwlq70gCC9VDlcJE493a2NG/ICkn60XfPNGLalYnmh8hIGui3k/W+7kS+ae69nAdnxr/1PsEZnqfSHMr8vVFyIMHD9rciuKK1Ek9tZflqQiRDj0RsYEDhUl8OT83j4cf3kYlTENfcaxa3cNL1MRNOVA89R/6uodCU9UfTYQRT2Ywn6vh4OEyPvOpQ6gWz8O73/W/8Su/9n688+d+Flsu60eVivbELPDlLwL/8s8HsP9QBeU6pbO0fG1nwpTVmt75A+tX7I6a+6nJsW9qmE1bntQaVAq1JPppUq2eQiy9FbfdWceOh9bgNS//IN79Ex/Az/yX/4XBgTXkQeCznwX+39/P4Ju3z6CIEdjboLKehalCi8dQswSq1kCGiLRcmAXQrsYo0yKP46KtwBzrZMf2+1HIFSx+u+Ht+Fvla5UxSLntYOlSW1HPLfICx+/IK1zQ+u6BwX4k03oBMu62xWeglhYLDnLZeczMEFS0y6oR0zDu5VX1H0uTmgKT1BCXOXK2Y3tr+yckf11++7End9x+9dkhMakXxF64C1AELhoj15yTCX5WgupBzgGJAyIHLh4sgjBL53SA4cPbgcUNu/n7dK78xKj6+VVCysvJEycxPj5ux56c2GuRE3Qd+n5Jw58GGFSpTxw/ge0P32/bsW/ePIR0V5nt4+ZOrPoNTDQywBMGqsvMz2vRRgyhcDetkBruvquCCy68Cde+4FW0ALpw4SUvQiOiXXhtISwKTOJr3wStgQNIpIeYSPDCJZ2tltIj9Cw640EeMsg0fueoHEoJDPolM8irj0+nKh7tfaBKUHno0QI++sl9eMmN/xUXX/wGWsiX4/kvuAmves1bkGOGNev6nbuAj/zrIew7WkOyR3NCEfaFKvNac3ltktINXGBJ+MeLX2W91GoluoJ9VXPLBSuxbi1wx21fxdT4pBXU9Fm7R6UTmLi54ha1PdA/bonSOQkqqk9nbKrR3CCWQEUHYfYMWSk9PT22WaGOpSlofkSgovdV9AlPt9UEb5FJbaAi2FE8GpniZiu6d7r2xK2ojmYuOG+n9jAdny7OmSYxc7sAdsNcrTJoPqVEYNEQlN8rzMd3cy0EBLoWEDgw8L6BhgGHBwxda11vd4uBxfl6ll9pI6e8yXqanJjCtD4NHbwMoVZWXjy1l6lDT48E1GwZVOzT2hEc2Luf7hEsWwaMLhe/TzFSmXXNQ/G0Vbl+Wu2Q6U2iXIuwnWK4655HcegosFAsYbYwjURPHw4eilNBWMa7+ikf4/Z+S7ZMQXpvDsdO5KkMpimcE4FLIkynY71gKcCxjV/Z95zjsfUv8o2+CR8STLXy8r2Q+EeWzuETcew+BHQPn4dGPIFj4ydQqhcQ6WqgwiqQWlOmTL/jPuCRPXlkS1GUaNHH41oh9njSQKG8WYIgOFPdhTSh39A3j/I2lLZ+3SA2ngfcfcfXME5FyqqWjsnTC8YVDVCcjHOpiVpHS5nEYecwaQLMZdEjvcYlR0aHsWrVSnR3dzvBpTgUTMViDrmce7teQ2DiS62ism+8k2vltLux04ZsX1A6d+4aNHDWyZwXHLZIlxWN1H69Fc+n88yTOlC7ED4VWAQA5YobDnNDYa3hKQGL91sAEVggtnQ4cKcBlmYagWtdb1kuso6UH7cKLGZDYLqufcAOHjhkX4n0pGd06MyT6l+MuW/PXsxMz2HDeoLKiBZtzPOa5jwciZ/dggzxlHNaUej6SBz33dewj3f95+e/hF/59V/Cn37o/+KDH/obTBycYMSwvSxZIA5oTc30LDC3UGWaEppKUz3MzRfYai/9aWhLq64CcFF/0U69oVCRfTVHV+C5Uwofjzyfe/7XuQ+r16O47Y4dOEZ5/q+f+Qy0Q3O8K4EHdzyEz37hs8wo72NcZeEEizA9S/6tx9hXyN98ru9CrZ4k0pmcak3yRGGO7OuP+qRwRHMlBQwPJ7FqZRjTkw0c3L+HdcRIzKZGWpSCanZx2j9Y/O/56pwjp22xsbRUq60FYrEINmw4D1u2bMHAwEBTC1bD1Gtkn1KO1soUSsWCzSUY06nXyKNvnwMNaZWLAMU5zyjmGMc1uX+oP3fkuolFW5QvHSv82aZ2YGkBjM+crDIHLHrzXl+R1LJjgUsTIKoeXLS3WAtAWq4FFD5MabYAZLHvXJUgVra209CX273Yb9kyhV27dtueYEzSqJntDp1RorqF6fEcdj+6i+0DbD4/TWVM7TAvzrA41j3sKGgHBktgVssSrhFbLqt7xU1HDp/Af/7nF/DpT/8Tjuz8DjvjHELdvKDhH7j3MNjUNFx4TGujHqE1pJ2Sw2UqhW7ITd9vF2AYdzbc+rQwH6jly+qVMaYVpVOve7qkfjA/p22MgE986h/w+h99BX7xv/0Sfvq978X2h/a5kaeYFB/LOp8X5/NlUYdRZSGsZpTB05By5eWBRJMiW1nCmkfUMHOWClQZl168wvZXu+u730J2puhAyG5rHrj7zAl0g/L6wCVM5y6okDGckHSVLR1ClR0lqGj10BrbB6zHLBUJL2kLapxGvYJiIUuGKRFkqDkEbSXPJurp9B2WJojQNUGkiRQOSLzz5/6ac0qTvjQe+u3H7XGeKWq3SFp1tfjYkwS9vccSvHnvN5qUU1R37ACl5RxwtMLbz53TcxaHuWfrWJtNSlOWleKtFdWJvmF/7Nhx27LFZ1O+P+7QmSDPh2EcOXTMtGXZA8tHkxgcoOAkL8gGcftbOTIe9u1AF43EbG4hEqnikq2UwYyq7V0aBaA8xR8NU4ULaOTmrO9ZL2IX7SHIdGWYOkHEXsCUC1hVLOtyJsHqGtx9+50AyCBtNR+lL/e99J52K8WoUcHWLctA4wRzs1XcdfdduPmWr2LyxCQLwr6vrNcIInxOmhUTZ8ZLuRySBEMN42lbe5c7TzpbHKIc6ontdaaXUbQzQaixwDpbgZWjGgL7JqanximLZHk1UJZMCkqncuvoeynrUqAWV51jFKGWJOdIW3+4rGpjtt7eHozaCjA3rKLJYDGVNAcBipYca27FRs7IMBJwAh8J00KpBPeFSHUDfdBLbM6IBJuQDR85p6a25cwBEFk4wUhhVm1Bb/HzNe7c3ec69DNLEt5WZubZhjlOCfPkmV7XVH4Bi1ZiaXjKwIUqlOZW/PblGg5TRSq+Bwjve+ctE++qtIQ0vOa2inHfrVd9a9hNx7JUUqk0w6g5T8/g5MkxGwbTMJsoHld7uGOzTFmDHfr+qEqAF2lxxI5HHsTqVcDGDf2old1b9GwYAxWz3M1p6b721NN7FPQbEcajpRldwItftAFpCug4k0yJ/ys8KbOdCE4hptOboNJAC6SPgPKi61egr7+GaiNn8yTFEuV4SooNH0nnZL/m28hjdfFKjYAV4/3kWVoWYTllnXE9T3hqBw7xlUhhiud5UudJWiHXXrGG+WKeGa0n2cc8M/06M5LvYtoDyIQGkeT9114MnDfajaHujGWwzPjKrxEfr97cPGkeKx+tvIiUNbGuFpGVizNYvSKJi7YAu3cdxqGDOxFJUv5UNUSmum6l0ErFHbU/ZalSS/qcc7S4yturWkcSWv39/ejv60OSwBKLymIhv1RLyC7MoJBfoJCjJtWgqW3LTwgdRBkJXHubnEV3YBKAhM4FDsFzA93LwgUoFjcIF3i488AFIOTu8aB09kj1Y53N8uTqUP1TloSAQwDi9wrT2+66pnt859Q1dVDfUeW3O4W5VWUUCgQGAzKWWZPCrpM760jpqZ30/Ru9Xa/wXE7vNExgbm7edi3W5KXICwnd44879HSJUBHW92wqOLB/L7LzM1hBrfm89b2IR2p0jKEGNxKvqg+w3YxVeM4DvVukz0n0dtexdnUE7/nZbmTSvEreWdadIAwV0Z+KaNAL1UIRXbzthhcDW85Po1aZYl8jLzBMwrZGYFHSmgQXKazEfqrtSiJEKm1dUqE0N3ErxYzAIm1evPR0KBzKY+WyAt71Ywlk4nxWbpbyQYlWkErqVdAsjYoxDBM8bnrxMK66dAiN0izKhTISRBrteypqPZ3ywiqs3flfEg8U17twqIRoaB4b1qfQTQzb+eh9rKM8yyMQV59s3hkkpzqns7stgG7pkkpyDlJ7E4l8JbeaI5FMYcXK1RgdXUFQSdGqkWCT1lzE7MyEbUddKmnXYk0ASuumoGKcEAWfhFsrfQcecs4KceFMrXnNVZMX0D6uu9a0XOgb0wTh7ppzZ4Ocoury65wDFQGKwEBfkNReYf5dFj90JdCplN0HuPx8inP+3DkrF4WPGxpzYCSLRWlXgkUBAifFFQlcZFmqfvRcDYGZtRIAiLeuzlZ9/SDS3NwcHtm+zSbSN2zQVvcU+Po8hPb6In84YPG8rRMLEOeyT2lVJRWO+gISiUm89e3n4Y1vBEYHqYkvzCMNat2FBVBmYqQXePVrgJ9651pcuJl9sV4gs8WocHTR6kmhWk7xKZTgoTTIGryTPMPHVpiBEk0SvdYSSbLdU5ToUcZr6Bswjh/aSfz5VCgcWsDalXN4x9vW4o2vB4+BPgJivF5CuDLJnJRx0XnAT78b+JFXdqOn5xhBYM7eUSnkaJ2ZAuT5UL6eS4tdq9MoY2yTSYUFUcxry5oWHUTDOVy6dSWGh4Dbb7+ZFvqkKV2uvn09e3Jt4JxL29JfonTOfqO+VckiX9kuzJqYP5qAnpyYtuGUhWyWAspsZmo+NHmHVqKnfxiZ7m43xCVTX40aCH2XtMKdgJSwU8LqUGJeDwoujnuy3cS09OdJfG4hjKtjd2536WoQZ7Hvw+U/2Rv17h7vFLT43JPCW+nr3MVQXiy2v8/iaUirbkNfCrL8qg6C2IrryuMEvkU6hQQSPi2391ewZNkeIaBxoKIhsBwtknw+54bDCDLaaFLvGK1YsQLLly+nFsk2YYO6oS+XF5erDj1dUosdOXwEH/m7v8bc5FG85kfSuPqqHtQr+n6KPmUbkFZgqb71BrnNdTgu0PCU3vcqVyvQiE3/YBcuu2wVNm4IIx3PYqgbZrlcfTloxazGT/7kFqxcUUZu/jC6UlF9lFWjSRSuUROZepeszufmSwSjBBWMrjgqPNf8hUZBa9UQAY/5Uv9Kyf7RNikqxfdOpkRW8wSLOK6+dg1WrpTyVGK+gE3rgRdcB7zj7QN41U2rsHKUFln+GHlPQ7YEPPKnhtpD5Ed7vLEiD5rOn9uT9GNkwYHTbygcQyo9ijvuOIZde47hZa98C5YtXwltWaPWsbiBzGkSA5lzHpj0sb+lSCEKgPZinTvkc2X16qrakRPXUoAPHDiMz33uC/jyl2+2t7W1wsmEGZJYe8F1OG/zlVi1mioJtaVKlRwTTvBe7RMmbYOpmlAVEKkzMVUhlQlKat7qEXo2NWkngHlux06Q6h4TpHKqQp7LV5hLkyoZfR/mXPv9ztdKKfku3Dn+WH704qe7xzul5Y5dnhXV3eOf4c5ZP7Qc/HWfV7vH0nFOsiRqFkTUPiWgYzm3FYWAhZ45WYHO17mT/cEAoM75o3ALteezXBRG2lJHFkueoKK5HPtSJMvb09ONDRvX43WvfQ1e8YqXI9MVY3ytnuFzXOIk73foeyVxT6FSx23f/ibe+aOvQX9XHn/8h6N48fMTSGASoVrORRJr6O111XU4b/d6pSkSphVRaiASTyKayGAuV0QqM0B06ML0TIVgMYBUoov8UsXC/AkK4hy6aGhox3DNhVdpDtVpGSQITiEiTJTtWqlS4SPXRFM9mCuRB6MJAlYCMfGg+ksljwiBLGzbmDgeNP79XolAGY/14PjJKQyt7qE1lMBCrhvprlEqOEXEwiWk4jMIVbKIazaH/FqtFRBP8VmRku08QFy0ujAAeTzSdZL7DeLxxL4+H+0mWG7C+z9wLz712QY++Ncfx6ve8HbU7B0Y1YJ2G+BDZKbpViXCDlXTZBID9IKk2mEpkuTCEiHVvHfSfKg99Q9SQPWa5qvJYBNmFFoS5pqwX8jOUphpLNMJSJFpwSa8grmPwOnYzQn4Y+3J07qmSUw/xKV4pkvwuDXstdg/2+Ty0GJKp/2r9oJ801d/rVZbX5EsaZ4lmGMReDnngOxU54fFdOzT0AKAqakp+3TwxMS4ffFxdnbWwgUqSkvP1ZDb7MycxdW9Ilk+Huza27lDT4/isTAOHNyLqZk81qwB1q3vZt3O2dZH2ofKE8W2/RqRRbyFrT+9V6EhS30ELxmrYnryMIr5RzE6PI54ZAcl4APsSo+gv3cMmdQMraBJA4YoeS3GDhqzLZBd+xpAMPVEYgQTk2nMTK/G/n0juOeeJG67E9ixJ4WZ3CjyjUEslGNo2KeQeZvnW1NWnHtyolJIy2RkKE0DbB7JxgSGuk4gXnsYmehOAsZe5u84E59HqTqDWqiMWCJmCpBeb8topI6pLBLqLsC5NnJx1J8CR6Bxuy+XeCWHi7auRlcX8MC2+wloVOQsvsqgepHiGZz+AJFqYkkSZZmtKNL30Ht7++h6bemqhJwE0/zCrG3Zkie4MDY1IhZVjG0Aw4al86u9BBJ+ktmBDa/ZsQsXcLjrHliCY6u+gKkkqOkMiMRYQRpni9qf7zqjfDu1zu3PNdGuDwhJ6HtgKbFnedB4PKdJfr+STGP3+laKQMI7hemahsC8IFD7CDzURvPzC/btek3cqy2VVV/3Hfr+aZ7W4QMP3GeW5Np13RgeSZI98xSabA/VN+Ooqh2IBAEi890QsrZN0dcgy+U8Ur1xe+8ixusL0xTUVLJSbK9aYRrF3AIaVVoyqQq6uxtU6AgwRK4Y+4wMZD1CyYbRjUpxFHd+p4j/8d8ewc/81Ha846178bPvOoRf/7V9+PBf78TDO+Lo6b8UdVpQT58X6sx/llZWFKXZMKrTMcRy7MMLtFlYsEipYt+JT2r5V7yOYoOWW5Q8TzlforiIRHqZhEyVx3n+omCesL/b55s1xC7HP22oWa1msXXregwNA3fdeSfmZiWLlDspTgIVN5pgTeDd4pMlSZKKS458myYTIXRTDRjs76cbQJoWS4yCK0qTu5SbQTE7hXIhZ42sMc5GSDsXa48hpsHepg6lVUu2Xl+OQKFrDfVEhpvwJWObZm9AIqGnYz8v40CmGTeI37DzYC+j4Nh8u6bcK0y+p9axO3KptZjLM1g7o7XfL3LpOqc8L07fgS1TMLdY4xNIaLVPhdqdxp4FGBrWk2CQa1TpGMd6HV2d54XsAhbmZ2lxTGF6ihbJzLRtk1OtlNhrqi7/tBidTcdOpKFAhteqekG1wHv1CYNJzBGMikWqh0bKc3u+lcd216GnSkcOHMTDD95LDRwYXp5GukeT4HG2dRTJeK/2P5R0Iz9Sqw/T2mS1a2NH4386bYck0upJDWctTMzTEqEiRwNCLtRgW1YKxm3dPZTNjJNfYHxGSiTDVEzIB0wjGFF2/YZ9LJst4J57p/HAg8DRk0CRD8wV4rhvG/A3fw984tP7sXs/LzDlENFPWr9rfnGUcxLJmpt4PKcyRWmplRayyCR6kUr3M18a7nXzp9FoAnHKgiLzqyXAGVoSuQItC1pW3T19BE0Jf9cDbQsZjVJoJ2etLhD+8oItKGWMGvt/NRTjc3kmZ/lm/1N+awWsXZvGwACwd8825LMzxt1u9wId0QWeJ3eo60uXxBPnJlntqnKd83XvneR+IV/Exg3rcdmlF6O3p5vMr3mBOBrUtBt5Wik018PVkuQZNRcyRjRFBghRgyHAmMCj5sVfrbLX+KYBgXifHSSk5cfUqs1C4bGYURP9NtkvjZrXNAbnfOd0LPCwjekIYnUym8z4ht6oCsfNCdw082nxWBIDGRWIP+ZZWYNysxM4p2M5d10HLoZ8dVznDLwC55qWYYwoAHEWmcCGwYxhd/NYxVH2VR96YbREgV8p0nqoFBGh4IhJ+tTL1EZpjUyNYWriBGanxjE3PUnQnkeJlmCVmmyYwiSs2VmChiaCU7EI+thb9a4DDxFlL1Q87Xrgdj7IGyDtfPRRZOfZiVU8ZqhOISP8cnk08REca4WZVpcJgNx5u5N1avNK/OMZwxbTY+94YrdUyCkLFKYy9wLSLrvjR47hkW3bsGINsPWq9ZgvNRBLL0c8SbU53M92X4lQpRuFUhmpvi7keHtRN5M9tUmvUzpcumR3sMsY+wkrzNIJUQiH9YIrw6j1axRTw2WycKh2INJFANFaYvYRezeD/U9v1EfiU3jPL16BK67jo9I2AIRaNAO1qrpIPMPwlPqC+Ik8ao4X1Vu1E4b6TpSCXM9lULtTmJwEvCyHOOWB7XFWW0AlTr5O0yoh+pVDCURDPfZOTJz5DtGnLmoLz+ZLc2jE2DOjrFemVYvQwosPIB4ZRaQ2TDDuQbRBOcM8xbRcmRWWpcCoMd0aM6p3vmJE8hAzEmNNxKLHcNVVTHc2j90772Z+1KeI9HDzu4ZOfI4RD1Vy66JLmM7h1V9Ww85vkgJclYtv4sGb2tpHaj81s5MnT9p4vbTqMJkymUxjaGQ90t0j5Bhxa5IGJ0Uuhasm5wgZBikyViV0xUR1vdor4SttQ9oVH6QcSOBZR6OvF8S8pu8FmHKlIJ0pzFZWWWAQzh9/j6g5f+DDeGzWhZ3T8dDtKty6R7T43D1AQS5c5/qVMNBWGA44zFk890xZDDbPJIFNANCxJlI1Se92fGY4QUJWiibcK+WiTbpXSiUCA51AO7BGdF2Wi7bPGR4axNDgALrSGrqgENO7QyoH81JlHLcoweVL4KCPqWm3aeW9SkmmIUW90yItU9aTqt8LTfcejHNWTySF++PA81VAzwc8Pfr+7n72yOqmrU5Esjq/dsvN+OpXv4xLLx/C9S+6GkcPHsDDd+/B2L4iJo9UTUCG40PoHh7GxOysfRqhOx1HOVe1OQUNW6kOlarzF/81FR2dqaEUZsTW5WFVwpL/EYJJtK4VYOw3ihZlwmzfrZefj8mZYziwn4K7XMAArZ23vimFn/rxC3HeasatTBJMqCQwDVlPpoA1/1zfcnxNxziWA3bgMAW8XtzUHKhdY2y9/V8hCtSYJyl6oUYMCZplcZ0TDaXnCdzmcw3y5Ai6ulaTHwdtcn9sIkqLmophSQsTRmns9bDOpfxkkdfHubqozNLcKS3MoZsmXIj1iKrUOoIM0wzTajs5kcftd9SxZt06XHn1dXyeQIUoaLlWHukzm0GG+a/Sttfp0qJze0mxVXR7xQa1HpCOksk45udz2LlzJ44ePeqWrRoz1iicUsj0riCoLEMk1WMrWcSBJjjZGR3rOWvEnqO21eoMHipcDWuMa53GRVHnFai0NENlkuH260lM5bqBdy4eHYW6BK2Eu5n2SkfHQTwHDuo4wV26hb4RT+xykxRLniJZ7MBREFOA2/CBTH6F8TnuXEKI/dp2KKDgZphGOuIEALcxpxv2qrCjlwkmqs9SqYiyzbMQGFi3NQKKBJfqWXNVSQLD0NAQzt+0CStXrqBmGjag15yV6knDaWUNrwWT8hp6jPB5SmtmdgYnx8YwvzBv8ZMawqSiIFCOUvUV0Ahcm4JLjSCfRTpVmFn7BH+tcEc+pN09ET3Z9XOJxJPtADs3P4uPf/JfcOfd21hPCcyN1fDN/9yO274EPPTdKh64p4hb75zAkfEysuUwRpevxXBXL/LT0+iK0s7QeyxWtU+tFtoBTaQz3R5jG8UMVNiPlD/yZUQvPNINDafshczRwTwuWA/82OujePtrN2HLyjxNpsNMs+q+3srEBFJuebH6lZwTydL/hFFRPaNGZSRwApYGAUPvlGj4VculpTAqY/ogWVTgow/zN4oIpxooM0qunEQ6cz7Lvhzb7ivg5q/O4ytfmcLXb57CfXfN48FtY3hk5wRyhQgyfaNI9w/ZiEYhN4VUpIyE+pGUWaKT6k68WaWrawQjOoJv3zqNyekCXvEjb0SKda0aanJqW/3p0PX8IMNLkM5dUFG9qlIX1as/USfyR/r2QxZ79u6zD0BpYrhK4VUh04QiCcRT1Jx7liHdO4SoXpe1JDxjkrkEHuICSXoybiMsIUzgkLbDFnYN3uqwvv1dJ3bHuuay4351pk3zwtaR6OgbWOhcUciAHkyM6Ovxdr/iWqDZC0E5W+V1oGNHLad0CAYCEzndaaASgIZZFfTNIiGCOAARZCo/rXv0ieUq603zHrJOZIWYk9VgabOaLKMNanNp9Pb1YHR0BD291N4EWrxW4n0CCU34CwwEHAKTKvPDRAj0UcQJQgIPlcUvDhCQ6FMGqtR5AlIun0csHrdteNRLXU06cjlwv6KWQPVO5P3HpyeK8eR3n1vk+UL1sG/vHnz4r/4cs2OTqE7TMtlxAqExoLtEJXqWcQrAoUN0B4r4zndmaYUew/JlIxgZHiSQs72oUOiLhk+1Enzf8KQzTegLVMhpPOcJ+ZPcwP5FPo1UkCtOYf26fly0uQtXXhrH865ejsH+AurZgzRkqNhQMalrvtJkq+uvUoakAJmOr7SJNhH2U+dkpcgxAsGkynKoL0u5095kygL/mRR7vOLUSpYfxIE8gSCa2ID8wjBu/s+d+I9PHsEtn13AjnsrmN5HwDkKHNgJPHhvFXt3zuLAgWOI0pxbc956NMrTtO4K6OrtQoUJ2S4szKRZM1RW9XJnpncNbrvtKB58+CTe+KM/gcEhoqmRasZxciuDdkKygrvDJUbnsKUS0GPq1QWIkaUFq1k00asVRzMzs6Yh53I5N/Zu8xdpdPeNoI8NGU1orSDvYwe0N/AFK2Rc2xqfyZo2Q25V2gY2/HX9RT+u04p8llqdyQs137l5LqBoMowDFQ8uTi67ePJ9HPtVHPnKk112cTw10286DQ89FlQi0tJYHrctt8qrjilwYLwGNTdNwBNENL8hEKkSDDSsZRPzSsvARvl1ndK/Q6KObUVleJcWSQwOWJyjx44S1I/ZEmK3rb1rH+9EWv3l92oTgMjXqr2RkRH7lIE+NywLZXZuDtNTM2xDCjhzGq5z2+jr2Xq85YE/jg+C+vXnNQGcGvPJyZI5jVsK5Mss3w+BySq847Zb8Td/+TdYRul7eSaGzWy3i7pTOL+7H32NNIYTA3QNpBplzE4D99yruYRxXPncy1EsHUN3r1MGnirpue0kGU55rt7DEzGMZrqoWPDQvvLIPibQqlTySNNS0CaUjeo0GpUZxJgv3ogagUJ9QCmrH6nPqEUFJi2n3s8/Hsvqtu+whEoEJA130cphpKj4V3lSVhjPuyjNnEg8hOlcA4muEWRzK/HJj9yDz/xTFpOPAiuZ/wuTIVyc7sKaGC3xeB2DSaY5T4DZC2zfO4uR5Rls3rIc5cI4RU0aBT4rko6hREVMuQ1TectXCrSAlmPHozO0HCu48caX4rzzLmAmlGeXL+uzqieRBXi3NOncBxXRKUy7uNIl6LRZZN2WtR4/foIAM0mZJ80ognItiu6BZRgcWUmGTdnku0hv+uob3rb6S+mLa4NkLaz558JazzMOdleCfLlfhUu4uWMDlYBBHBD4O0UOOCyE13Rd5/oNopJ0ny67AAGIxWC6HkycL2skcAYaDOexAMRvKS5AUZisF1kgpaKWllKH0pBWRXMk+mqdG97SM2TRCJDkqwjeifktr0xLS1P1smkupyXFs7b7sOZNtL+alg1rexaBieWeNxugEETsS5DJuAFIN6WJ/MGhIbN29K6Rf1gkys7JZ2ir/OlpjfkTWNheEbUbn6FqsahM3llPDvTsgbpmYT/4JN5VPQtURFrK/Zl/+1fcd/sdGGU9XEuN+sJ4El205uPZCuLVGEJUwnrJH2m277LhOAqs2227gGRfDlu2DNJqLBLcZela6z0pPQZUdCcNU+tSvCZlTUNZNTUPu58UuEqlYQs46lVaxOTJWKRKp+XtjEuBbpPt4kXjaaVJp3b1jgFS+vSrAFklhjRMU+85V7XlMS9pQj2IZc6Rehp5mExUjejN9034zL8+gn/5cBE9tOYGmfc1tKiHqyFk8jXEi1Uk6hGkqaRqVlbpHJ8CDh+ZwHMu7cFAfwJFgTBNs3I9bw9UdsTzRVpEoVgPpqaTuOuuWaxctQ5XX/VSWxzjMqUf9WV/bAeBvzRpCYAKK9jVuJ050jFZN2iEWDxmYDE2PoZ9+/YZuIhq5OZ8uY5egsrw6CoKsxSFVZwdUBOHAhM39GUdUo9hLzDHdI1hzXfPMi+gZttbp3NOYU7g6lxBYlyyS3BqywiD63aHHbtw+QpVF2qmwXyZT+c6txhPgEFuDY5t3sYDijnGNdAhgNgwljbqowVik+sEDp2XCrakV9aJrJKmhdMEK2m97nkiDyzU0ZgVAgWdjlMEB60WW1iYt/dV9Fa+rA8tRdXux9LSBAIa7hKYdGUyyHQ7l+5Ko6+vz+KnmkNe85hmuwk8BCiJZJqgUrXtd3K5ggFMoVB034QpMO+sWFmZbosXJaF2syyzDDxottGppLI9FXrcBM4JEm94/m8HlUOHDuFvP/SXqJ0cx3ks6tZ6CKO03FNs5m62dYpad1e4RouFPFCoIpetItXbh8NzRRw8mcVLXrqJ9Z83IR+2LzA+Ofl8tJNNrtPVyA/aIFi+lthTwjLzMbIdLZSeQaKLXlQmwKW1GiqEAvtrIq33zSS8He+ZY5red6ThMaaptCnBtbhTTt/MF6jIIhL4xAgGxs4i3myHvCCuJ1aw7OvxyENZ/ONfTmDuEHDlyBr0leIY0OaTtPoyrOfeWIKKGdPNEyCYeBd5Np0JY/euGjLxSVx66UqE49r1e46pEiz17CoVMyo/VT6pHkqwX4zitttpyc+U8IpX/hiSaSpQIitQG4DbcAmpVdAlR0EJznV6/BoWo6k/9fX12pb4qXQSmUyXacu6ZhPOxQVq5DkycokWChmNAk/WjS0X9oDCyB5M9MEeLR2264El43znbGI/eLh1KDqxhL8uQCAX0SeH27sxOtZ6d3UECsHAuW9yq7PxfnOWqIW5XwcecgYg5mSF8JyS1Jyd6yt+3nfHKmullENugVbE3DTy2TlaKDkb7nLan0BIzOwsmRh7jZyW/gpoZLVojsV1QwGdA5WguCjQ2tG3bZKpBEHdzZMIQFTvOraPc2moK5WiRdJDi2QAQ8PD5mSZRLzlwusC1vHJCezeuwc7d+/CQQrGQ4cO23Cm6lLxtKpPVqg+8PXozl0YH5+w69ms3q3REBk7r7CR2dUu1E9OrlxP7JYWaehLuxjsfPgRNmEFa7oH0IeUgW4fuaKLvFgpz9n2JDXW12hXHCOpPtSnq9g4NILDO4HbvrEDqfhyFp/C/2mS+DgUj6BBZ8t8GSYFj2oAec7NaSSYl9zEFCJEnoHutO0QXKX1kupKoUSB3FC/5D8Z1PnsQpK3tuSfrkblr8Y4NTJjjTwiK8iG1ujr+WJjOfcOmk3XmzOwc0GIp2iv1Xrx9ZsPYeEEcOGyLmQPT6KPyBQpNxAXP1MJ1SITMhm6adX0hBOIFwgYs1UMMq37bgdmp1lXNbk6MgmWl9YOL/EhNVDU0M9j5Yok+vu0Ff4Dtgzfs5fz9BsodyKf2SVKrN6lSX6cvrULLjsNNeBly4ZtrN+2lyAjpFMxNuIcpieOIVSnQNU6cWnRZER774T3hcU8FJAyV2PUkrWu3vthhpmjsJQGrTDdq5VJdhwATwuA5MhJej+FFpEmGwUe8nXuwcXeBSDr6d0WAZtBiBiJnUVl0d5LkZAEv6wJ7RUkaFIsMl9dey9ZKrQ4NJxF8CBozM5MYmpyDJN6l2RmCoW8mJeMbUDh5k/0cprmSASufIwL1/Jhza/IadyC9+iaAEfWjJysoCjzaS4ADgGDgEMT6rJgNA6vY33mednIiG0WKTdMIFGbiHL5HGbnZm01mdLQsNfA4ADWrl2LTZs2mfVy7Pgx3HnX3bh/2wO2p9vU9LRZKQIM2UmaxD9I0HngwYdw9z33YD/jlCkkWc1OoERdXao6vbOhOCXgunubfwoFfHWuk5QZVx43zCLSXNZ9992HLNt9mOcxtht1bXLJMObQhWlGt09Esd71suMsBbks2y7y1DBrdoj37Nk2RwsmwXCX5lMh5cPnRaSVWtLQC2wTKUtaYxmPkE8oyaO0YpMhKie0nrsS5CW1KC1dvYwY1UuEZPdQg3ETA7QkEig3KNSJAgKRIlk/RoumwCYqqT3Jh1KlyixMg/kVgJgeRBdhXDkhSJ3XBGp2ieWu0JWYRp3PQa0Pux/mBXaVeC6KdYluZGgtN5DGQj2NacSRDZO/xVyyntgX4+wjmWoN/ezmM9PAHfdQtkR6KDOoINEs08ibAKnKdJht9uMykokCNm/St1aq2LnjQXUxx5gk8bT+dBQELGmSWFmSJG25naQhL1u2zL4Iqcljfb9DS4fFYbncDLWJk2axmDAlg3hAsGEaauj+WysChwgZXBaLAwhZI+5Y5M7bH85ju+ZsC140p5cRa+bEO7yuOIHT/W5iVfcrggSerBAdk9sMAKjuEAQFLLEAYBr1kq3pLxezmJudtM8m61sZhdwc7GuXpTw10CI7lpZLChycs4l3cqrLocEXny/8cnMnqidVlZvUV54IYAo7jTPAMycQVVjYgGBwcNAm3LW0WPuxCUQ0Ka84Wj3mh2gE9j5c27hoqFLXFV+T9t4l4lQGigVbJr5r107s2bPbVvflCSgCMPn6mmU2l8fRY8ex/ZEdeHj7bhw5OkbQ0VCEJptZfBWH5CxSlpxoY4qIhKAuWgQrtAtzjbIkSHXYThJiAhWWFL3EhFSkSoFcobysUPjSqkxkbOPQMlVpGgOIJyNUPObRQ8VL28Jr1xLpLNox+vshshH5EEgTNPR54FqpQr9OPib30ZSYny0j0buKz87Q9SMc30SFawPztI7Cez0qtVWYn+9jPlYhmdzAvrkSxXIfMr3LcXKCYNRDu4v9W1aHhqul5AgtGmWCV50Wcp0AxXJoPsXebGeNCBRkxegelU5WdiyWxr49x0G9jEAHDKZ7ESstIFbP8n5a8Yxolo36CXkuJse+ESef9EUT2szfNp+cWqBSmuyxDyVrDlfyRItL9CANmwnO4rECzjuPViPz9eC2O9Xlm/oLexGjBnUuTw24hGmJTNQHfhu1dygdS+hLYOlbHRJEkxMT9s0QMURJ5iuthNEVazA4tJLHFGp6u53M6MCE90toSuCzRTVWHzSxEg8OHJlWpj9yhdfQnLOrdixesVPeyxCXf4brzIGGhJp0Rgr6QPDLApE1EuZ1fY8BtaJZVnUKAG2HUSnnKWSzBh6yTDScVaavd0nc8t/2lVtKQzlwzuZFlB+SiiPndle2XsdQ70TON+3X6tU5B7jO6R0TWSgCB4GBPuss19WVsYl4tYP2ZVNdCDBsSXKQhi2OoCvZt1y0OEDbgAho4k3AyTCdgYEBiyfgmQ72EisSZBRfwrNiiwKkEERQKlcwN79Ai2aGgKKdqql9Z9JB+qxjWZESaCyaa2sH7K6kPNcRz62S5BvZiTs8h0l1rLKoTrRY4v/8n/+DEnl/EyXeilgD3YwTo9QMRXIU2nrfSF9lJOBQcFX1kh7ba5q8NY0Ssizu2ouA6140TKVhhnVl79h/zySWSrCeIwR2zS1odXI0VqXyQ+GqbVP6N2J6uouC+CIcmejH3Q9k8cheavAHati1v4wTYxFMj9GiKHTh5LEi+vvWkUf6qBxSqBMUtQxd29NrjlAWe1x9l3yh92EIKXyuerGsCrWfdq9g/VAx06oz974Ly15uIBHrx9HDNdz73VkU+bzBRgyZ0hx62f/0Lf0ogTbCfpqgS/MeDQg2iDINyodKtY5cpI6j7G5rLs/gkmsHkaucQIQ8HKXCqq2NxFZkbSo4vDGsr9MO4uYvT/HeBl73xp+gbCLvmUEoKaH+L3B0ys8SYb/TUohM6Wr5XKP2XFnlKuDUrDpBIfJic9u2B/Gxj30Cd91xN5lznGZuDblyHd0Dq/CCG16PCy59ES3iXrZ2lxuO0jINCXcKorp6W41aA4NqFMyaLNRb4HqRsnmseDom07TCnCYugWfHTMDHM0FPm1wrrzTOrY5gNr5AReE69sNPvK6t4TUfUieQVGmVaBK8XNJ+XFqh5Z4lQNDyX1dqVy/qKyYPg07DiCZsPLHfBecuvgl68q+ErKgtavM++XZMJwEvoJETqKQJJpo3SSZTFqZ4btGBawmFuzpQ/TpLUvFaFo87VxpK28rFe31Yd7fGuwUgre+y2KaXBQIslYT169djYHDIvv6pXaqlVChc92tr/Tg10a6ulFmvI3T66JQp4HSyVsU3QdGDPDMgKLddVOUsAVL9qv5U9iNHjuC6665DYnYCL+iJYjUthOFKCN0sj4ZkyD5WxGScx2TDBTZNva8Xhyp5jCUr2DkN/PxvAG986xYkosepAGhp+PdOYQreqIZ/2WYSmprWkF+sRGgtrMX4VC/uum8WX/zKATzyqMANVDJ4I4VvkkKYBhZSdBLiQyO0ugaAS64Arn3+EK68dgMtrXFaoVPsK/O2d1dSDarxLM3UQ5MavFmmCsuqQeMqG7oSYV8kqNhiFsaqV/SZ6xUYmxjFH/3G/ThxHwG1msTmRpnAogEpYxWzblR3AhWdZ5lenmVbYMoTqTL2Ebzf/Mur8SNvTjNkL7qiSea/ioj6NIEnShMoRwCrE8CKlQvxjh+/DdniIL566x4kevrdugXeCYGYQKXMsrBvEGEs/0uRlkbPeQLyAtAEAw81np/JZEzQxKk1aG5C2owEtTT9KrlX76jYfAkbzztprxJ0slLatwSxuRJWk4SWmzfR807n+OuvGUfKYqDGQ9+caSJktpDOKfx0TEaKNNi7q9SuaXaXczPIz40jOzOG7Cz9uQlzC/Lnp6jpzaLCMshyUZksLes2GrYKHB+t8vl6EelQWbLfIIs2qS4hr2FAgoQmRm0jTVluOrf6DDmrQ6u3CCKqWw1NSZDrWMChOrKhQRPCbnhJloPb2UBvxbt3UwQUVr8WX/Hcx7rUVnqGByBp3HrPaGqSCkE+by9q9mmin89Np6TtOa38JBWGAwcOYNeuXThw8JBZKgINLS3XkNihw0dw+MgxHDx0BPsOHMLBw8cxNj5p1qvqwt5tcTViFeREjVNSlMZSId/OqlcNJQqA8xRijXg3KtEEqhS4VFvsrXEVUU1cLVPTZhGjsTQmClWU0mnMSB5TeF98zRYK3yK18e+nDvgQCkezFARgfDYfg+TAamzbWcDv/ck2/ML/OIAvfRvYeRDYf5QAN0s3w/xlCR4bgbe8KIZfedsy/MTLRvDyy3tQPAb8vw9M4nMfvwu5KfJRPUOLgMoEn6YtfgRcBiRhzZJLaeMVPrcRpiIWphVPXy0etqGxKLqFrNUcFZMohlYQ8Hh/LcOgTBJaw6VVZJrMp/iwPsXs05aT6I+hpLmfTDfm+bj+QeDCTbSwG2PIsD/GyzlEyPs2jyliInq1oFrJ2caVq1YBc7NT5MWDZsW4WmZdCVCsNMF9S5iW7PCXhJ5IfUodS6fyteT0xImTmJyYtOGAIk37Gi9G4yn09I+gr38VMr0jCMfIkAYsvI9co4ZXJ9Cb9LJUxEntzSuG1DPdc+Urkj935MKUXc1fSOg73wCF10LUXuTUzWvUDqulHMqFBQrPORSys8jPzxBEppGb13bibrWWXkrURLobIvPpCUAcsztx6Jzy4/MkQe+XR/Oil/lGCnPh9BnHWxi62+aUKPwFyAIT+0ojAUXzJnIa4kqnuwyIpR1ruFFLiAUMGppQmkqrJm0xeJYEnsjCzfqo2qSyPYf3CHj0JUgNoelcZSkzXVmDsk40MS9hqbkcxRkcGrY0BBDaPl+rwMo8VznU1vrTCkANe+Vp2WilmFZFycrRcKc2/FPerayqSJHqwjx37v1zlQTAzXYM6NFHH8VHPvIRs7pDCwXEKeS6urrNNCtWKFTZDLV6DHMEzWq4G3lacjOZELZPz+IoLYU3/WQG179oFN1d80wjRx6j1Hw6xAfp6/XaziecJK9SeGYpkYvVZfjnjx/Cxz/lhHSWz1TutRPWRgLaT77iPPzCm67FCzevwHM3jyBVWcB5y1dg5dAyrF81jMG+WXz5y1UkktNYs24QyZQ6bxllIqSqQWymDSipLVke1EFq9na+fPesmLZyoSUVrtOKUkgig6mZOWy7lzzMPhajZacNUSXjyUpmdelEkFRkgvlIDNl4FDPJMI6UC1h7KXDTa/vQ2z+HqJRIlknwoKSVlagUJutY4spe7NtXwd33FXD5NVdiy0VXkF/J7Ywr1VVPskkcU9JcGkuRlvicitOmXYD+KSDZobT8dIYdRauG5iigJXA0jxKl9pbOjGB4dJ19zc4QRe1n/EfmV+MbE6mhyQRy4qxAUOlY6bf7rbkVy4Wdy0qRNaKhLQ192XsiBDfNgZQK8wSRBczPTCCnifbZSfOLBJVSfp6WiIAkR4Gq1U4EIQKTXmBst0QkdFVsD2zOMTyoCpsbkrBUgDkX7kllsTA63ak6lIAVMGhORGCSIXDoUwICEi3p1TVZdwICB1i0u6o1E84S8CKlo+v6/IB9tZLX9d16AYwmfxWmlya1vb7iyILRxLEDFteLtaeYbQ3D+9zwYTD3w/K0FgjI11AaO7uGx5i+NkQsUkPUnIom8VVstYvnD82tCNCyBLPjJ44bj+hcaagSFFeAY9US3HMuk/hPYK18i5TnvXv34qMf/SiW9SawfJhCnCbCLLXycrwXDarFDWr2iPUgH84QTHpwMFzAZPcC5uJ1bL0K+IX3XoX+7jEkozQbGpp2dml/r9SQiCRwUy1ATdY0rYJCpRcT00P48F+fJMhrKIwCl3GHk8DrX5DCL7xuHa5fV8Hqwn6sipxENLsPywYJFln234U5dNEqXrtmLYHqKG6/E9h8ERWMvm57K75YzdsOx8IRvXuiVZra40tDwbUo+ZCH6tbq3/GqAxUiEcGOvEN+6upbjcNHJ3CMVlOsSjiMZqj2kWcp7cO1FNW4GIqRBnJ8VjYRwWwqjP0NWtHranj5m8I4f2sM0WSBPFujkZRmu2RYB+y7ykIoihJ5OZqkX+2ikrMC3/jWcfQNDeCGl70GVWZa7Gacxza1laOqduu/qs2lR0sMVHTQcupILcHhIkno6HhifIrC4wTNTLdzsWvhOLp7hrFq9XoKNKfJ2sovCUkJlkBGa4yzHqYQ4p8DDZ6bc4LRQIQ+D3gffQo/AYleQHSAUkJDW2hT06oU6QpztDxmUJifojVCjZkdZW7qpFkkblhrzibiNbdilgi536wSAZ4rlj1TObOy+uIGTmESMG6+QgLfaT8W1bsgLTmRfMVVfclS8ICiYa4MXTIRvP0eWBJmBWguhwJcThqYPYsJ6VwWhQBBcXWfVuQIEGRh6LrPn+rR3ry3c7e4Qvf4NCQsE3y2AEdFLhKA5AQeyoOGrWQZCcwUJ0ULx1s3skTcNj1ZAy+lxZKaEyApr1qaLGXDtvJhmqoIWTdVpit+UDyrH/s9d0llkTNepFNdak7ln//5n3HJ1lX45V98OabnHsHuY2WUwlnEuhsoRUuYr+cxE84j19PAGKaxb6aOl74WeN/7rsHykQISsSnW3SzTEw8+XdKKv4YtGS+yHfQuSSgxgHJ9Bf7qwwfJ79LMgbVdwBueP4C3X78Wlw0W0JM7jEyFqn6s5LR9trGsrWQszvYnf1FBW75yOTX9CYyuLmJwtA+xDHmBAl6Kj0CgVKqT96Reqg+4fsxgI4GKhr60Jx8SRB+G58lLQyPrWN4+3H/vOAGFPEsrpkJe5dNRocwokCcWCH7ZFIElUUGuq4gx5uvy66N4xzsvpbJ6kn23YBtxRhtpygENJZPHtZiALFYs07rqIrhX9JL2SnzxywcIaFG86S3vZi/X8JjLX7XMMy0XkzBinZlbgnTugorq0zuj9oCWU8cyPwjR6iJ9tOvokTHcf98DNgQmmV/Tao1sAcPDy7B69VoKsjgFaA8FIRmvRqETZqMTfCg6TevJV3LUbhywVDWJzLRtUpscKg3cJvwYHqpV6RMMagSSasGGtBqlWdRyx1DJHsfC9FFMjx/E9NgBzEwewcLsSRQWJlGjNdLQCi9qRLJAtEKLnEknn2VRxzChYac8dkJYYfI9mXBhvvySaLuH6RgwMn82AS6AsmcIdMMUwtr9l32XAl3DTnrLXXMlmt/QKiwDZsa3TwvzGRF2AKWvFVd6EUzg4gQ2OxEtDGuDQLjJydIQcPDMGkW+7k+mNJzmAEP31+j0DFkMVk6mo3kes0LkC6BoLaW6MognEwYmc/q41xQFH+tdL7p2M+/xeJTpJtDbk7FOmc0uYHp6igCTNatFwGZv4LNcBqIUUgKQLK8dOXocJ06O09phW0bU6fUSZ9gmWTU0pnzKWZ0HbSHyG2guClxEuvZYerzYp9Lp726RQFhlUX3LVx4FKv/xH/9BITyGt79xAK959Tqs25DC4fFJHFmo4SR5/XCe/SBVx0KogEufA7zn55fhta9Zj+XLBfRTrON5PlzflJdYP31urb2fgCS8EyxBmG0Up1AXNy7UspgtJHDLLZOYnQBW0kx5/TUr8HMv3Yi19ePoLkwiJl5lP1Q7SIkwNg93UZlgWeMFCuIqyrUYxqdnkKUA33LpCELpGVpFJej9jzBxokcz9xohCDMt9l+RupaGscKB9aJ5Fm1Jv5DXcQhdqTSGBrrQNzCDwxMV7NaXhtMNlJMZzLOvjBFeZmjNFbrqmGa6J6j//cibgLe+7SKsXF6k4njSNtBMCUSkWMVpxTfYVwgmWtSSSEVNMdJqr67uYXzlq4cxMTGPt7/9fbyWZNvxecqohg01L0QrkYzIgFY/X0q0NCyV75lCOHpsHIcOUYgvzNsSRL1lLe2pb2AYI7ZlSzddhuHqmBSM5OCKLcmVIFU3YJOSCWpkbg3FuC8f0rEz6yVCjbJq2S9q1FBokZTyM1iYo+5H4HAgsg9z08cwzx4ka0RDWxoC04KBhr2EKeah47OISsbsAi11WLM0JKCDTu07sZ3xWL60e4sbnIt0j4SLfCfwBCYOSJwV0xpC0gopzZckKawFMu7Zqjl7hKUrYe8EPjV5lluT77IQBFTu2a28yVN92dwUjwU2eo6OBTD+eypKR2m4OZKI5UHWkVkbihxQvkiA1rN5LIEupzIrnoDQD7GVS7Ju9Oayrrs5EoGlhruYbcuzgEWuVHJLjAVmGvayoS8+k6xh4DZPEJogYE1OTDFPwUIPq7ugczOe22hRbaVOL2Irqa0kGUhWAitHqyxPh57sbtWdSHXmQU/Lrz/2sY8hHsnjhudVcOGWGNZvGsWLX34+XvwjI7js+Qk854YuvPDlA3jHu7fgRS9ZhvM3g2WdpnVyku0yy3RpGVAw+/Kcjtrb6XQkjtRrieI/W3Gmoc2E5jVH8bnPjCNLxf6Gy6P4iZsuxNrQcaQL0vQpSGnBhAa6aSm4F3Y1dCRBW6/TSuGfFhDU0YNDx+cwUwC2XjmCeE+WCkgJ5Axop+KIPsrFrGuS3Vko5MeGrBP2F+WMFob2CSuWG8j0JtR8GB8fYz8I45LLNmF0TYFWSgH7jgCTuSLBN496pow5WkkzVDRWsb5uem0Yb/2xK7BihT4LcZT9uowu3q83mstF9T03yqDhc42CSJ5QDeM5+0e8G3fdM4YDByp42cveSitp1PIp4BOFea/7LKcGBzugcs6QGm9icgZT05OYnBrHzOysCTNNdae1U+vgciS7BhBLkIGrNHPJDBqW0Vi/lvbqy3nEFvfqLY/D7GARSh6bwJN1UcvThJ9EMT+B+ZmjmJ06jOmpQ5iaOIiJcVokU0cwO3kSWQJaPp+zJcESqKbdGqOT8cTNcsZN6kASxmJ7+QpxXObDJTTafSewmYokJ6kdUER+l1kJWAliORsuCoR4+9CWSPfK+WdoKEkCWaAiUri/pmf7uD5MpLgeNGwILAA+hStMeVNcOYGKrvt8KJ7S9EAmMOdTW89g54xQkNs7LfqQF++t0LJUHjVfo/jKs54fpyUyODjEfDIOn6thNQlcW7jBY58XlcOXX/nxcbL65jrzIBDS9i9SRiJmxTAvQf4FTErD8sdzc8GMlzUdw09HCj3VnY4eL/x0pDKpnVWuz372s8gvTOCijVlcevEw2XcS8dQcLb55LBuu4YILerB6VYXK1SS15gneN8XyLLB+tUuDnkvOY9lNJ3kcUpmfiCQktd+XlsuGtVKKclJDjYnwAB6+axKREvDOH12JDcPzSOaPI0aN3lT9Hlqw6lsaLpK5w75HrmIa9B2+0FoZxElaKkfGgKuetwrpPvJJiLwUipOJmY74kvGUByPdZDMW8tVeEtriVUXV94Aabv85BooH9H7UNVevxYtePIC1G+fQO1jDmo3AddfH8CNvWIFXv34DXnjDBsqRecoOfeJhDtoYM07e0Iud2uIpmqR1pe2QVInMiF5JEEtoqCsaH8CRY1O47bYGLr38ebjosksYblkyMIzoIzEWIqVBeV569ANrqajTF/RG9rEjOElNRJO50p9iiQzSmQH0D60gsPQxnoSeGE3aJpmMvoY166WKvVBln8mVBVPJo5yftSW/ufkxTBI8Jsf24+TR3Th5fC+mxg/RIjmJUnEGNa04I4NS6jAnzgJxL/1JAAeCUrnkj3MuTEyve4x46gWwhJ8/9nE9CIgk3LyAU1wDHD5HFoiEtrNInPCWc5q8AwvdJ0Esp/T88/ySYKWp+HISwD4viq97RT5fOle6/j6Rwnw+db+ATXnR/brP3+Of7+MrntLw6SpME/4SnOr8FpfOysq0iwSUHEFB6QhMZJ1qyEtl1/JnPVvCV8Cj+3196DmWRvAc+Srr7Cy1YSojtrKM4KU0NYmqEruhRms4azKRL6+Rrn0PdLrYT5aCyinSc1UXKp/qcdu2bdjx8MO4hBr1DTdcRIvvEPN/nDydQzycRzpRpjZ9HOVKlnUpgGV7SS6zHHpJUaLM9BzLwOlzsaisp6EGL9cEAkws0iBQaE2z5hrraWSnIji+r4BXvngY0cIYMhS+sSQj6qUZCtMS2yCZZD8ReyqIz9J0qDKmEtfDQzhychrHpinoX7wOyW6WoZblZQpgPYiSmTqFWZ+OJJjV34I8s3AaCvZxNIKhBTXGXwQlNi15hnwVnablMoIX3LgWz7luBFu2DmPdxi70DpRRbYxjPnuYPFBAOsms8R5ZKFJu2HvsC6ksLHlG/O1kkQzbap25jGfYJj340pdmsGr1Zlx/40tMBgkIGY15U99RRlXoJ67nc5V+YEGlqztjw1kHD+7HsWPHkMuT+dhoZCcyfZya2ig1lB4eU+skw7NrsnNR69ULiNqKWxZLKYdSbhZZDWuNH8bJY3tw/MgujB/fQxDZj5mJQ5ieOGxgUi7M0LrJ2SS9tnRQz5LQdIAi4ah8OeGviX+dW5B8dRz6Fp+MKAZz9zphfSopDQlXTz6uBIsHDk1gtwOKrksQeaEscs9tCW2RBKzSkWD1AOLz4PLunAcPkY8nkq9zb+Uojo/n8yhfYUpHeZLz1/2zlIbuV359HB0LFGyLFgKE7m9/tu7VseSJtnDRkJZI8XSfnOJr7kjbychiUzlF/rkiDW3p2dodWavJpJBowlkgo+XNmo/RHI7azgsNDy6uURen98TkblTsdud/H4/a60p1qjLqfHx8HF/83Jcx3As8/7q1iMTGkYwV0NPVi8pcDpVcEVHG1TdMNP0gYRxu0Aqr84Sati1HVqJMqymXT6EnK5s2bNT7KcaipRCNDCo3tAbClQTi0SF8+6sTWN5XwXkj61Cdm0Ra2/pquJLxYz39qBYE4pL4vL/BhGTtsI+WCUqVxhD2HZ3AdAG49vrViGWy7L8LNjlvy+5ZNlYH+Us5ESkzLJevz2CoWc3uBTmbmvdUkU7xWcxELjeJ3h4tCJlBuTRpfiM0z+foEwzTLNcs+xR5T0NVpKqwjNlNxqnQse9pkYjrw3qqAxbxVJW+9itDaASf+4/jSCQH8foffRPr073GoEumrFjNu3wvRfoBBRXXOBJse/fssT2j5uYWbJirps3pqBksG12J3r5+aiyatJZ1UrPJ83Jx3lZo5WdOYm7yKMZO7McJWiPHj+4yf4LWiSbc89kJAxINh0V5r4YOpMfad7Wp/Wm4xFS2Ztd0wtidSwCQZfgjZ8Bj2m/L+Wu6R84LZy+M5RRPAsU7r3lrst3tGNyyckQeULymrnskVNuf54+Vlnw9TwJdTsftcVx5HOmaBwAdK057uiKfbwnsU0lxlR/5iqOhJwGHvQcTpGkrv4K8aG8lnXvgUjlVFmVJ769oPkbb5ausiq80VWa9Yb9y5crmm/j+ee15FIW1LFXX2LGrTH+BVtD4JPmCIKOwLAFHwKXnqr5NgARlVRI+vScmX3+telxMT56GyubrWb6A89P/9s82Wf6c5wxRGybolaeQ0Et4pRqS0RQFcQaFhYLkOIkWYSNF3mXdSwSGNEhMYnkeN1dPUjbdxy7GdMnXFUEKrTybxK5hcNkIjh45hntuL2PD6h4MD9CCzC7YIo4QLcriwgK7DfuTPrKltAgoVSmCsQRqsR5Uwj3Yc+QkKpT/l103hEjXNNPOGq+bNWRmFp9vvyLlVSUL8mzX1Z8cmMhiSQavy2cXNJRaRF9vly260dynXqTUkFQ4ouX9bO9ojX1DqWl5PG8TGKjv06laxAexGOtcF/gscrUK4XiJrqLhvOgobv7KUUzPhvH6N73BFqLYzcoefa2alOLCMwtbavQDCyrSHvWOxBFtoT49Y++taN8jp1k2sHr1GvQP9puGUyouoJifwfzsGOamT2CW1sfBPffRKtlBMNmJifF9mJs5gtwCmbmsNfwF1LU2ngwSJRNp517qKOQhdh7a/Q2ZuQwzTpXA4pGcgYecCXsJXQ8m7QLJdQpbxmyC1AlNJ/iUhhMgEqDeKtEwl86bYRRy+nyvv0/3+PvkPNB4QSxf4e55bl5D5M+VRns6Pn57uOIJVPy9flipHSg8AOhY4T4fOvfh8jUcKW2vUiaAsA01X+Lec1F9St6xq0ai7HyKp+/p87mMo3NbWME6m5mds46sVW0CEe2CvGrVKtsxWS9Q+vryz/T5NGL62hA0FGZbsuWMl5Qu81+h0wq4E8dPmNWiZc4SAFpZJuHlSMI5OHxccu3c8j3p3HPMEyfi68znW22i45077sQD246Sx+dw+WUjtLxnEWFdapdgbWlfp7USTwWAWYuxPKwDgZPmVSg0Q5q/pkx0nPtY0nOemLR6LoR0JGPvfRg8sc9UUESiL4b+kS588xsLmJufwfoNaWrwtP7Yl2LU/KdmK+hbGbelvsQj1KLMYyRBEEmgGIpjilbMndtnsOoC4KKrexBKjREZggU2VBj10qX25zKLpElsSyuL6paOwl6Ayia303KRHs+Ja+QrfXe+RFCmohCkJT7kA6Cdh1npKOSpNLLNNaQdJx86XqxRAaLiVtb8iYbPLCqVVdW5aoBtw8QrDaYdHcG2+/LYsWsaL3/VKzGyfBXzpHpS3Vp2gzqWW3r0AwkqYiAT9Gyo8ZNjmJ2ZxdjJcdN61dACFQmWBO3/7MIMrZFDGDt+gCBCq+bIXhw/tBPjJ3ZjZuoQLRztbqyddHNkDm2Poq3zZdm4uRcTdpSjNe2pTaaOhjVnESdbMZCcKrZgDMuXJnrV6QUkXph7QBG1BKsTYG6Cz3UExZP1IacPYsnCEpgYoNAZUJFp3aorJ2SUlhc0Xmi657u34XXtVKHvrQ0f119X3FPz6QGkHSB0LEBRHJ0rXPcprtLVfSJvKemawv0Euks76IxBp3IWibNU/NJq1Z/i6l45Z4G592T0QbAVK1fZlvraPVlDXfI1tyLQ1f3Kh3xfFuVTpGMJAOGXwEIap7YB0ZY0en9GFpAm9Iuloj1PlsH8/IJZMtrOX3MvcfJVUFVBCZ4O6c7Hv1v5FinfyrNvG72surAwhVtu+bpp19c9ZzX6u2O0UFggrVZktBAtAdp6Zk2wwhCNi6+kzVM4C6g1JSBD+3Ge75/1+CRQlcClcpMvUvjy2XFaQLE6Zoqz6BseZT6T+AaB5djxPEE/QetgNS3LCLp6E8gWiijROqhGk6hFlqFE6yTfSGIqX8f+E+P46m0VvOiVwKZLBgg641YOzQup0WIRbeWjMYNgeLiZVQcr7odtzCzJ6VTdRb7m+XmJaTCAfVlAoyXqiQT7VFQKi4uQSsYMPKIsn0BHio8tHSYYR2LkK7JSRGDI6KpVByqsatZzpVEkqAxj964o7rpnHDe+/Eas27CJeaHJRPL9pi3jS45+4EBFDG88z1asFCv2ZngxX8CunbuQnc9SIOSQpCafSMYpDKZpnYzj5PGDOLTvERw7tAvTY4eQXxgjs2hFTJmNrbkBjcWzsdkZpREZz1G4SFvR+y5iLur/fCiFpPliInYiAQ8jS9Brq21nlTgB7QSBcuwYSd/U95q+CTbeq3h6V0OC0juvYUs4ytdLiNLIJewkXHWPwiRsXLoOJJSmf7ZIYf66F+YiXVc8Pw/j79F13ePzp3MfV85bTQqTgJew9XEVJteevj/XseIoD7pP5zaEF+wrJqdnKT0nzN0CAisT79czVV4maMcCj+UrVrKjbsDI6CgBZdhARsJe8dU2iivHx1qYgErWiM51nTVFj8/VKUlWiJQHPVdLpn2b6GaB4dzcvE3oa0sYgZGEsftomO5hAkyL/0Z2TlL5lZ7ieKvG1ald1E/gTk++Pf2xr0/V08joCG797ufx4EPzWLcmjEu3bkIxd4T1WiCwUNjGKYFZZfUIwTrMtkeJaYh3qGEzSRXNqQuP//wnJlYC09IcZYz5CoXYVuRn07v43Aql9ap1m9A7UMG+vVnceUcNRw7NsqJHCSLdyNUzYCkwNt+NE9NJ7D9Wwnfu2Y9v3DmHiVwFV78QeOUbr0M5NI5GNGt1qzqUkmcNqoZkX21mn8+2k6COdKz4OrUQRVcof9pUGaarfIvPAuVObKErxgc8MVRW+XgXn6kVpHq0niZLyJ6htMXH/KtpQQDBqVLLYHysF7d+5wTWb1qL5z7/Rt4n5c31E9+WS5V+MIe/1Kp00uDZ/XHyxEns2bUHeX2WViszeFGmtz5sJa1Ow16F3DQalRy0waM2eiwW5skuZB7yS4yAkJDpKzFDrnHWgDRybWmidyySFDTsLYpBIVEl88T1AaIAUPQBMAGKMTGdGFQCV84JdbcFvK4YCGmNIiO2g4hAQs6Di0jnBiw898LZp+nnEpygcmkpviddE+k+/xwvwP19HkS8UzoS+NKGPeMrnq7p2XK6R89vz69PWyRf90oY+7jy/bNE6piyTDRnIRCR02oumyNRfSkun6tm1pvU+pLk6jVrsG79eqxctcq+Mqlw/yE1/2yl2yLl33de57sytTk7dzf5UP02Q3ldaarcbkl61ZQWfVdfX7IUyGUy3a5eGU/feNF99tY0SYJJgsSeQydPaSmSgE7Pejzy9S9SvfkyWn3zuXPZIr75jVtRyM7jqsu3YNkyxZfgpvIhYBNwMMgm1XXJKseVTeSwr/WM74l4m63kpa+J82YYnZ7XCBFsEmmMjizHpk2j6B+MYnJ6Hg/unMa23VN4hABz58NTuHv7NLbvm8TYwhySg8AFV6TxvJduxLU3nI9I1xw75iwaEb1AzGKpzvQoPsRVDUtgvid/It/uYHyV11eAK7sBhFFwf5uTJ7JTPY+SQm/P253Ni66NPSn1IIYBq+3U0egmnwzhSzcfxujKZbjplW9k+zlLRdXV1rRLks7dre+/T9LW1lpJJSv4m9/8Nj79b/+Onbt24+jJEyhQiJdq1Mwo8MX8+gaJXkYUO9lKLfpVaiHSSDW3oTfEVU3SWPR1Sa1ll0Ys81gaabEoECqhXJLGL+HqND7pvL7zSwhKAMspLXtbva3qFc0LYZnSerYEhcLaBYgXykpHvq57gaIwf4+cziWs9RzF9ffKKdynIeHnLRMPSLpH5/4eL/B9XJGPq3SUbwGOSHH983WvL4POfV5E///2ziy2riw7z5vzLA4iRYqaSqVSVamrqx23u5Mgjo12PCRxbBhOYsCNIAbyGCAB/JLkxQ9BAufZCBLAD/G7/WIkMezuzuTYiQFXV9mp6uqq0jxRIkWRFOf5ksz/rXXWvYdXpChWSV1N1v6lzXPOPvvs+a5/rz3idxAm7/CPKzNl1oq8xG3EgSvhYOjSYqCdMRPKgjJhNhfu7PhXC9PzBUTY9Qi7crx0J+PfSgzYFZjQ4oqt/AMxk8/uZedjOxU1QprS6dMjFj/SyFHXgycHrOvEnMuv6nfktT0QgPvtiysLBwfA3dfSii/f+/hq+if/+B+mG+9/lH7jX/yV9Gu/OpB6u2+k5p2HFk+SRwpMyOvKEAQLBBtlAc+huVQTfEhs6Tt2+cXjFqknTdvyV2lkJTtTjSEzTkpsSANpu9KelsUPs5OVNDOlBt4SM64seja+0dbelHr7utPgsMp5sCe1daoeNayk9c1pebIoLYDS8vgT3QapQpZrDWx55KimAlYrxLwB9/Yv7os6gJZl6Ze9jH1WglUZY01FsMqelpu6FlqN7PiMdKsmyp3quCK40Sx5scOW+19Jv/LNb6czF19Jf/jtD1JT2wnzlzG6aHQcVRxbUqmo1cj4A3r8X777fvrWH30nvffeX6Tb9+6mueVF1QeGBiUAMNtq6emOnzEtHhukbWpX1UCYeT91bx+Duwh6BqFbbRYRfejsIcV+U7YdyGbR+lclqkgoUkv4wWMQtHFPxTHIcwSqEYmuCAYTDgrTulzkLoQdbsqCA1LgOb4LdwgwBD/2hInQD8GPO97hF+5DS8Ce77CPOAKesQe4xYQfGNzxfZAIZIN74oE97nnHNxFHDIiBfNxzxT1dN2gwjHnRqocUeA9ZMAYWW8kQNvmPPcRCeJgIg4V2dqJniVQibNzgNtIY8eGKvd3bX/8W0qgHrnBPOTqpeNi8QWBDKkzgQDiT9+Tj6OjpdPbMqO2ezHHWXewKQH2SG4ub0oxmG6F7KPsj4h1xLoMYL61X0m//x/+Qfus3/3Ua6p1Pv/GvvpR+7qd7UmvTzbRTmVHqyCsRbWSRvLNWd7Hy3KbnmqA8PIxUkLfyprmiOipB37RF16gaK83rlsIN2W8z77hFQrSlQ42wPmW56hTb1isPt1YrqRXtn5b9NluciGn0rrLJrLvt1N1JfItcUjTtXvFnsN6aBHR/BUhOcWuNBSJm5auU6t784Ak/eNANckGlond47u+rkDuowl+UX5JfylOzIi8JzeUK4bBNy4Ye1neG0/Lm2+mbv/bf0uMZjiNmg8nTJNu68nzLpvpAjw6O7ewvLxwvGIQUXSlsMDk9O5tWGWRlPQoVAKGAe8qRSqV/+hlIIEoINzWnvt6+9OYbb6av/djX0isXLlqFXFpcTgsiEjYn3KzQqocoRBo7dM+sqqXF7DA9S4thcM933pVmUAgo28pE0iS6xmrTf2klyujKtias8F+3bUhUMSV4cU93iQvEHQlXTlhkALnNhBrfhPAPUymEPsAPBDLuw86EI4JQJtyWiYBvyEcTfDIhQLH3OHlXHN+HGwx+YIf7IKyyP/EN7hC8EEp1HEZl0NXdkzq7ulNff7+ddz86eiadOXM2jYycro6TdDPwrrTgG2NKVnrETfmEllNGhEkcIh71wN6uZogFbriW4UIo/IlvlBT3U8/kT4SPFXeUxZMns2maUywXFq17zkizFWLhG+Ikt+adh/EsRBowEQfurRxUmSmW0bOn0szj2fSnf/KXytup9OaXhlP/AJt3cqw2Qk91XN/RkILc/EfAdFau9ek+BIoPzUtuIKodaZFGWKsWXsvOgJ1J39S0lDiRcr0yl1Y3ZtPaBhMellJLE7+rRcVmXu913fZdu1tEQpxLgiLBUhaWijQq05wcCI24F7+x4t4jEW+UZ6SzGjnZ2DNv40reMgZH3Rax6d4NTAlF0DAxVzL8Fgtj6pJu+SN3HgQEp6t5C7FwklJH2thuS3/+7sN081ZKv/RL31QdHyV0k1tQmqfFPDtyOJakompjP05IA4po7/BtGG7evpMeTjxKC+xia8LLf5D8uK1SmkGYegu6f6AvnRwYUKuo0wbll+kvn5pOc/PzaWkJzcTHLZi+y2aL6xv6cYhQOCqXrV5seivhFD98Gy/Rr937+l0oY6w6I1EEur2wYzwohIY9Fy16ngkTfxBeIVywQ3AhVEC4x4Tgxx3vg3B4xg/eh+DHRDhh+MbSKRMo+4+b8JMxKx+3cuCuTHz4hQl3aCZcySfCRhPpOdGbzpw/n0ZOj9o04NEzZ0wzYW0JWiNjBpZu+W/kRTqKuGBvz0XeYJ4XZbcmMLxgZB92/i/CNU0Ig50sma5urvQBdYv4eLx8+rNtAcMsMZGo70W2rvImf0Qw+pLP8ccF4vOBvAeRVk+37CW6+nr70/Cps+nh2CfpnT+/L/uJ9OaV/tTfp/qg+soi3Sa6u0irvvHv3C9unjcO9eB3xD5ckIfnFv61Eor8lgaERoTA5rjsbcVDWUinAhuDMpyI2G2m39qmY9GgUp6QzaraWLFIktX/rLpno8iGQoDbH8Xd8kJhYEFSDPZO31avRI64FQm1e0jB7e1N4db/4B/x5pGU0Ihx9xaGvQjgFgLlnWsqAbSzrYb2tLbVkG7cnk4ffJDS17/2jXTlrbdVV+RA/tAdbxMBdnt6ZHBsNRXYXuLG7hloR1395Op1kcpEWlxeVrnrp6TaQOVhcK6psUX1Q0JAlYEC7ewSqfT3JNaxsOHcHRHS2IMHtn0HUwj5BkERi/TQKNbXUc9V2axeeoWmBYrmYeMkDBojaBQ2xmYR6ddkC6NMeAXxOBGYG7kPgc/7EMrcI8QRUEFcIPxGkPNtfMd73IXBDeAdbggjiIJ3QTrhBvAcJvwsP4c74hfhRnxwE/GtiJy48oxbCIeuLdaQQB7sJH3+witpWFrJsLQU3vnAu/sJyt2DlhbZ23oSpQ0/yWtrLJh74mqfGbgPe4dfy3YmEKx2FDbhtABhECaokovKmmnI+qs4+Ttb3yK3vrWL3lEfZJ7MPpH2vKb6FUcz+1gAIUYa64J8CrgLt6B2r7I2wdSSzomQhwZPp+++85/T1aub6e2vbKbXL52UYF4Soaictlq9pW9jAXypfNuhy7OW/sOiUQK9ZUt1mwEbCVU2cGTHb8ZUfENHGmLrqvvSPJT+hk1RyLKoZJm1NFupU8GjhdjPVyTC7isNW6qfjW2pQ78NzqRnewzTVCAvOfMuI7vRs/w04vL8gEAgiCCJ8r2lk2/te7/fERsSZ9/pWBGwmWTkB1caE/z+5dwCdmNeBUyboR7wO1XZ87KI3nZqly8iFtXPB+PL6c/+z1Y6d+FL6Sd+8qcSp5tbPPQNqajz9ciAmB9bUN2sAum+raNNP14fG+k9wSChCpg5+SycY1GkyQiEkH/DvmGra4yXzItInqSl5QVpJqylWE+rqytqcS7aWApjKqyyXluVsNyoqCWlHzTTa/jBI1D1o7FBd348eqYVHTOXIBq6bxiLoFsqWtoAfxG8IbAD3OMOgVyRcHYB6uMZMc5BNxJnitAa5j78QSjjjtZ+bFGCe96H5uDfLlcFPgIboY97DPf4E91VfIPf2KNlYPAfNwC/aZ3PS7sjv1grxGr4np4T6YQ0ErqyWIj6+utvpC996a105coV3b9uWklfX6/CxC8nkCp5Kg9sPEP+G0nL8MwAvZW10hgTI8x9Hcr5+UzUOfNHhIuPCdkYSMRr2+Pmi1W3LP/oPm1p9T3M+Iqpz6xhoh7gGxoteU3DBNBjVt9ttx8oe4DfRqolkBfNDb4XGHL5b/3s303f+OlfTjPzKd28s5gWVlQPiRMCHiEpAcxYBLt1i2b0Tvek0n48n8KA4spfu2M8pVEGcpFFSzsCFoVJ5Cch29kuDbWrJ7UpKRUpuhyrwiaNaHGdcqyclDxXvJVVGyswjYLAAwN5xu+E/PBnrx0Os4qrrLmWDYhrGfbe/uAXv+nCCPuWUpFuiAwiZdYxExOw5t5ey76tbUsao+qCPBofQ4t0H712tRTXo4ljSSoUB4SC3rGzVRS/auAbb1xOr75yIXVzDgddMvrxNIpYWqi8bc2pQ00kVhq3tCHs29P0zFyanJpWq09FrObG6qoIZHVR1WszbXJ2CgcHYUQ0lU2p8voRs8qWqcZoQZL2+iH5D7gRgdLO6ZMtaqlQ4fTDkXumydK6RjDGmhMTChCR7hFUIfQrEiQhJOM+BCQCFPCMVWWLOPqYzJoIEsOYC61kaxXbZy4Q8RshiH8QFKa1XS3YZuLCmAfvN+wbGwdC85I/CFVWGbPup0VxZaYLhnsxa1pfWU5LIpNVkcqWyJsWMYOvCI/W5jZdT6S21g7l67qNN0A6CFUGsE+eHLBwamNKXlW5dyHtZUKk+AYtgHxHQ4G0In023mUr48grc273Bxuh0D4QBGS75bf+RX89RLKlfOZ0T6KHEGQbK1qokDfxYIEk5EKe8jX+cFZLS5Pqg/KiVaSDf8oua9GSp9bA8RjsiyDtQNQD0KR4Uz9Y6Y1A21LL+yd+5u+kgZGU3v8opam5xrSlctxqkTbfvK5Ws+puQ6fcduleWqo0CTIqGlkem9pz2W4vQ35ttUgbaVKjRzZkp82CUn7ZsdqysuqKN2xpojhUGhdTpWFFV/lAF1ir/FC5cmoqY5VNIqTGYrC+Sd/YzF960JQ2jPd2UW5knsq7UeWC4V6I13TJMQ7DZsCsB3Wdwt9bddIVLxizqRqbe60rP1oZuyqRXL1eYLAzX/RKvyuFvcUCTnm+oVcY5qNVrP9Ev6eNufTm5TN2dMrY7WuSDzSI9FtTdBXUkcYx7f6igEPgStjpitBBwCzML6SHDx6mx48emUvOzKCFHzO7+JQB9WVpI1RqDC1JBL8LMVUOCWeEdggrhD8/cl8TQRVVpaero/jxqc7ZPe+ty0sGYQ4QVNzHM++iG4r4Y4+ACCBUeS63TqNFjgEEix1u0IY87f4ee/wsXwmH8KILDENazT1xq3grHHfh9kRPj7vTs/ktf4hXaDyMH+B/5A3dcczgYryko8PPuocMOEhranoqTUw8shMZiQ+tefKbsSe0I4iMdSs2qcLC01X+enqIo2sllna997xBhB8OfBtQSi2ceMJPyjDykDTinuOQXZNSHBRnwiXPIRTqFefVkF+uwcg/xRc3uKcVzjTjQdbVqFETQo1oHDbu9bCBf10rat1zv7i4kv7kj/8wPbi3lN6+0pLOj6qBs7No4xINdFPtcGyu6lvTmr6jAeD5p5hW/2FRvt/PmFCVbyaD5VRe8aEbLoUd78hhuSz9czsyAUEdn0W4tWfeld/vfvZMLBm9K/+zLX90NQYsGQtTr2JKv9cnfWFGX1Tv9a6oE2bsuXinbwjSD98rkRXnw2DklunFm5v96fd/77HqR3v6+7/yS6ldjS1GYCwcj92RxPEdUykEUAiKZrW6Ozu7rSvm6tVrKtBN76cXmUAiPnOqvKrdBUr4ERUMocL7EPr1JoAg5TmEEFee8QfDewz+8K4igYy/AeKBQUsJ4ezk50K/HB/8xw0mhGu4ozVMpcc+3nk83XAf8au9szf2w8MaO+KJkHfjq9N5h0BnjCnGlpgRx5W8pRuM7jBmctHdhfa3ovdT0v5mpJnglnA5a2ZeJMTYFac6Ts1M22JH4mBdepY2trRHQyIt7MPk6bJUKH72w9eV6FfTYn+fH5F2T70j0m/jIfqH35gQOh7/WqPA8tyIJsqW/KH7UeKCMrRyZxaeNLaerjR8aij19fWZ5ke6LKzDRvwpqE5Yu7gYv1MaHo8vpj/+znfS1Q8epa+91ZF+9MqF1Kqya1ZT2teRkB5peI2rlof6TL7onzXv5SXPuvfngwzfIhnVwCKP8NAEr55NYh5gEKx8a0KY69MG/3e47mPMzQHGBjG41hn4hdNejRgtL1XGlHPJ2FHF+/yjrBsryk8ROrs+G3FTPfTzQ7uBzzhxsiGdTt/6g3E1wBrS3/6FX0inRl9RSF73qkR0BEEJHkvwYypD9UAtw9Z0olfCzbp/fBdjxkbo18bQ/RIzdHgXM5NCaHOPQZCEUAe8Q/hDDNghWLiWDX7gJvzEDqETwh//cBPh4leEgztQ/8x9mZzinQtApb9odeEXhnjiByBMBDaGb3jnpFCsFdEz/vEeckDTiHQxXsEpiaweX1pesYkPHM27JhKkm69L2kj/ycHU2z9g903SPFZEOrhjx19m4/UPnExnzp5Lr7/xZnrry2+ny5cvpz65n5Mm+cnHV9O73/1ueuedP0/vv///0tjY/cRhZwpacUXz9DSxHkS/UnsOoxQX5rPBGrLyBeLiStnQ+CD9No6jvAmQ/+QPeUUZz82ygE/lvLZiXaPERx7AwNJsmtNAf1+6cP5cOjN6OvWLUFpt3y3KF6lDI8HL6LNgm3U+/JNX87OVdPP6zbSysOxdPzttqrT0L7VK6Emw2qC2ynt7w7uEZGz4AI+ISsnsZfeU0bfkjuUcdXaf+32NPNnTvmTCn/2M5/f+Zi8/q0bhi/d3GbU9d5n692VD969+1Um/rtSq/JBzm61mRqSL4RAvdmIeHqHnYyGNj98j0p5/RxzHVlPx6m8/AYPqihlayddvXFchjtt550vLS6pjLiy4Ah+MbqoOTCNg0RpCyHJFqJmAKYQLwrpMFCG8eQ6BD/CLcEwoFuFxxR7gDvf0yRM24Zkg1/sgBwzxIQwEGm5wS7gRFuTAe0z4H+EB+vLL8cJdhM01/IorcSBcztpGK8F9jBno1vxDG+nt7bdre2eXkQnyEe2Ebi5+rmfOnEtffvsr6W/8+I+nr3/t6+mrP/bV9Oabb9oWK6xAJ93EE3Kfm5s1zQWSo5WPAZQq4VvA8hVhHMZK3YiAd7Xyfx6QxjJ4rnWzed7xTJ6T/7znnjwizyAUGiYcYU3ctqX9smlpj+pRuxoy1Kn+vt40qnReOHvWuhC7uzpKpEh9ggoscAvv04K8QlNZX99J42N30x/+we+lv/juH6WLF1L6xZ8/p/C3JORm5EKaSWKiAN27asjoH7kHsTDu4CT0tMF+X4Mb/FF5+NVN2Lmp2T9llNfuhjGYvQ3HTagptK/xsPc34b+7rRmOrvB4eDoiTfXpt2GbcprLZktlKLKGoDjvv1aS5K40IDG97bu23Z/ee28+3bqzkd7+6lvpR//qX9fvFPnixf/ZasDnh2Pc/eVCnmK0FltRQuwoy0FGHGLFzCsEJetNEBIIDlrlTGG9+OrF9Oqrr9p2IAgLhHRoBGgTCBIMAh17C4tKJCDAETLYhYAONwHCDWGF+xD6uMeEX4B3PGOPPxi+x78IA/A96cDwTZACcYw4BEFACCEoAeM9jGW48bThLvy07i2lmxlW7BxA9w85S1cPs7g4vvdEb5/Zb24xJsXK5w0bpB44OZTOX7iQLl26nC69djmdP3/B9udCa+QoVwiR8RamFPfKD/L/RE+3Wvvr6fHkZJqZnrbW/8I807ldmNOtRlpIUzm/PD8oC3syu+cF3wa43+uZsLhST7iH8JjZhiGfmK02pDrDOIkdcyBz4kR3OjU0mEaGT6XRkWG77+osusgQIPI/yl6ZWvDh4eK+G3zrfrEf2bWrH6Tf/d3fTrdvTaa/9/Pt6Rd+8cuK55TKak7ls2ZkYrsxqkm9IyaBk43gGryu+H1hFEem3D9lX2c8v4rY6GqGWMW7sv0eBpLdyz7MQdjrm/1MdJ3WvqOLSjcMvNuVd9yXjFHvfkbqSoMalmKlnSb9zgsvmLCz3diiq+pse2darwykq59sp/c/XErnLo7aLD01z5T/Rf7IHEUcW1IJwU7R2G8Uoz8sWnzyZMbIgtXaCE8EJQOp9G2/8sor6aJazT/yI1+RELyk1vNpE3oIjJhGyz3bqCPUMIQTAhsg4HhGUAQZUFHLgg+UhWK8xxB3wsBURB4Y3BAPWvLEOfzmGoQU90Eo+B1kUgvHw8JPrhi6y9yNj1OE3xEHtBE/RRG38lPubMykq9tIoLubLWza9I3STsLkH8TCYPzIyGh6440309vSTt68ciUNS99noL5TmgzxwX9mwBE+RHPu/Dm5fz31iViYUsyWOPiK5jIzM22aAFOlAd+SzhbSxo9ZgVvO6k+R0/b3eRHlAsgHS4/+EM/Iwygf7CA4GhjEg/Um7O91emTENJFTg+xF1qG86UwD/b2mhY2eHhZZdii+1EtBrWVCRMNi3IjgLQ56VgDu5tNA8WaRIH7Pzs6nb3/799O3vv27SUWVfvUfXU5f/kqX2sv3JPRm1WpWnZHDLTWxOVd+Q4KQkt7ZaUlbO2q8SIDW2v+HNc2lqxsEalyfbaRP7Gnv5qB44WYv+zD1/oX7uG9o6VD+qO41uSm7w2C3I4LYy2wz645DyZpVV5r0e9R1my1oGjtSpVF5L7NaaUkra/3p7t229H//bDINnOpPv/wPvqmfTocVIWV3VCENjZ/O8QM/dAQqiWO2FoIQ3L//ML377nv2niYZ3SvXrl8X0TyxjQlfeeWiTWdlPUsIYjSb9957L73zzjtpasp3n0UoI3wRArgL4U12Ym9ThQs3vEP4cY8BYQ9RxHfECcN32OMGAcY73EIouAXYoUHhnjgQJ0wQG2NExJ1nDPd8o//mb7iFUNyda1KE7fHwwWWqN3lomkwrp0o6qXVLs7AFlsrX5eWVND+3YL8EiAHCHhk9LVLolxBlDKvNBH+MOwBkZ4v8ZEqyTxdWKAwA6GqtVIW9tLhg+X3nzp30ve99L12/fkOawbr5w9YtEP5FaZOnT4+ancVVCTTBTHqLnyZ2+yHeVb8rQL4EWXs5eTekT89eMw2qXXnBehrqjY2NMF1cjROmwXZ1tKWTrLURoUQZsJCWEFgQyf5fRh4WpspF4dC1Zpmte32gm1p8Dg35U9lI6fsffS/923/zL9P//F/fST/3s4Pp13/959LJvunU2vQgNe3Mp4YtNS5sRXq78gCBST2RBioBq5vCs90o59PeIC/9uh8O8oM68CwcHIdng3Ldzw+SvbVFnfTfDG65ls2zQL1joF++yItid4lt6j3dwayoV92CwDdH0p/+8Wb6zX/3P9Jf+5tfTX/wrf+dGlt6kqqHjc0cVRxbUgmoOpiQbGlGKKQ0Pv4o3b59x86/YMCZhYucPY4GQut5dHTUumEqauohbAHvOJL4k08+SR9++GEaGxuzwXwEMNmHwEDw4B5DZfW9u3zsgXdBBlGZccf3IN5FCzgIBfA99/FdCCie+Z5rfIPAxi/cET9344KRb3CDCfchtJiui18hRAGEgn+smUHAcvQyYyWmyfCN3HHf3MK0WQbxffditL++gf40dOqUhyc/ohsFYiF+CAzi0CQ71mXQ/cDIsB7tmX2p2phMobJDQ7l27Vp6V6T+/e9/ZGNixJXvT0ib4VTHc+cvGMH09w9Yt5SFIUPNjupdX82JD4j8jff4i3CP/CKsNZU/V8rU85JZXD7dmQ0iyadOkVocAsapbSd6GEchT7zeBbgtQra/T13tIhf2UenDQ0HaBivWm1rSe9/9y/TP/9k/tc1Uf/ZnXk9vfalfebuYtjdmUuPOugQAREa/F3VOrWxbeEf5MrXYx/nIm73yL/Iw7qumUfW4ibqN9rV3GvAv6nI8A57R+mJ8rIyyX/v5G6AcnwXqCGFSnpio+24k9Cs0HGuNrPJvA5TvQTl/IOnEmIrut3c4lli/LfnFvBI+q+xsSlNZURm1pvEHnen23eX0Iz/29fT7/+W/pl41yuj+Oso4tqRCoVOx/AcixVaCETCmMjn5WK3fuzaDyWZzqfi90uxYdw4t7Za2FhMiUaFondJqvn37dnrw4IEJOrSB6IqhkhNmZGf00xIHBA0/Ft7jFyaEOG6CCHjGHe4hoqj0kBPugf3oCvcRHvfYm0DUPYgZZt6NU/vB1gguvuEHXJvSHG75UaN10IXFuIgTUrsNvqOxzM7OygsJ//ZOG09hOxVmdHX1+C7CkA4D0wgI2yQTAlK49KnTQqdVD6nYUQPSUFpaJcSNSFR2+vWtKG85XA0NcnxiPN27fz89evTIDsSiTCgPwieNdMWdOjVs3ZYcG8w2+Iz72C4G5qNDorG4U51g7U3xTLww1BHsrHwUB4iCPGbPN8qZtUnYoZXQzUVekhymO0OeaC39/dJYlL2VTYnnZuJnQRjwyycbRDxq8dl9D3BX+vhQQOCp3iq82zcepN/5T7+T/uR//3fFhRlpUwpqVXkvN1Z/VI+2GENAM1Md5bhh1YEdtbDVHCvVh93xi/oIeFdzZxf5oT9F9Os+NahKq/7xO/H3ioqBZ+zpvgPl/CtjP/uAZfMzUI5T3JftLF6KE3ZhT5jxu47fWWBX/qD5SSMxxTsxNV43Iip2LaBo2KampV2E3dCcNjf6VPf60k/81DfSb/3730on+roUyG6t+ajhGJMKLWzvuikDYUEXynffeTdNzzyx8RSE0vLSSnr8mK6tNmv1nho5ZZUoBDcCGGGDMJ2enk43btxId+/eNYNWAHAbJER3SQirqCD4gxveAxMy8hc3vAvNBjsM3/GMe0wQFKb8LuKIAVzRHiJ8noOY+I6uLL6LLq/4jjBj1tmJEz3FmFNrWtO3kJRtRy/BC7kMSYh3dvXYYkaIh2nCTHzgPYRkRxwXP0AEqa0glxDGzn6tKhkOPrNuINd9bFyBqbhoBrdu3bLymJyctLi6wO63tJPeirQrCOf2nTsi+YeWTiZWsM3LiAQ+a2Ni6q+tt9E/voNkaAlCIFYWanBgx4JFukiJN8Q3K79jqxu0n5GRYdNE0LYgREgPAsF0tLdZV16NsBlTw9cayGOe5XWBvX52ZTukYtmHw4D8VCNB6W5qaEuTExyn/SCtbzAe9UTl1i5hVkwU0T/2CdumNa3PIBWz31pV8LVGUlwDlAl2exs1atYgJI8/dnGNe76nblj5yC7qsNuJ5OgDKuUH9mXUPx8WhAfCn11X/VdM7TniW++O+O8Fd68GovLez3rZtAZVw7Z+G9sQDRqM6u8OPR3yY0e/nbbe9Oprr6ef/MbXLGwzRxjHvvsrEkcliYpERf7oo4/T/bEH1g1Gi3f2yVy6d+++SKFifeTnXzlvAoNZRgEEBoKZ7jCIBK3l448/Ns0FskFzIQyEMwP/LmC8AoZ9/Ii8lYuAdzv8pfWN8Ae84/vwg++x47syqWCP/xFGAMHPt7gH+Iv/scDOtgdRuBieIZLQ0hhwhlRo6ZI/UzMz1vKHqE709ltX2Knh00YonGy4o/xDyEMoTlTJNA+Eg3z3eKPtKN6QiPOKNBm2NWErGGkAC/MKZ4qZXlM2RsPGnVy9WxKhPmLHAzNLzPNEgn9uzsiHciD958+ft8kVaE4QXPw6yRcMdQAysRXvG9I65C+GZ/IGjYSrax5OgJQPbnwPsmZpKu1pQOS2rPLvVR6RTzbW5YrwUwjhxMW0tHiuXuuBPe7CfBoQKkKPFjOaCHkgomvR/fa6ka1qs4XkNQatbVNXGmF+0FqTSAnh9zyoplGwe7XU2czys8Bb+Z8TlO2ef7sjQdpCXEIUe8Hc6J9+jforbVl31pBJHcps/eb1uZUs87XJX8ax0MpkqZ+ityUs3z9L+X++ONakQsooYIQaoFWKDYKF88Rv3b5jRDI3z2ru6TR2/4F1jyE80FSYsUO3DkIjWvEIYbQRsg1ioSXNQDLdYffv3zdiwQ0DuiAEP3YI+CCTyPZq3CQUIZYgBoiDeGBwS5gRLsA/4hSkBExw6r0b95vwan546zQG50kPrW+IE0KBTNklmCm9nZ0dtsU/QvvOvXtpVdods7xOj56VcB+16cO2WSJ+65fAzLH2Dt+k0nJ9h5lZHkd+SAhUVpPbTC1+QHK1tDhfLBBcS/Nzs+n+vTtpfPyhkUlDI/t/DZrWyKw8O4dewD/CWmdPLaUB0mE1PvcQImkg7xgnApS/b8mhbyX5I1+B/dgVmSD0IPVtPQ+fGlTe+AaZTCaw8tncSD02o21Y9l2qR+Qx/hTwYMyCW8IOEJZfZS9Nzcu99v5p8N6/OSwId6OyobxiuF2ET1cTe2e1EB71THnT0CXRRfrl3tZSINkolVaG6G2Nxi54hSoeDgDfevbXUPcpyqp5hynCqgYRdoW9oe77A1H+di88yz+921F5U1GtnMwU78LfA74PUlFzTo841m9FRG5kad9GnvOg+igiXl/fSq3taDc4slKQOXo41qRC64x/IXSpEfzzQm5I84sL6dGjyXTz1h3TXK5fu2l99giurp6uNMCA89CQdbvQT2/CTQIJAWO+KesQQmgpDx8+TDdv3jTDoD6zp6LLCf8QZkEAGPzg+yACKi/vyyQQbiMcDMQS3+A2uqviG/zlvS9KdD9wB5EAurOIC4b0QJqMR3DfI9KwBZ/tPqbD1uyMY9y5ey9NPHqcFtWSZ3ylS+4uXLxkM8AgF8ZVGiXAkFCM4TBQ3dZGWrxrjw0OIRVKgU0YGTNZkJaBVjI/NyO7StpcXzVNhfBYqb8pwdfXf9IG4iEWNBRa2J4HTo5MHGDb+Mgn0hQkwT2grCET4hEGtzQsWPw6+2RWBLUuzaRNmlePaSWQHyvfSQdu0dxODQ5ZNxddeTYexLoOAYI02K9I5amwN5W+Vml1e4F464/8jQ/rEVJnv/cHAx+o5/hRJQe2cEcb2alIqyRPugt3gL8IP5Xfjremqyjfg2dFu4xPH/0fDkCKkYa90nJAHpHbrIRsaGBHBTxgAge/DX/P9vn6VSvHCYi65kd0W5ejaTeujR9FfIE0lUiml6rNXpKAYHzl1u27Njvmg/c/NI0FwdzYTCu/2YQMpILwxcT6FBNg8tdasBIkGPr4r169mq5fv25rKnhmXQXuEGYIewyCCmBfNkEo+E+rGZSLh/t4xh+AX3zDt3wXblisiBuPq6+2p0sMLQRDdxJpoWXP1F/S6TPkqPE7Fr51E4nEmNAw82QuPRifSJOPp0Q20kLkJwPzo2fOpcGh4dTWwbG+0pxYx2Jkgkbo8aMLjO6utZWVNDerPJEwnxTxsjs0XWAYtq1gy5zZJ34y4tZ2g7QjH2Oy7kjOV1H+k1biRJogFIjFSdPzdEfRJ902q0xkZnljXVk+hsL0crq+GCvhGRKCmLs6u2xBLO6ZztzL7C0bF5OGqnxjMSZdYgSzmw9UHoUmVJUBdqW9ucuhwYU9b/3dbhe1sq5/cxjgi42VsEN3ReWPkscS8J11jzwHZm0xKUG3BCNB1tgo7ZCHisgQ4WffyHxKRD0to2xn9UzALu5roA5Tv592/6IQv5/wd/cV4/WpHpGEZ0YHN97udG9wW84OC4LG35rynRfKbLbO0S3HMandVlfHjhaO8TYtRcEXpR8/5oBNc9U/bNmcsE0teCrUJhoBXU0SPnSx0E0G8bDuxAf/JTBt3GD3rC7s6SqBgGj5M7DNuAota6+odD+5puE/rkKL4LQ7kReHOBFXuuhY4c+3uA1th28ICwHqBMFiQ9dgYgFeaFDUWiMSGQbR0SYgDhYeXrz4arp8+fV06dJrNu03CIWpwV7Z3QfSRvyIKave+/r77AhfF9Kt0loY9PVzWzgq2ciLgXcZF+iuNUFuCPD52XnbHfrqJ1fTRx9+lB6MPTCtaFh51cOgun5FQQwWCeUnZ81DbuQvgh9tiu65IHfS1qp48x1urBwoF+UP2kTkE4auOLbwZ5dqVr+jMTFOclLaKFunQCBOAzsW/5HhwTSg8FiE2aX0t0vzInpF9pjQC0FEudkbBBVlq7RYEcd7oUwmQSigdgfKT7vfHBaE12x1tbCQd3Tp0K1I10rEQk4s7238BC2ThX1INP1nJ12vqTXz3PHCWZ2x/Kq7L9uFsU0rsda7MPVuPquhMWGmzn9SXEsntaGWB2ZXuHsW7LV/sBuys3ohEDYnPJpmr/LY3KRBxtoVeiAUJ3d2JHHsB+oPAtMnEXwI5ZmZJ+mDDz5IH3zv+2lcGsvM7GxaW/XT+RBMdIGdO6eW+eCgCS7rMpJwM38kUKicCFL8YmxgYmI8Xb92Nd25c9sGohkAjmnKZDvCuY2jZPXLZiB8XfZUSSMtWmoiMQgFPxHaCFa6rwL4gwFoIbz3OEhDaW4xjQQhjFYS3Xh0I7VLq7DuoaLmVmtAtSbohyRLiI2flO0uK8fMVmH3YLZfYat6Jjo8np62OA1Iazk5OGRhcfAWjXdIh3UljFVNSMtZkgZCkJz2RxisNB882S9S6ZDWwcSBHVvwyILUeWl4jJ30nvA0kOeQtueBj69QbszYgkjIJ1830p22lHft0jpIzqoIDa0RIoFY+uSf5YFIhDKLHYQpx6GhQSMR1sn0nuAI6hqe70de/il9vmKBmFRjYA/8ifhJesVt1VHRIGGNBfhcox+R+zzxGTPgWUmoeh3aGBZFmXyu+f5i8IUlFQR1rWWsjJAwpsXP2Mi9sYfp5t0xG2thEJ7powgyBo5ZHOlCqc1WiyOMENChQZCdCHoaILOzT2yH3Tu3bqV7d2+nR48m1LJfNGKh6404ILZx3IDOy9Val9J+5AdjEfiHO4Qm8YU8CA87hCLvae1ggvjY7RcC6Vb8EMbYEU/eo2ngTwPNogJPVwFpUcoPhG0sfiR/0NTYroWw0d6mpmdsTOrJ7JwRCG7oqhocOiXB3pCmZ2bTo/FHIpaZtLK0Yu872zus5Y9G097Wovv21NbOWAfjPdL2uiCYTpvZxWLUQchKfqJNEc+y1sYAfIf8o3sKO/KF9K2LKJbXOA9n27Qotubf2ubQqkZzyyy0LvZ+Q5uRP8xII0xmdfV0M0ZzLH7bGRmfC76wpBKaBaYMCIG+/AePptLVazdsBT1TVhmMpxV89uw52zCQfnlazWwPgmFqLe8R3GSpHVQkzYR1F+w1dk/kdOP6tXTv3p00Nz9rYbFBIwKQThc/HVACX0LRpr0qWjsxg0n+0SqnqwtCQHhCEthDZEz15VvCRlM4PXrGFgG2yZ44Eb/opgsiksyv4ukqEM+usSBiPZ9kivxygtmymVpoIw8ejus6ZcQMMc4vLinP5tPiwpJpEx3tvuMzAr29tU1xEhFI0BuxdDO7Lsk0KG8H0sjpEVt4GeFiLB4yaHGkGaKD3CCVzo5O5ZmTJOEvirifiJTW1letCwhiRQvhO9bArK4sKy6taUhkxXkm5FG5y4HjoDl/JyMj4/D4wnd/lUFWWHao1b+8upFm1AK/d++e7Tv14Yfft/79UQlsZiOZ8JQ7wKykzo4uaTDetYLAWhWZxPgCg9RLi4tpYvxBunnjero/di/du3/P/INYbAUzHsk/yAEC0EdpU0QCnBR81lmQCuTAlW4n7946ZRqJaSWKBy17iMq0kkIoV9MnHEQq2BX8YQTibpxU8JMZWHRPIdwZb2LWHDsVsGaHRaV3x8ZsrcnmOptvnkh9vQPKD2kSShtbnKAFMe5y8mRvOnfujOLdm1rbfB0IU3mbbYPK2uw4YGnXt/hD+iBTiGpd+fhYYc+JSECriIpBd4oHQoNwTDtU3DlpcWR4mERLK+o0jSVmYslZlVgyMjI+Hb7QpELSMQireDZI+KAk8MjphOwV9v4HH6RHk5Mm/BGmCDPGGBgLQfAhXNl9Fw2CAW1avwh9BDT99gz50RUz9fiRjbd89PH3beyAzSqXlpc9WMikIAC6n5xUfLPI6LaCYCyMri4bZGe8gYkBjJlAKLhlNS/ggl8hmKPVjz+MOwSq6a4i8iW0BO8u5Gp+6Hv/pCArXbFHm2LGG+bu2ANb6c5YCt1Pto6lrcPGSBiLYmEpWgpjKqdPn5Jm0iuyoEvLu/XWN1j97+tcXBtzrTBIgrAhZSYBoMHFccZ8y4ytnh5pLyJ0yom1McTfBuCVV2fODMtvfChQ5JPZ8ScjI+NT4wtNKgggEKRSRjlTVqW1MJV2QqRyXy1wxl34lO4fE2QmlBBILvQZCxg4yeK5HpuGyoA3jWHWP6xvrNqUWsZbGMBnCjJrMxgAR/BtFAP5Nuiuf64NuLaB35AIBPLaa5eNRNCOgnAgFIqTNSo2vlMTm1VEcR+kqbhWFDOyGE+BmFzoOrH49GUmBfAuxl34jnGX2fn5NCZSuXPrTpqZnvE0iVSMAAcH0+uvX1YaW41Y2PtLPlkeqVQsHBZSss0+aSNdrCOx9OFS+e55OGsEBnEwIwyitbjIn7XVJfmzbeTOCYujIxxhAGnRxQnJMZtL6avPIhUmW/nEYsuMjIzDIXd/1YHsQDDRyg0hSgYx558TDB9OTCRW4SMwV1b96F80AwQVBmLhLHa6nhD4HB3LGgebNiwBxjRCSIYFgJOTj9L9e3etiw1iQUD6xoVbNpAOidCdhonptHR1oaHYWILIC4EKiDNxhQSIN35ABvVwchDdyP/A01XA84Crpb/62gmlhnh20ok4oMlAjiyWXJznuOYVyxvGiui2YqCes1JsyxZlCvtObW9vmqCn65DJCGiKnR3d5p71MpA3ecNiRU5WRFth1T+kQ/wxEBd5xmFYHa0sYGwxN9gxsQL/S8k2oD3ainsRG1oRcXc8nXcZGRkH4wtLKiQ7BGQIpZrGwrNrMZAEYwoQB0KJHS5YnMcgPvtixcynZRmOzDVioRWfvOuGKarDEnLMKiI4BqMRnAzgM77AeMDE+EPb5gVyWV1dSY0Kh9Y+042ZFkwr/OzZs0YoEAmwgWq12Im3CUN5TjwDvOddkAgoE8JBmgp+2uyvgixcyBZaigzfoJVgh1vg7hS2nlnrg5bF1GuPi4hOaeKbbTEGVI0fkArkQr5w39ziizVZtc82I0x2YOubJeUtW7JA4pwI2d7O8cUsSPSjlNFiGOfCT9adXDx/VsTLrDyPWym5Fhcf0/E0kV53YC/cjgGZjIyMQyNrKnuCLAkTgsc1FsB1cYnVySyo20zjE4/Sxx9/km7eui2hh8DrsBlk3jW0ZS1lZh9h6KJBY0GA0hfDGAIzyZiRRAuc9RQrayu2IWKXhCakwjdOHL4dCUK6GpkCu0vRhX49ynYHkUpcd7+LvNgN3IS7IB0mH9hz1X3pW72DXHBHNjC11zWyHiNuCJVtXxh4Z0bZwsI8ioTlY8ywQ5NkoSr7r6EFsn7o7Nkz5oZ87WpTfnloNZSTEsBjQ/llKa4ZGRmHQiaVPUGWhAkB40ImbAHXjQqL/NZszIU1LZzTwvoMmwIsrQXQRcMYB10xdGHZdiMSihAEO+Gy0nldmgvaC6u+OTWOFbct0mggKBsfqQpuxHQ9afBc3BbYq1jLdp+OVIDnBYQQwE3ZXWgyNX/kVgGW3RlBiCzLXVhoOuQDGsf09Iy71adoFJAqXV6hTaKp0IVGVxokAyH5TsLKU76Rm1oMhVr06uBhPI09LTMyMg5AJpU9QZaUswUB40ImbOMaHUNgamYxXbt2vboBI9NsEZAITRbi0f0T3VmsnaCfn/UadP9ALHT1oLlUFzyLWFx418YsdkXL4O/ri3GvYi3bfXpSAQpvm2kANXLBHYZnzGbF9+0CvgeXb9kPQQbJQgZMSIAo6DZE62DwnVX1K9LceIdmEm7osrIwFC82eeQseN/doNZVRYg8mc1eUX8elPImIyPjcMiksi/IlsgaF9wgbDY3mR3FFGAJsEKmMaQxO7domy/elsZy6xanRD70gXe5ZQoyAte7w4aKacG91mKHWMQaRizb7I4rTUYiVEJUYSLAC+ENQnjvilddMe5VrGW7Z5MKcDt/t/s9n7JAMAjEUPgRdnTvhb8QAuMkpBtj61VEKiC0EhZQMmbCe9+8kQ04a5t10t3lhHzK9uuCYHpEOIyZlJJiMaU4zG53tJ8fZQ8zMjIOhUwq+4JsiaxByuyWNOQa8hQXzAxjkLypOD5WHGLkcuPWLdtS/+H4eOI8ki37iEFpBqN9AZ+t2ejts4V4prFIWCJM8QdS4b8L6VJrXP54qdXiVF+MexVr2e5gUgFlTcWv1c/ssXiSG9wFoRB3nr3Lzw/CQtuATCIdLJRkfQ4zw+wEPPnFtz59uDlVNtakybUaybAVP9/TxTU0eDJ1dviMN0A0mEnHSvvdcSQSdrMb1QRkZGS8DGRS2Rf12bK/NLIV57ra4HsBnucXVtP9Bw/S9Rs30+27d6XBcHaHH8zDZpIhdHuZMizDDLEYhEZbqQpJpLRAUdEFRolJBPPG7EF9Me5VrGW75yOVeBfv6XqyS/UbnrnnCmHY2IcMJFDuvgJxYiaTGR5PTdmsOWbV+U4EvfLDN4Zk+5aNtSXbsoVZb0xw6Oj0jTR3ROAQr09cMCtFZ9u7uwTyx4lLL8uJBHWPGRkZLx6ZVPbBfpkScols8ym1PhBfhezpBkPMMit1fXPbBvE5s+WWiGV8YtKmJNN1hvDjW8ZWukUuzIBimmxHJ3thudZTJpSacQFelpLlYsQ2Tjsso+zmIFKp2ti7eKqRiglvxc2IpEiHaRlKC2TJWAf+QhKQCefKMF7C7DZ2KWBcyTbPbG5JHEXMdGy61JjIcO7saOps5xwTJ11IiSyOKHNlTQrheNzcGOHKsEOzJ1AmPjoAkcLAc36WkZFRh0wq+2C/TCkLG7IO4wJezxKO9kw3lp5t3Yi0Fy4Liyvp/tjDdO3GDSMWiMa7inxGE6vtEaAQi117u6ukEsRCrLjHfRyXW31TLkYJ1L2Ktd4uiGUvt7L1v9V3NULh6vHwHZUhE3b/ZYyIuLN4cXnVz5eHRBYWFnS/YgI/4k93FYSDxtZtOw8wYaHZugMZMxk82bmnYMeOOEWe0FUYmguRszAY6/JY4uS5UJ8Dz/9lRkZGGZlUXhJsXMSEW0oVWs8SpCycfDg+me7dH0tXr16z7jC6ghhrMM1GgtKnEPu28MPDQyawaZV7txhrOHyTSUB3UQjZKMYa6cjObGrYr6jje7717zl1cUnaAV1ZroXZzDOhudE3vIQM7bRE29Sx3a7sy0Vcl1aW08LSstI3Y7sEoNGxJQubN7JY0aYGK+Kc9Ii2cf7cWVtnwpRgJxzScRjBvle6Mi1kZHweyKTyksAsLoQvWgoCmXsyenNzJ83NL6SpmRnbqPLO3ft2XC+D1XTbMEtKze3U28v5J76RZGgw+MM6juhuC7EZU21rxOBbtRS6RRXlorbuKwlwJwifsmyr3XXFPw7NYs2ML1J0d3R3NTe1iBja7GwZO8tEhvfsRsxiRXYpHn80YWe0syMAA+3EYnNz3TbWVABGWq9fviR/WlJ3d5fN9mJqNSRWGpbKyMg4gsik8gMAa1SgAJtm61ZpfWMnTU5NpbGxB7au5eH4hK3OD42EljrkgWFjSkgFEgCQTaxIRwZThN4NFN1ChPO0dN6vqLGPd4ThJONTmyEMtAk0Jkikv4/TI3uNYGxjx8VFOzGTNTloKcQLQ9ca+585doxAerqYiNBqxHHp1Yupv5/9vwonQsSY78mDjIyMo4dMKj8gMMvJx0HYebgxbWzS99+Y1kQkEMsnV6+mx4+nTDAz1sBqfMgEYY6QhVyYSYXWwr1rJG6MFFLs0SXsU6LlooY87DsZvotvTSMpiMWIRJoGYTJYzrN1h+kbNnfkRMwpxZkt/NlBINwTv6YWP0QrDhZjk8fz586lkwMDtosAprXVaYSguZMzQ20QPiMj46ghk8pLAgPGCHfb9bZogpPTGDX+/bkwK6ubdq4K57XQfcSCyYamltQirQUBbS1/fYhwR2gD20NMfmOAE4QTA8EdNPsLEgnyAOV32KGNdHX7uS3MTkODws309FSamJgQmTy2Z8ZH6A5jLQlAc8HQrTU0OGSzubq7O228hOOXO9prixXZdotomj/EI16A8n1GRsaRQSaVlwVyVYKbS3U79ZKgLF6ree7WnM3CGg4ENmfkP3o8k2bnF0z4I9ghF0iAK0BrQasoaxZlsNajHuWihqgA3/E9mgHaCMTlq9/RithZucFmby3YVOAVG1wnnuwc3MrJlmhN5lMsdvRV82gioyMj6cyZM/LX40x66foC5AjRKUebKcV0qzWwedfu5GRkZBwRZFJ5WYhcVfZCDAjnIBfTKPSMYGebeN7RgcV2LjZ7ank1ffTJzfTg4YQJcAQ3xWSk0urdQghw7FnnEYRjYcgQuJPK7qItF7WP2/hGjU4GnUZUdLkx+L69zQ7MFZsSzFkvk48mpIEsKBxmqLXb9jLcbyvOEA07BrPi/dVXX00XLpxPrc0QIOtQml0LKVC9IyqYEnmwsBFkUsnIOLrIpPKywPhJQSLWJAeFcIVUIBi7FsLTdRpkqchGt1MzC+nR5HSanJy0rjFmVtl2+N1dptVACAhstApIgbEOvmV3YztJ0UjFu8MC5aKmOwuNAhKBTHiGmMDOToNIZMa29Ge8hC4utqdnMoA8NrKgG4wZW/0DfbbQccAG8PGLacaKU5PpIhamxcv8jdlpelJU6KKDWI3cmEccIJpF1mVkZBwtZFJ5Wdg3V/Wi2grH0dMOOeBLojbNLaxJeE/b7CqIxdZ8SOvp7OqUhrBjA+O20FJeUIytLYxtMA7TmCqb6/Jp91Tj6OLiOwzdajGwDhDwaEZLSytpZno+jY9P2BRmiAciYUowa2jo4sIeEjl1inGTIdNc6A4z8lAcm9Gc9swEJ5QDUc2jjIyMo4RMKi8T9TlrghLL8ounsx9SkQ5jeobkfFpcXJaAH09jY2Npdm7eutNYMCmmsN2MmbrbVJznbuMsaCuNkImTCoBQIBEIgq4upihDNBAJK98ZI2GAnfGTZZHKwjxnvPsBWhAJZEP3F6vdL158xbq4bJGmSIqFjYyVBA9w9UnN9WnzN3sk+WmEZxkZGUcKmVR+4CC798tyt0ccb+8wRmKPhrWNLZtyDLE8tm3i11R6jbaFPITBehLAPV1ZdIHRpRTdXDFzjPd0czHVF6LwLVRWbYowe3OhGS3OLxiRQRjsRTZ6+rTMqHVr8Xx6dCT1nui08MqI2WewEZrK0+ksSCUjI+PYIpPKDxQHZXW893Y+s6XYP4wBcTiDkpqenjVSeTgxYdrF+samdWWZ5iKgrdj4SDEAz3gJ55BwhUwgEAxnvTMIz1gNGgr3EApXG3SXRsOakhO9J9L5s2fT22+/nQZPnkiVCoP8FkUjvaCI3VRB7PfD/m8yMjKOPjKpvCTs7EMgLlL3E6w1UjGUHtnLi0F4iGZjczPNiwhYNEm3GAP3zNhimxe6tCAPtAwmA0A4EApaCosqIQ1MdHcxEM858L6Acd26yPr7+tKXr7yZ3v7yW7bOBPJgnQkHYhF+eUw9sHdX18HYr/I939cZGRk/bMik8pLgpLKXoPWZUAeCVYHl/i+gR3yEYBqbGtLM7IKRCgP5i0vLtn8YJNIuAmlqEsEUpIIBdHXFgD/3oakwRsMYC5s6Xrx4MZ0ePpV6OttsK5XmZo8DZGI9WgWwperwbbXbS7GD1OiKs1MxD8CzKt5z5VFGRsYPHTKpvCQ8i1T2wlO2KhY/t973wWpge5TCEVu4MEiOKF9Z3bBuK05SZP8tZofZeSKpMbW01lbkQyJMT8Zwb1OF5S8aDGebvPbaa+mNN96wxYonulsSx77DIXYAmeLC+S6OHdNo6GKrwqqQTJUEdWXzrwCPxe3BcJfPSb0ZGRk/ZMik8pKwX/eXSdg98JRtXbHYtityVF1AaX99OQwaCgP3DLSzQzBnvnd395m2wGJKs5dGA6HQ5UU3GJrJpUuX0pUrV9Lo6Gh1VlhHB4duOaFsyR1dabF+xffk8unHcTZKvTaFPVFnTKcaSTnZnZpnwV1mUsnIOJrIpHJEQbcTwp7CowQpRjQItJbpaXYNXkwb6z6GEl1eoL+/3w7CYqxkaGjIjus9eZIdkO21c5nkOVOEMzIyMg6LTCrHAEEwwKcKL6f79x5KK1myQXg0FYqZbi62UXHNhL3DVAFK5EFNKPdgZWRkZBwWmVSOARgzgVSsO0pgHGR1ZT1tblaMZOi24j0zwujiamvzQXRKPkr/qZ6sTCoZGRmfAplUjigothqJ+OyreObcFrZVOWggg5LfRSQCdgz2s9VLRkZGxmGRSeWIgsH22GkYlEkG2LqWOsbgsZ5EAnsRTEZGRsZhkUnlGIAijGKMsZW9gJNwh3YD6WDCjntW72dkZGR8WmRSOQagCH0Romsn5fEVxluie4w1K2G/F/g+3MeCyYyMjIzDIJPKEQXdX/UEAoJY9kMQBwTDfRQ/3zzru4yMjIznQSaVY4vPWqyZYDIyMg6PPMUnIyMjI+OFIWsqGRkZGRkvDFlTycjIyMh4YcikkpGRkZHxwpBJJSMjIyPjhSGTSkZGRkbGC0MmlYyMjIyMF4ZMKhkZGRkZLwyZVDIyMjIyXhgyqWRkZGRkvDBkUsnIyMjIeGHIpJKRkZGR8cKQSSUjIyMj44Uhk0pGRkZGxgtDJpWMjIyMjBeGTCoZGRkZGS8MmVQyMjIyMl4YMqlkZGRkZLwwZFLJyMjIyHhhyKSSkZGRkfGCkNL/B7Uaqyp0yYapAAAAAElFTkSuQmCC;" parent="1" vertex="1">
          <mxGeometry x="485" y="70" width="180" height="100" as="geometry" />
        </mxCell>
        <mxCell id="w5DdY1P8ZR5gTNYnL2e2-8" value="" style="endArrow=classic;html=1;rounded=0;edgeStyle=orthogonalEdgeStyle;" parent="1" edge="1">
          <mxGeometry width="50" height="50" relative="1" as="geometry">
            <mxPoint x="470" y="265" as="sourcePoint" />
            <mxPoint x="240" y="265" as="targetPoint" />
          </mxGeometry>
        </mxCell>
        <mxCell id="w5DdY1P8ZR5gTNYnL2e2-11" value="\(\mathsf{PK},\mathcal{H}, \mathsf{FHE}.\mathsf{Enc}(r)\)" style="text;html=1;align=center;verticalAlign=middle;resizable=0;points=[];autosize=1;strokeColor=none;fillColor=none;" parent="1" vertex="1">
          <mxGeometry x="195" y="240" width="330" height="30" as="geometry" />
        </mxCell>
        <mxCell id="w5DdY1P8ZR5gTNYnL2e2-12" value="Sample \(\mathsf{FHE}.\mathsf{pk},\mathsf{FHE}.\mathsf{sk}\)&lt;br&gt;\(r\gets\$\)&lt;br style=&quot;border-color: var(--border-color);&quot;&gt;Sample \(\langle \mathsf{pk}_i,\mathsf{sk}_i\rangle_{i\in[n]}\)&lt;br style=&quot;border-color: var(--border-color);&quot;&gt;Sample CRHF \(\mathcal{H}\)&lt;br style=&quot;border-color: var(--border-color);&quot;&gt;\(\mathsf{PK} = \{\mathsf{pk_i}\}_{i\in[n]}\)" style="text;html=1;align=center;verticalAlign=middle;resizable=0;points=[];autosize=1;strokeColor=none;fillColor=none;" parent="1" vertex="1">
          <mxGeometry x="380" y="180" width="360" height="80" as="geometry" />
        </mxCell>
        <mxCell id="w5DdY1P8ZR5gTNYnL2e2-23" value="" style="endArrow=classic;html=1;rounded=0;edgeStyle=orthogonalEdgeStyle;" parent="1" edge="1">
          <mxGeometry width="50" height="50" relative="1" as="geometry">
            <mxPoint x="470" y="390" as="sourcePoint" />
            <mxPoint x="240" y="390" as="targetPoint" />
          </mxGeometry>
        </mxCell>
        <mxCell id="w5DdY1P8ZR5gTNYnL2e2-24" value="\((\hat y, \pi_y)\)" style="text;html=1;align=center;verticalAlign=middle;resizable=0;points=[];autosize=1;strokeColor=none;fillColor=none;" parent="1" vertex="1">
          <mxGeometry x="305" y="300" width="110" height="30" as="geometry" />
        </mxCell>
        <mxCell id="w5DdY1P8ZR5gTNYnL2e2-40" value="" style="endArrow=classic;html=1;rounded=0;edgeStyle=orthogonalEdgeStyle;" parent="1" edge="1">
          <mxGeometry width="50" height="50" relative="1" as="geometry">
            <mxPoint x="240" y="330" as="sourcePoint" />
            <mxPoint x="470" y="330" as="targetPoint" />
          </mxGeometry>
        </mxCell>
        <mxCell id="w5DdY1P8ZR5gTNYnL2e2-43" value="" style="endArrow=classic;html=1;rounded=0;edgeStyle=orthogonalEdgeStyle;" parent="1" edge="1">
          <mxGeometry width="50" height="50" relative="1" as="geometry">
            <mxPoint x="240" y="560" as="sourcePoint" />
            <mxPoint x="470" y="560" as="targetPoint" />
          </mxGeometry>
        </mxCell>
        <mxCell id="w5DdY1P8ZR5gTNYnL2e2-44" value="&amp;nbsp;\(c\)" style="text;html=1;align=center;verticalAlign=middle;resizable=0;points=[];autosize=1;strokeColor=none;fillColor=none;" parent="1" vertex="1">
          <mxGeometry x="335" y="360" width="50" height="30" as="geometry" />
        </mxCell>
        <mxCell id="NbbzQuYXkgzvRVQTLEoq-2" value="Prover generates quantum proofs:&lt;br&gt;\( |\pi_j\rangle \leftarrow&amp;nbsp;\textcolor{red}{&lt;br&gt;P_{FHM}}(x_j, |\phi_j\rangle^{\otimes k(\lambda)}) \) for all \( j \in [k]\)" style="text;html=1;align=center;verticalAlign=middle;resizable=0;points=[];autosize=1;strokeColor=none;fillColor=none;" parent="1" vertex="1">
          <mxGeometry x="-60" y="160" width="390" height="60" as="geometry" />
        </mxCell>
        <mxCell id="NbbzQuYXkgzvRVQTLEoq-3" value="&lt;div style=&quot;border-color: var(--border-color); text-align: right;&quot;&gt;compute commitments for all \( j \in [k]\)&lt;/div&gt;&lt;div style=&quot;border-color: var(--border-color); text-align: right;&quot;&gt;\((\vec{y}_j, |st_j\rangle) \leftarrow \textcolor{green}{Commit}(PK, |\pi_j\rangle)\)&lt;/div&gt;&lt;div style=&quot;border-color: var(--border-color); text-align: right;&quot;&gt;\(\hat{y} = MerkleRoot(\vec{y})\)&lt;/div&gt;&lt;div style=&quot;border-color: var(--border-color); text-align: right;&quot;&gt;&lt;br&gt;&lt;/div&gt;&lt;div style=&quot;border-color: var(--border-color); text-align: right;&quot;&gt;generate seBARG proof \( \pi_y \)&lt;/div&gt;" style="text;html=1;align=center;verticalAlign=middle;resizable=0;points=[];autosize=1;strokeColor=none;fillColor=none;" parent="1" vertex="1">
          <mxGeometry x="-90" y="260" width="450" height="80" as="geometry" />
        </mxCell>
        <mxCell id="NbbzQuYXkgzvRVQTLEoq-4" value="Run \(\mathsf{seBARG_1}.Verify(\hat{y}, \pi_y)\)" style="text;html=1;align=center;verticalAlign=middle;resizable=0;points=[];autosize=1;strokeColor=none;fillColor=none;" parent="1" vertex="1">
          <mxGeometry x="435" y="320" width="280" height="30" as="geometry" />
        </mxCell>
        <mxCell id="NbbzQuYXkgzvRVQTLEoq-5" value="\(c \xleftarrow{$} \{0,1\}\)" style="text;html=1;align=center;verticalAlign=middle;resizable=0;points=[];autosize=1;strokeColor=none;fillColor=none;" parent="1" vertex="1">
          <mxGeometry x="450" y="340" width="150" height="30" as="geometry" />
        </mxCell>
        <mxCell id="NbbzQuYXkgzvRVQTLEoq-6" value="&lt;div style=&quot;border-color: var(--border-color); text-align: right;&quot;&gt;compute openings for all \( j \in [k]\)&lt;/div&gt;\(\vec{z}_j \leftarrow \textcolor{green}{Open}(|st_j\rangle, c_j)\)&lt;br&gt;\(\hat{z} = MerkleRoot(\vec{z})\)&lt;br&gt;&lt;br&gt;generate seBARG proof \( \pi_z\)" style="text;html=1;align=center;verticalAlign=middle;resizable=0;points=[];autosize=1;strokeColor=none;fillColor=none;" parent="1" vertex="1">
          <mxGeometry x="-34.989999999999995" y="380" width="360" height="80" as="geometry" />
        </mxCell>
        <mxCell id="NbbzQuYXkgzvRVQTLEoq-7" value="&lt;div style=&quot;border-color: var(--border-color); text-align: right;&quot;&gt;Run \( V_{VS} \) under FHE for all \( j \in [k]\):&lt;/div&gt;&lt;div style=&quot;border-color: var(--border-color); text-align: right;&quot;&gt;\( ct_j \gets \mathsf{FHE}.\mathsf{Eval}(V_{VS}(x_j, y_j, z_j, c, \cdot), \mathsf{FHE}.\mathsf{Enc}(r))\)&lt;/div&gt;&lt;div style=&quot;border-color: var(--border-color); text-align: right;&quot;&gt;&lt;br&gt;&lt;/div&gt;&lt;div style=&quot;border-color: var(--border-color); text-align: right;&quot;&gt;generate seBARG proof \( \pi_{ct}\)&lt;/div&gt;" style="text;html=1;align=center;verticalAlign=middle;resizable=0;points=[];autosize=1;strokeColor=none;fillColor=none;" parent="1" vertex="1">
          <mxGeometry x="-200" y="500" width="570" height="70" as="geometry" />
        </mxCell>
        <mxCell id="NbbzQuYXkgzvRVQTLEoq-8" value="\((\hat z, \pi_z, \{ct_j\}_{j=0}, \pi_{ct})\)" style="text;html=1;align=center;verticalAlign=middle;resizable=0;points=[];autosize=1;strokeColor=none;fillColor=none;" parent="1" vertex="1">
          <mxGeometry x="230" y="530" width="230" height="30" as="geometry" />
        </mxCell>
        <mxCell id="NbbzQuYXkgzvRVQTLEoq-9" value="Run \(\mathsf{seBARG_2}.Verify(\hat{z}, \pi_z)\)&lt;br&gt;&lt;br&gt;Run \(\mathsf{seBARG_3}.Verify(\hat{y}, \hat{z}, \{ct_i\}_{i=1}^k,\pi_z, \pi_{ct})\)" style="text;html=1;align=left;verticalAlign=middle;resizable=0;points=[];autosize=1;strokeColor=none;fillColor=none;" parent="1" vertex="1">
          <mxGeometry x="485" y="540" width="450" height="60" as="geometry" />
        </mxCell>
      </root>
    </mxGraphModel>
  </diagram>
</mxfile>
